<svg id="Layer_3" data-name="Layer 3" xmlns="http://www.w3.org/2000/svg" viewBox="0 0 147 147"><defs><style>.cls-1{fill:#242a37}</style></defs><title>icon-assessment</title><path class="cls-1" d="M73.5 147A73.5 73.5 0 1 1 147 73.5 73.62 73.62 0 0 1 73.5 147zm0-144A70.5 70.5 0 1 0 144 73.5 70.546 70.546 0 0 0 73.5 3z"/><path class="cls-1" d="M54.7 57.5h-20a1.538 1.538 0 0 1-1.5-1.5V36a1.538 1.538 0 0 1 1.5-1.5h20a1.538 1.538 0 0 1 1.5 1.5v20a1.538 1.538 0 0 1-1.5 1.5zm-18.5-3h17v-17h-17zm18.5 33h-20a1.538 1.538 0 0 1-1.5-1.5V66a1.538 1.538 0 0 1 1.5-1.5h20a1.538 1.538 0 0 1 1.5 1.5v20a1.538 1.538 0 0 1-1.5 1.5zm-18.5-3h17v-17h-17zm18.5 33h-20a1.538 1.538 0 0 1-1.5-1.5V96a1.538 1.538 0 0 1 1.5-1.5h20a1.538 1.538 0 0 1 1.5 1.5v20a1.538 1.538 0 0 1-1.5 1.5zm-18.5-3h17v-17h-17zm75-72h-47a1.5 1.5 0 0 1 0-3h47a1.5 1.5 0 0 1 0 3zm-20 10h-27a1.5 1.5 0 0 1 0-3h27a1.5 1.5 0 1 1 0 3zm20 20h-47a1.5 1.5 0 0 1 0-3h47a1.5 1.5 0 0 1 0 3zm-20 10h-27a1.5 1.5 0 0 1 0-3h27a1.5 1.5 0 1 1 0 3zm20 20h-47a1.5 1.5 0 0 1 0-3h47a1.5 1.5 0 0 1 0 3zm-20 10h-27a1.5 1.5 0 0 1 0-3h27a1.5 1.5 0 1 1 0 3z"/><path class="cls-1" d="M41.7 80.6a1.284 1.284 0 0 1-1-.4 1.547 1.547 0 0 1-.1-2.1l6.1-6.5a1.487 1.487 0 0 1 2.2 2l-6.1 6.5a1.606 1.606 0 0 1-1.1.5z"/><path class="cls-1" d="M47.8 80.6a1.606 1.606 0 0 1-1.1-.5l-6.1-6.5a1.487 1.487 0 0 1 2.2-2l6.1 6.5a1.45 1.45 0 0 1-.1 2.1 1.528 1.528 0 0 1-1 .4z"/></svg>