<svg id="Layer_3" data-name="Layer 3" xmlns="http://www.w3.org/2000/svg" viewBox="0 0 147 147"><defs><style>.cls-1{fill:#242a37}</style></defs><title>icon-policy</title><path class="cls-1" d="M73.5 147A73.5 73.5 0 1 1 147 73.5 73.62 73.62 0 0 1 73.5 147zm0-144A70.5 70.5 0 1 0 144 73.5 70.546 70.546 0 0 0 73.5 3z"/><path class="cls-1" d="M39.7 107a1.538 1.538 0 0 1-1.5-1.5v-64a1.5 1.5 0 0 1 3 0v64a1.538 1.538 0 0 1-1.5 1.5zm64 9.5H49.2a1.5 1.5 0 0 1 0-3h53v-73a1.5 1.5 0 0 1 3 0V115a1.538 1.538 0 0 1-1.5 1.5zm-9.5-84h-45a1.5 1.5 0 0 1 0-3h45a1.5 1.5 0 0 1 0 3z"/><path class="cls-1" d="M49.7 116.5a11.5 11.5 0 0 1 0-23 1.5 1.5 0 1 1 0 3 8.5 8.5 0 0 0 0 17 1.5 1.5 0 1 1 0 3zm-10-74a1.538 1.538 0 0 1-1.5-1.5 11.566 11.566 0 0 1 11.5-11.5 1.5 1.5 0 0 1 0 3 8.493 8.493 0 0 0-8.5 8.5 1.538 1.538 0 0 1-1.5 1.5z"/><path class="cls-1" d="M94.2 106.5h-45a1.5 1.5 0 0 1 0-3h45a1.5 1.5 0 1 1 0 3zm0-10h-44a1.5 1.5 0 0 1 0-3h44a1.5 1.5 0 1 1 0 3z"/><path class="cls-1" d="M94.7 96a1.538 1.538 0 0 1-1.5-1.5v-63a1.5 1.5 0 0 1 3 0v63a1.538 1.538 0 0 1-1.5 1.5zM82.2 49.5h-28a1.5 1.5 0 0 1 0-3h28a1.5 1.5 0 1 1 0 3zm0 10h-28a1.5 1.5 0 0 1 0-3h28a1.5 1.5 0 1 1 0 3zm-11 10h-17a1.5 1.5 0 0 1 0-3h17a1.5 1.5 0 1 1 0 3z"/></svg>