<svg xmlns="http://www.w3.org/2000/svg" viewBox="0 0 349.52341 94.87213" preserveAspectRatio="xMidYMid meet"><defs><style>.a{fill:#231f20}.b{fill:#0081c6}.c{fill:#fff}.d{fill:url(#a)}.e{fill:url(#b)}.f{fill:none}.g{fill:url(#c)}</style><linearGradient id="a" x1="106.62" y1="41.677" x2="30.574" y2="-2.228" gradientUnits="userSpaceOnUse"><stop offset="0" stop-color="#6cb33f"/><stop offset=".5" stop-color="#6cb33f"/><stop offset=".714" stop-color="#6ab13e"/><stop offset=".792" stop-color="#65aa3b"/><stop offset=".847" stop-color="#5b9f35"/><stop offset=".891" stop-color="#4d8e2c"/><stop offset=".929" stop-color="#3a7822"/><stop offset=".963" stop-color="#235c14"/><stop offset=".993" stop-color="#093d04"/><stop offset="1" stop-color="#013400"/></linearGradient><linearGradient id="b" x1="1.607" y1="3.188" x2="42.154" y2="73.417" gradientUnits="userSpaceOnUse"><stop offset="0" stop-color="#f8971d"/><stop offset=".5" stop-color="#f8971d"/><stop offset=".702" stop-color="#f6961d"/><stop offset=".775" stop-color="#ef911c"/><stop offset=".827" stop-color="#e48a19"/><stop offset=".869" stop-color="#d37f17"/><stop offset=".905" stop-color="#bd7113"/><stop offset=".937" stop-color="#a15f0e"/><stop offset=".966" stop-color="#814a09"/><stop offset=".992" stop-color="#5d3302"/><stop offset="1" stop-color="#4f2a00"/></linearGradient><linearGradient id="c" x1="26.033" y1="111.68" x2="83.221" y2="43.526" gradientUnits="userSpaceOnUse"><stop offset="0" stop-color="#0081c6"/><stop offset=".5" stop-color="#0081c6"/><stop offset=".703" stop-color="#0080c4"/><stop offset=".776" stop-color="#007abd"/><stop offset=".828" stop-color="#0071b2"/><stop offset=".87" stop-color="#0064a1"/><stop offset=".906" stop-color="#00538b"/><stop offset=".938" stop-color="#003e6f"/><stop offset=".967" stop-color="#00254f"/><stop offset=".993" stop-color="#00092b"/><stop offset="1" stop-color="#00001f"/></linearGradient></defs><title>nrmc_logo</title><path class="a" d="M177.561 74.345a7.199 7.199 0 0 0-5.78 2.379c-1.357 1.59-2.027 3.906-2.027 6.933 0 3.03.68 5.303 2.064 6.803 1.385 1.5 3.512 2.24 6.353 2.24a11.404 11.404 0 0 0 4.294-.754 6.143 6.143 0 0 0 1.412-.744 1.067 1.067 0 0 0 .51-.793 2.335 2.335 0 0 0-.443-1.082c-.292-.457-.551-.724-.867-.734l-.116.03c-.116.046-.33.151-.652.321l-.002.002h-.001a8.355 8.355 0 0 1-4.17 1.067 4.814 4.814 0 0 1-3.664-1.28 6.34 6.34 0 0 1-1.406-3.918h10.552c.282-.007.53-.222.812-.591a1.733 1.733 0 0 0 .43-.92c0-2.961-.6-5.2-1.822-6.703a6.647 6.647 0 0 0-5.477-2.256zm4.032 7.783h-8.527a6.405 6.405 0 0 1 1.324-3.8 4.134 4.134 0 0 1 3.272-1.296 3.459 3.459 0 0 1 2.946 1.287 6.37 6.37 0 0 1 .985 3.809zM152.232 74.345a6.733 6.733 0 0 0-4.99 2.412c-.01-.049-.02-.095-.031-.158a3.091 3.091 0 0 0-.105-.46 8.486 8.486 0 0 1-.117-.398 2.849 2.849 0 0 0-.141-.424v-.002a1.698 1.698 0 0 0-.201-.33h-.001a.877.877 0 0 0-.295-.254h-.001a1.305 1.305 0 0 0-.547-.082 4.091 4.091 0 0 0-1.033.192 1.348 1.348 0 0 0-.533.27.586.586 0 0 0-.2.443 3.996 3.996 0 0 0 .06.402c.04.22.1.535.178.942a17.559 17.559 0 0 1 .167 2.92v11.876a.727.727 0 0 0 .404.668 2.291 2.291 0 0 0 1.076.203h.135a2.294 2.294 0 0 0 1.076-.203.726.726 0 0 0 .402-.668v-12.34a5.169 5.169 0 0 1 4.139-2.289 3.425 3.425 0 0 1 2.469.829 3.074 3.074 0 0 1 .857 2.33v11.47a.727.727 0 0 0 .403.668 2.291 2.291 0 0 0 1.077.203h.134a2.288 2.288 0 0 0 1.076-.203.727.727 0 0 0 .404-.668V79.952a5.529 5.529 0 0 0-1.51-4.115 5.938 5.938 0 0 0-4.352-1.492zM125.179 88.187a.91.91 0 0 0-.319.119c-.145.072-.34.177-.59.32a10.886 10.886 0 0 1-2.074.834 9.416 9.416 0 0 1-2.839.418c-2.64-.002-4.562-.752-5.808-2.238-1.246-1.489-1.883-3.862-1.883-7.13s.643-5.634 1.899-7.109c1.256-1.476 3.22-2.222 5.93-2.224a8.876 8.876 0 0 1 2.602.367 9.824 9.824 0 0 1 1.852.734q.331.188.516.282l.152.074.121.033c.309-.018.543-.307.836-.809a2.754 2.754 0 0 0 .44-1.279 1.053 1.053 0 0 0-.557-.808 6.42 6.42 0 0 0-1.541-.715 13.736 13.736 0 0 0-4.49-.7c-3.676-.001-6.46 1.012-8.317 3.053-1.855 2.04-2.773 5.086-2.773 9.12 0 4.144.888 7.218 2.69 9.202 1.802 1.987 4.59 2.97 8.331 2.97a13.487 13.487 0 0 0 4.936-.839 6.973 6.973 0 0 0 1.617-.832 1.198 1.198 0 0 0 .577-.892 2.651 2.651 0 0 0-.457-1.147c-.304-.5-.544-.789-.851-.804zM195.333 74.741a2.57 2.57 0 0 0-1.528-.396c-1.41 0-2.7.814-3.865 2.376l-.023-.122a3.368 3.368 0 0 0-.105-.46q-.05-.146-.118-.398a2.837 2.837 0 0 0-.141-.424v-.002a1.697 1.697 0 0 0-.201-.33.899.899 0 0 0-.296-.254h-.001a1.302 1.302 0 0 0-.546-.082 4.061 4.061 0 0 0-1.033.192 1.34 1.34 0 0 0-.534.27.59.59 0 0 0-.2.443c.001.062.022.177.06.402.04.22.1.535.18.942v.001l-.001-.001a17.47 17.47 0 0 1 .167 2.92v11.876a.724.724 0 0 0 .404.668 2.284 2.284 0 0 0 1.075.203h.135a2.294 2.294 0 0 0 1.076-.203.726.726 0 0 0 .402-.668V79.353l.38-.473v-.002l.002-.002a4.464 4.464 0 0 1 1.12-1.002 2.584 2.584 0 0 1 1.436-.504 3.66 3.66 0 0 1 1.21.18 2.867 2.867 0 0 0 .702.193.451.451 0 0 0 .353-.207 1.722 1.722 0 0 0 .24-.506 4.019 4.019 0 0 0 .209-1.24 1.258 1.258 0 0 0-.559-1.049zM134.991 74.345a7.203 7.203 0 0 0-5.78 2.379c-1.358 1.59-2.026 3.906-2.026 6.933 0 3.03.68 5.303 2.063 6.803 1.385 1.5 3.512 2.24 6.353 2.24a11.4 11.4 0 0 0 4.293-.754 6.13 6.13 0 0 0 1.414-.744 1.066 1.066 0 0 0 .508-.793 2.342 2.342 0 0 0-.441-1.082c-.293-.457-.553-.724-.867-.734l-.117.03c-.117.046-.33.151-.653.321v.002h-.003a8.344 8.344 0 0 1-4.169 1.067 4.816 4.816 0 0 1-3.665-1.28 6.346 6.346 0 0 1-1.403-3.918h10.55c.282-.007.53-.222.811-.591a1.735 1.735 0 0 0 .432-.92c0-2.961-.6-5.2-1.821-6.703a6.65 6.65 0 0 0-5.479-2.256zm4.03 7.783h-8.524a6.399 6.399 0 0 1 1.322-3.8 4.138 4.138 0 0 1 3.275-1.296 3.46 3.46 0 0 1 2.945 1.287 6.37 6.37 0 0 1 .983 3.809zM168.598 90.048a.48.48 0 0 0-.376-.203 4.217 4.217 0 0 0-.5.086 4.734 4.734 0 0 1-.955.082 1.46 1.46 0 0 1-1.27-.574 3.059 3.059 0 0 1-.433-1.805V77.235h2.717a.7.7 0 0 0 .613-.31 1.515 1.515 0 0 0 .19-.83v-.406a1.515 1.515 0 0 0-.19-.83.7.7 0 0 0-.613-.311h-2.716V71.12a.774.774 0 0 0-.305-.658 1.395 1.395 0 0 0-.836-.211h-.338a1.472 1.472 0 0 0-.85.209.835.835 0 0 0-.357.646l-.394 3.442h-1.58a.697.697 0 0 0-.612.31 1.507 1.507 0 0 0-.19.83v.407a1.507 1.507 0 0 0 .19.83.697.697 0 0 0 .611.31h1.568v10.67c-.001 1.756.45 3.014 1.384 3.737a4.952 4.952 0 0 0 3.105 1.058 5.224 5.224 0 0 0 1.901-.263.952.952 0 0 0 .696-.877 3.54 3.54 0 0 0-.21-1.002 1.588 1.588 0 0 0-.25-.51z"/><path class="b" d="M210.272 60.285a17.942 17.942 0 0 1-.167-2.92v-7.58a4.847 4.847 0 0 0-1.806-4.007 7.171 7.171 0 0 0-4.614-1.431 13.944 13.944 0 0 0-4.797.734 6.48 6.48 0 0 0-1.516.74 1.08 1.08 0 0 0-.546.816 2.324 2.324 0 0 0 .443 1.08c.29.46.551.727.867.737l.12-.033c.125-.05.358-.166.717-.354a9.672 9.672 0 0 1 4.441-1.035 4.455 4.455 0 0 1 2.717.686 2.386 2.386 0 0 1 .882 2.032v1.47q-2.874.07-5.136.351a8.94 8.94 0 0 0-4.203 1.648 4.754 4.754 0 0 0-1.897 4.111 4.91 4.91 0 0 0 1.637 4.057 6.584 6.584 0 0 0 4.274 1.313 7.47 7.47 0 0 0 5.614-2.413c.01.058.022.115.034.193a3.105 3.105 0 0 0 .105.494c.033.095.072.235.117.414a2.784 2.784 0 0 0 .141.443 2.035 2.035 0 0 0 .198.343v-.001a.814.814 0 0 0 .301.277 1.3 1.3 0 0 0 .546.081 3.985 3.985 0 0 0 1.033-.19 1.335 1.335 0 0 0 .533-.27.588.588 0 0 0 .2-.443c-.001-.057-.02-.16-.06-.386l-.178-.957zm-3.26-2.573a11.578 11.578 0 0 1-2.384 1.673 6.134 6.134 0 0 1-2.804.595 2.87 2.87 0 0 1-2.07-.659 2.645 2.645 0 0 1-.682-1.99 2.413 2.413 0 0 1 1.32-2.36h.002a11.445 11.445 0 0 1 1.338-.603h.002a18.619 18.619 0 0 1 5.279-.465zM128.705 40.334a2.287 2.287 0 0 0 1.075.201h.407a2.295 2.295 0 0 0 1.075-.201.73.73 0 0 0 .402-.668v-1.997a.73.73 0 0 0-.402-.668 2.282 2.282 0 0 0-1.075-.201h-.407a2.274 2.274 0 0 0-1.075.201.73.73 0 0 0-.404.668v1.997a.73.73 0 0 0 .404.668zM131.127 44.683a2.285 2.285 0 0 0-1.076-.202h-.135a2.282 2.282 0 0 0-1.076.202.73.73 0 0 0-.403.668v16.345a.731.731 0 0 0 .403.668 2.294 2.294 0 0 0 1.076.201h.135a2.297 2.297 0 0 0 1.076-.2.73.73 0 0 0 .402-.669V45.351a.73.73 0 0 0-.402-.668zM349.314 60.558a1.598 1.598 0 0 0-.25-.51.483.483 0 0 0-.377-.203 4.011 4.011 0 0 0-.499.088 4.8 4.8 0 0 1-.956.082 1.463 1.463 0 0 1-1.27-.575 3.058 3.058 0 0 1-.432-1.805v-10.4h2.717a.696.696 0 0 0 .612-.308 1.516 1.516 0 0 0 .19-.832v-.405a1.512 1.512 0 0 0-.19-.832.694.694 0 0 0-.612-.308h-2.717V41.12a.775.775 0 0 0-.304-.66 1.41 1.41 0 0 0-.836-.21h-.338a1.492 1.492 0 0 0-.85.209.841.841 0 0 0-.356.646h-.001l-.395 3.444h-1.58a.693.693 0 0 0-.611.308 1.503 1.503 0 0 0-.19.832v.405a1.507 1.507 0 0 0 .19.832.696.696 0 0 0 .611.308h1.567v10.67c0 1.756.452 3.016 1.385 3.737a4.947 4.947 0 0 0 3.106 1.058 5.25 5.25 0 0 0 1.9-.262.953.953 0 0 0 .695-.877 3.531 3.531 0 0 0-.209-1.003zM332.36 44.347a6.728 6.728 0 0 0-4.99 2.41c-.01-.049-.02-.095-.03-.158a3.5 3.5 0 0 0-.107-.458 6.233 6.233 0 0 1-.116-.4 3.1 3.1 0 0 0-.141-.424 1.58 1.58 0 0 0-.203-.33.904.904 0 0 0-.296-.256 1.317 1.317 0 0 0-.546-.08 3.995 3.995 0 0 0-1.034.19 1.322 1.322 0 0 0-.532.27.588.588 0 0 0-.2.443 3.52 3.52 0 0 0 .06.402q.06.333.178.942a17.559 17.559 0 0 1 .167 2.92v11.878a.73.73 0 0 0 .404.668 2.292 2.292 0 0 0 1.075.201h.136a2.294 2.294 0 0 0 1.075-.2.73.73 0 0 0 .402-.669v-12.34a5.165 5.165 0 0 1 4.14-2.29 3.412 3.412 0 0 1 2.467.829 3.074 3.074 0 0 1 .86 2.329v11.472a.728.728 0 0 0 .402.668 2.291 2.291 0 0 0 1.075.201h.136a2.292 2.292 0 0 0 1.075-.2.727.727 0 0 0 .404-.669V49.953a5.53 5.53 0 0 0-1.51-4.116 5.934 5.934 0 0 0-4.35-1.49zM314.78 44.347a7.2 7.2 0 0 0-5.78 2.378c-1.357 1.589-2.026 3.905-2.026 6.934 0 3.029.68 5.302 2.063 6.802 1.386 1.5 3.513 2.24 6.353 2.24a11.394 11.394 0 0 0 4.294-.755 6.133 6.133 0 0 0 1.413-.744 1.069 1.069 0 0 0 .509-.793 2.345 2.345 0 0 0-.442-1.08c-.292-.459-.553-.726-.867-.736l-.116.03c-.117.047-.33.153-.654.322v.001l-.003.001a8.367 8.367 0 0 1-4.168 1.068 4.822 4.822 0 0 1-3.666-1.282 6.346 6.346 0 0 1-1.404-3.918h10.553c.28-.006.53-.222.81-.591a1.714 1.714 0 0 0 .43-.92c0-2.961-.6-5.198-1.82-6.703a6.65 6.65 0 0 0-5.479-2.254zm4.031 7.783h-8.525a6.402 6.402 0 0 1 1.322-3.803 4.14 4.14 0 0 1 3.275-1.295 3.46 3.46 0 0 1 2.945 1.287 6.384 6.384 0 0 1 .983 3.81zM302.602 45.349h-.002l-.001-.001a6.349 6.349 0 0 0-3.52-1.001 6.988 6.988 0 0 0-5.35 2.715c-.813-1.804-2.461-2.722-4.87-2.715a6.69 6.69 0 0 0-5.075 2.407 5.572 5.572 0 0 1-.03-.155 3.515 3.515 0 0 0-.106-.458 6.299 6.299 0 0 1-.116-.4 3.073 3.073 0 0 0-.141-.424h-.001a1.605 1.605 0 0 0-.202-.33.905.905 0 0 0-.295-.256h-.001a1.317 1.317 0 0 0-.546-.08 3.988 3.988 0 0 0-1.034.19 1.321 1.321 0 0 0-.532.27.588.588 0 0 0-.2.443 3.566 3.566 0 0 0 .06.402q.06.333.178.942a17.683 17.683 0 0 1 .167 2.92v11.878a.73.73 0 0 0 .404.668 2.292 2.292 0 0 0 1.075.201h.136a2.294 2.294 0 0 0 1.075-.2.73.73 0 0 0 .402-.669V49.323l.478-.539.002-.003.002-.003a4.808 4.808 0 0 1 1.468-1.152 4.652 4.652 0 0 1 2.307-.56 2.71 2.71 0 0 1 2.075.841 3.23 3.23 0 0 1 .795 2.317v11.472a.731.731 0 0 0 .403.668 2.294 2.294 0 0 0 1.077.201h.134a2.296 2.296 0 0 0 1.076-.2.73.73 0 0 0 .404-.669V49.987a6.044 6.044 0 0 0-.03-.666c1.351-1.514 2.695-2.256 4.033-2.255a3.046 3.046 0 0 1 2.329.841 3.24 3.24 0 0 1 .795 2.317v11.472a.73.73 0 0 0 .402.668 2.294 2.294 0 0 0 1.076.201h.135a2.292 2.292 0 0 0 1.075-.2.73.73 0 0 0 .405-.669V49.953a6.963 6.963 0 0 0-.52-2.825 4.072 4.072 0 0 0-1.396-1.78zM148.5 62.364a2.296 2.296 0 0 0 1.076.201h.135a2.296 2.296 0 0 0 1.076-.2.73.73 0 0 0 .403-.669v-7.535l6.683 7.92c.308.35.942.48 1.922.484h.137a4.036 4.036 0 0 0 1.154-.125c.264-.079.459-.236.459-.474a1.042 1.042 0 0 0-.334-.621l-.002-.004-6.9-8.173 6.226-7.364a1.183 1.183 0 0 0 .367-.758.491.491 0 0 0-.378-.446 2.792 2.792 0 0 0-.932-.119h-.135c-.956.004-1.583.148-1.889.519l-.002.002-6.376 7.612V37.67a.73.73 0 0 0-.403-.668 2.284 2.284 0 0 0-1.076-.201h-.135A2.284 2.284 0 0 0 148.5 37a.73.73 0 0 0-.402.668v24.027a.73.73 0 0 0 .402.668zM221.57 44.347a6.728 6.728 0 0 0-4.99 2.41c-.01-.049-.02-.095-.03-.158a3.517 3.517 0 0 0-.107-.458 6.289 6.289 0 0 1-.116-.4v-.002.002a2.967 2.967 0 0 0-.142-.424 1.606 1.606 0 0 0-.202-.33.904.904 0 0 0-.296-.256 1.317 1.317 0 0 0-.546-.08 3.988 3.988 0 0 0-1.034.19 1.332 1.332 0 0 0-.533.27.591.591 0 0 0-.2.443 3.566 3.566 0 0 0 .061.402q.06.333.178.942a17.671 17.671 0 0 1 .167 2.92v11.878a.728.728 0 0 0 .404.668 2.292 2.292 0 0 0 1.075.201h.135a2.292 2.292 0 0 0 1.076-.2.728.728 0 0 0 .402-.669v-12.34a5.165 5.165 0 0 1 4.14-2.29 3.412 3.412 0 0 1 2.467.829 3.075 3.075 0 0 1 .86 2.329v11.472a.727.727 0 0 0 .402.668 2.292 2.292 0 0 0 1.075.201h.136a2.291 2.291 0 0 0 1.075-.2.73.73 0 0 0 .404-.669V49.953a5.535 5.535 0 0 0-1.51-4.116 5.94 5.94 0 0 0-4.352-1.49zM271.23 44.347a7.195 7.195 0 0 0-5.78 2.378c-1.358 1.589-2.027 3.905-2.027 6.934 0 3.029.68 5.302 2.063 6.802s3.512 2.24 6.353 2.24a11.404 11.404 0 0 0 4.294-.755 6.14 6.14 0 0 0 1.412-.744 1.067 1.067 0 0 0 .51-.793 2.337 2.337 0 0 0-.443-1.08c-.292-.459-.552-.726-.867-.736l-.116.03c-.116.047-.33.153-.652.322l-.002.001-.001.001a8.372 8.372 0 0 1-4.17 1.068 4.823 4.823 0 0 1-3.664-1.282 6.334 6.334 0 0 1-1.406-3.918h10.552c.282-.006.53-.222.812-.591a1.73 1.73 0 0 0 .43-.92c0-2.961-.6-5.198-1.822-6.703a6.646 6.646 0 0 0-5.477-2.254zm4.03 7.783h-8.526a6.403 6.403 0 0 1 1.324-3.803 4.137 4.137 0 0 1 3.272-1.295 3.459 3.459 0 0 1 2.946 1.287 6.377 6.377 0 0 1 .985 3.81zM174.557 39.163a1.61 1.61 0 0 0-1.53-.672h-1.218a2.303 2.303 0 0 0-1.076.202.727.727 0 0 0-.403.668v22.335a.728.728 0 0 0 .403.668 2.292 2.292 0 0 0 1.076.201h.236a2.296 2.296 0 0 0 1.076-.2.73.73 0 0 0 .403-.669v-17.94l6.668 11.637.001.002h.001a.915.915 0 0 0 .853.503h1.353a.918.918 0 0 0 .856-.504h-.001l6.566-11.436v17.738a.731.731 0 0 0 .404.668 2.294 2.294 0 0 0 1.076.201h.236a2.292 2.292 0 0 0 1.075-.2.727.727 0 0 0 .404-.669V39.361a.727.727 0 0 0-.404-.668 2.303 2.303 0 0 0-1.075-.202h-1.116a1.604 1.604 0 0 0-1.53.674l-6.399 11.307-.763 1.672-.773-1.873-6.4-11.108zM144.303 53.571a10.673 10.673 0 0 0-4.367-2.18 5.325 5.325 0 0 1-1.967-.954 1.784 1.784 0 0 1-.551-1.397 1.709 1.709 0 0 1 .744-1.44 3.557 3.557 0 0 1 2.16-.568 5.322 5.322 0 0 1 2.53.595h.003c.135.07.24.12.315.155l.094.041.086.022c.304-.014.533-.29.802-.758a2.607 2.607 0 0 0 .406-1.194.79.79 0 0 0-.39-.618 3.887 3.887 0 0 0-1.05-.483 10.077 10.077 0 0 0-3.118-.445 6.043 6.043 0 0 0-4.144 1.4 4.48 4.48 0 0 0-1.598 3.496 4.195 4.195 0 0 0 1.052 3.117 7.756 7.756 0 0 0 3.336 1.672 7.62 7.62 0 0 1 2.977 1.342 2.553 2.553 0 0 1 .723 1.94 2.488 2.488 0 0 1-.822 1.97 3.086 3.086 0 0 1-2.117.73 7.002 7.002 0 0 1-2.243-.315 6.852 6.852 0 0 1-1.429-.63c-.17-.107-.3-.188-.393-.243l-.11-.063-.04-.02-.065-.015c-.315.01-.576.278-.867.736a2.332 2.332 0 0 0-.443 1.08 1.014 1.014 0 0 0 .47.755 5.487 5.487 0 0 0 1.299.698 10.708 10.708 0 0 0 4.076.703 5.884 5.884 0 0 0 4.094-1.554 5.132 5.132 0 0 0 1.716-3.968 5 5 0 0 0-1.17-3.607zM262.025 44.55h-5.81a11.527 11.527 0 0 0-2.243-.203 7.157 7.157 0 0 0-5.078 1.691 5.618 5.618 0 0 0-1.816 4.287 5.864 5.864 0 0 0 .814 3.059 5.256 5.256 0 0 0 2.1 1.963c-1.57.595-2.41 1.54-2.406 2.812a3.036 3.036 0 0 0 1.98 2.816c-2.386.908-3.64 2.293-3.638 4.137a3.651 3.651 0 0 0 2.065 3.547 13.444 13.444 0 0 0 5.86 1.012 10.878 10.878 0 0 0 6.126-1.527 4.586 4.586 0 0 0 2.306-3.91 4.04 4.04 0 0 0-1.223-3.051 6.033 6.033 0 0 0-2.918-1.538q-1.68-.374-3.363-.578a17.259 17.259 0 0 1-2.839-.554 2.21 2.21 0 0 1-.84-.416.69.69 0 0 1-.254-.53.973.973 0 0 1 .657-.886 5.71 5.71 0 0 1 2.134-.41h.333a7.217 7.217 0 0 0 5.092-1.692 5.558 5.558 0 0 0 1.834-4.254 5.036 5.036 0 0 0-1.004-3.09h2.131a.695.695 0 0 0 .612-.308 1.5 1.5 0 0 0 .19-.832v-.405a1.496 1.496 0 0 0-.19-.832.693.693 0 0 0-.612-.308zm-9.628 17.242c.337.066.784.144 1.352.23h.002a14.358 14.358 0 0 1 4.56 1.135h-.002a1.323 1.323 0 0 1 .714 1.244 2.126 2.126 0 0 1-1.34 1.82 7.423 7.423 0 0 1-3.61.764 9.556 9.556 0 0 1-3.756-.564 1.725 1.725 0 0 1-1.196-1.613 2.195 2.195 0 0 1 .985-1.729 8.838 8.838 0 0 1 2.291-1.287zm4.364-9.025a5.104 5.104 0 0 1-5.544 0 3.774 3.774 0 0 1 0-4.916 5.104 5.104 0 0 1 5.544 0 3.774 3.774 0 0 1 0 4.916zM244.18 60.285a17.724 17.724 0 0 1-.167-2.92v-7.58a4.849 4.849 0 0 0-1.808-4.007 7.167 7.167 0 0 0-4.612-1.431 13.935 13.935 0 0 0-4.797.734 6.42 6.42 0 0 0-1.516.74 1.079 1.079 0 0 0-.547.816 2.324 2.324 0 0 0 .443 1.08c.29.46.551.727.867.737l.121-.033c.124-.05.358-.166.716-.354a9.676 9.676 0 0 1 4.442-1.035 4.446 4.446 0 0 1 2.715.686 2.39 2.39 0 0 1 .883 2.032v1.47q-2.874.07-5.137.351a8.95 8.95 0 0 0-4.203 1.648 4.758 4.758 0 0 0-1.895 4.111 4.915 4.915 0 0 0 1.636 4.057 6.589 6.589 0 0 0 4.276 1.313 7.464 7.464 0 0 0 5.611-2.413c.01.058.022.115.034.193a3.447 3.447 0 0 0 .107.494c.032.095.07.235.116.414a2.675 2.675 0 0 0 .142.443 1.984 1.984 0 0 0 .199.343l-.001-.001a.814.814 0 0 0 .3.277 1.303 1.303 0 0 0 .546.081 3.993 3.993 0 0 0 1.034-.19 1.334 1.334 0 0 0 .532-.27.589.589 0 0 0 .201-.443c-.002-.057-.022-.16-.062-.386-.039-.22-.098-.54-.176-.957zm-3.26-2.573a11.54 11.54 0 0 1-2.386 1.673 6.128 6.128 0 0 1-2.803.595 2.87 2.87 0 0 1-2.07-.659 2.642 2.642 0 0 1-.68-1.99 2.41 2.41 0 0 1 1.319-2.36 11.445 11.445 0 0 1 1.34-.603h.002a18.615 18.615 0 0 1 5.278-.465zM126.582 61.382l-2.64-6.67v.002a15.491 15.491 0 0 0-1.418-2.936 3.395 3.395 0 0 0-1.594-1.318 5.802 5.802 0 0 0 3.865-5.785 5.296 5.296 0 0 0-2.1-4.654c-1.398-.981-3.459-1.461-6.18-1.461h-5.685a1.02 1.02 0 0 0-1.14 1.14v21.996a.728.728 0 0 0 .404.668 2.285 2.285 0 0 0 1.074.201h.272a2.291 2.291 0 0 0 1.075-.2.729.729 0 0 0 .403-.669v-9.62h2.92a5.94 5.94 0 0 1 3.115.673 5.021 5.021 0 0 1 1.812 2.563l2.57 6.632a.85.85 0 0 0 .51.477 2.654 2.654 0 0 0 .962.144h.338a3.292 3.292 0 0 0 1.109-.143.572.572 0 0 0 .436-.524 1.692 1.692 0 0 0-.108-.512zm-13.664-20h4.105a5.076 5.076 0 0 1 3.272.953 3.295 3.295 0 0 1 1.172 2.729 4 4 0 0 1-1.232 2.99 4.11 4.11 0 0 1-2.975 1.199h-4.342z"/><path class="a" d="M182.988 14.898a17.57 17.57 0 0 1 .167 2.92v11.878a.731.731 0 0 0 .404.668 2.294 2.294 0 0 0 1.076.201h.135a2.292 2.292 0 0 0 1.075-.2.727.727 0 0 0 .403-.669V17.355l.379-.474.002-.003.002-.002a4.495 4.495 0 0 1 1.118-1.002 2.58 2.58 0 0 1 1.437-.503 3.665 3.665 0 0 1 1.21.179 2.882 2.882 0 0 0 .702.193.45.45 0 0 0 .352-.206 1.741 1.741 0 0 0 .24-.507 4.013 4.013 0 0 0 .21-1.239 1.26 1.26 0 0 0-.56-1.048 2.544 2.544 0 0 0-1.529-.396c-1.409-.001-2.699.812-3.863 2.375l-.023-.123a3.36 3.36 0 0 0-.107-.458 6.953 6.953 0 0 1-.116-.4 3.073 3.073 0 0 0-.142-.424 1.538 1.538 0 0 0-.202-.33.904.904 0 0 0-.296-.256 1.325 1.325 0 0 0-.546-.08 3.995 3.995 0 0 0-1.034.19 1.328 1.328 0 0 0-.532.27.592.592 0 0 0-.201.443 3.566 3.566 0 0 0 .062.402c.04.222.098.535.177.942zM220.004 8.334a2.29 2.29 0 0 0 1.075.201h.406a2.292 2.292 0 0 0 1.075-.201.73.73 0 0 0 .404-.668V5.669A.73.73 0 0 0 222.56 5a2.279 2.279 0 0 0-1.075-.201h-.406a2.277 2.277 0 0 0-1.075.201.728.728 0 0 0-.403.668v1.997a.728.728 0 0 0 .403.668zM200.285 30.7a7.258 7.258 0 0 0 5.848-2.328c1.323-1.555 1.975-3.82 1.975-6.781s-.664-5.25-2.008-6.848a7.198 7.198 0 0 0-5.831-2.396 7.328 7.328 0 0 0-5.882 2.412c-1.38 1.61-2.062 3.892-2.06 6.832-.002 2.94.675 5.201 2.043 6.765a7.441 7.441 0 0 0 5.915 2.344zm-3.603-14.112a4.02 4.02 0 0 1 3.518-1.556 4.1 4.1 0 0 1 3.555 1.574 8.43 8.43 0 0 1 1.16 4.934 8.348 8.348 0 0 1-1.16 4.918 4.119 4.119 0 0 1-3.555 1.557 4.021 4.021 0 0 1-3.518-1.556 8.571 8.571 0 0 1-1.128-4.936 8.571 8.571 0 0 1 1.128-4.935zM222.426 12.683a2.285 2.285 0 0 0-1.076-.202h-.135a2.282 2.282 0 0 0-1.076.202.73.73 0 0 0-.404.668v16.345a.731.731 0 0 0 .404.668 2.293 2.293 0 0 0 1.076.201h.135a2.296 2.296 0 0 0 1.076-.2.73.73 0 0 0 .402-.669V13.351a.73.73 0 0 0-.402-.668zM138.528 30.7a7.256 7.256 0 0 0 5.847-2.328c1.324-1.555 1.977-3.82 1.977-6.781s-.665-5.25-2.01-6.848a7.196 7.196 0 0 0-5.83-2.396 7.33 7.33 0 0 0-5.883 2.412c-1.379 1.61-2.06 3.892-2.06 6.832s.675 5.201 2.044 6.765a7.44 7.44 0 0 0 5.915 2.344zm-3.604-14.112a4.022 4.022 0 0 1 3.52-1.556 4.1 4.1 0 0 1 3.554 1.574 8.428 8.428 0 0 1 1.16 4.934 8.346 8.346 0 0 1-1.16 4.918 4.119 4.119 0 0 1-3.555 1.557 4.024 4.024 0 0 1-3.52-1.556 8.58 8.58 0 0 1-1.126-4.936 8.58 8.58 0 0 1 1.127-4.935zM214.436 29.696v-14.46h2.82a.693.693 0 0 0 .61-.31 1.507 1.507 0 0 0 .192-.831v-.405a1.503 1.503 0 0 0-.192-.832.693.693 0 0 0-.61-.31h-2.82V9.73a2.929 2.929 0 0 1 .438-1.926 1.475 1.475 0 0 1 1.112-.453 5.845 5.845 0 0 1 1.109.082 3.942 3.942 0 0 0 .499.088.487.487 0 0 0 .376-.204 1.61 1.61 0 0 0 .25-.51 3.536 3.536 0 0 0 .21-1.002.953.953 0 0 0-.696-.877 5.23 5.23 0 0 0-1.901-.263 5.393 5.393 0 0 0-2.874.83h.002c-1.093.665-1.618 2.006-1.617 3.965v3.089h-1.229a.695.695 0 0 0-.611.31 1.487 1.487 0 0 0-.19.83v.406a1.49 1.49 0 0 0 .19.832.694.694 0 0 0 .611.308h1.229v14.461a.73.73 0 0 0 .402.668 2.296 2.296 0 0 0 1.076.201h.135a2.289 2.289 0 0 0 1.075-.2.73.73 0 0 0 .404-.669zM233.604 30.438a.955.955 0 0 0 .697-.878 3.537 3.537 0 0 0-.21-1.002 1.598 1.598 0 0 0-.25-.51.484.484 0 0 0-.376-.203 3.982 3.982 0 0 0-.5.088 4.806 4.806 0 0 1-.955.082 1.466 1.466 0 0 1-1.27-.575 3.061 3.061 0 0 1-.432-1.805v-10.4h2.716a.697.697 0 0 0 .613-.308 1.517 1.517 0 0 0 .19-.832v-.405a1.513 1.513 0 0 0-.19-.832.698.698 0 0 0-.613-.31h-2.716V9.122a.775.775 0 0 0-.306-.66 1.406 1.406 0 0 0-.836-.21h-.338a1.49 1.49 0 0 0-.849.209.845.845 0 0 0-.357.646l-.395 3.443h-1.58a.698.698 0 0 0-.612.31 1.512 1.512 0 0 0-.19.83v.406a1.516 1.516 0 0 0 .19.832.697.697 0 0 0 .612.308h1.568v10.67c-.001 1.756.45 3.015 1.385 3.737a4.946 4.946 0 0 0 3.104 1.058 5.25 5.25 0 0 0 1.9-.262zM148.676 14.898a17.701 17.701 0 0 1 .166 2.92v11.878a.729.729 0 0 0 .404.668 2.285 2.285 0 0 0 1.074.201h.137a2.29 2.29 0 0 0 1.074-.2.73.73 0 0 0 .404-.669v-12.34a5.165 5.165 0 0 1 4.138-2.29 3.41 3.41 0 0 1 2.468.829 3.074 3.074 0 0 1 .86 2.329v11.472a.73.73 0 0 0 .403.668 2.29 2.29 0 0 0 1.075.201h.136a2.294 2.294 0 0 0 1.075-.2.73.73 0 0 0 .402-.669V17.953a5.53 5.53 0 0 0-1.509-4.116 5.937 5.937 0 0 0-4.352-1.49 6.722 6.722 0 0 0-4.988 2.41l-.032-.158a3.524 3.524 0 0 0-.105-.458 6.289 6.289 0 0 1-.116-.4h-.001a3.1 3.1 0 0 0-.141-.424h-.002a1.574 1.574 0 0 0-.201-.33h.002-.002a.911.911 0 0 0-.295-.256h-.002a1.312 1.312 0 0 0-.545-.08 3.981 3.981 0 0 0-1.033.19 1.315 1.315 0 0 0-.532.27.585.585 0 0 0-.202.443 3.332 3.332 0 0 0 .062.402q.059.333.178.942zM165.494 14.898a17.698 17.698 0 0 1 .166 2.92v18.849a.73.73 0 0 0 .404.668 2.278 2.278 0 0 0 1.075.201h.135a2.283 2.283 0 0 0 1.076-.201.73.73 0 0 0 .402-.668V29.08a8.197 8.197 0 0 0 4.951 1.62 5.97 5.97 0 0 0 4.835-2.398 10.232 10.232 0 0 0 1.924-6.592v-.305a10.98 10.98 0 0 0-1.8-6.502 5.67 5.67 0 0 0-4.856-2.556 7.42 7.42 0 0 0-5.344 2.42l-.032-.168a3.498 3.498 0 0 0-.107-.458 8.014 8.014 0 0 1-.116-.4 3.074 3.074 0 0 0-.142-.424 1.579 1.579 0 0 0-.202-.33.905.905 0 0 0-.296-.256 1.317 1.317 0 0 0-.546-.08 3.995 3.995 0 0 0-1.034.19 1.328 1.328 0 0 0-.532.27.589.589 0 0 0-.201.443 3.837 3.837 0 0 0 .061.402c.04.222.1.535.18.942zm7.43 13.048h-.201a6.104 6.104 0 0 1-3.971-1.462v-9.156a5.869 5.869 0 0 1 4.225-2.262 3.476 3.476 0 0 1 3.193 1.717 9.36 9.36 0 0 1 1.063 4.859 8.204 8.204 0 0 1-1.11 4.7 3.723 3.723 0 0 1-3.2 1.604zM109.856 30.364a2.29 2.29 0 0 0 1.076.201h.236a2.296 2.296 0 0 0 1.076-.2.73.73 0 0 0 .404-.669V11.892l.68 1.287 11.17 16.855a1.425 1.425 0 0 0 1.29.531h.677a2.29 2.29 0 0 0 1.074-.2.73.73 0 0 0 .403-.669V7.361a.73.73 0 0 0-.403-.668 2.302 2.302 0 0 0-1.074-.202h-.237a2.304 2.304 0 0 0-1.077.202.73.73 0 0 0-.403.668v17.607l-.781-1.461-10.801-16.318-.002-.003a1.781 1.781 0 0 0-1.521-.695h-.711a2.3 2.3 0 0 0-1.076.202.728.728 0 0 0-.403.668v22.335a.73.73 0 0 0 .403.668z"/><path class="c" d="M10.22.284s-9.94 0-9.94 9.94v74.424s0 9.94 9.94 9.94h73.12s9.94 0 9.94-9.94V10.224s0-9.94-9.94-9.94H10.22"/><path class="d" d="M25.672 15.654c22.69 13.831 52.18 31.79 52.997 32.2l.06.033c7.866 3.862 12.33 10.596 14.832 16.409V10s0-10-10-10H48.623C29.655 0 26.085 13.694 25.672 15.654z"/><path class="e" d="M0 10v74.872s0 .06.005.161c15.521 2.821 25.619-5.106 25.619-5.106V15.895s.016-.09.048-.24C26.085 13.694 29.655 0 48.623 0H10S0 0 0 10z"/><path class="f" d="M10 0S0 0 0 10v74.872s0 10 10 10h73.56s10 0 10-10V10s0-10-10-10H10"/><path class="g" d="M.005 85.033c.05 1.267.734 9.84 9.995 9.84h73.56s10 0 10-10v-21.2a31.271 31.271 0 0 0-14.83-15.786l-.06-.031c-1.503-.735-53.046 31.07-53.046 31.07a31.938 31.938 0 0 1-25.62 6.107z"/></svg>