<svg id="Layer_1" data-name="Layer 1" xmlns="http://www.w3.org/2000/svg" xmlns:xlink="http://www.w3.org/1999/xlink" viewBox="0 0 350.14357 127.13712"><defs><style>.cls-1,.cls-2,.cls-3,.cls-4,.cls-5,.cls-6,.cls-7,.cls-8,.cls-9{fill:none}.cls-2{clip-path:url(#clip-path)}.cls-3{clip-path:url(#clip-path-2)}.cls-4{clip-path:url(#clip-path-3)}.cls-5{clip-path:url(#clip-path-4)}.cls-6{clip-path:url(#clip-path-5)}.cls-7{clip-path:url(#clip-path-6)}.cls-8{clip-path:url(#clip-path-7)}.cls-9{clip-path:url(#clip-path-9)}.cls-10{fill:#fff}.cls-11{clip-path:url(#clip-path-11)}.cls-12{fill:#231f20}.cls-13{isolation:isolate}.cls-14{clip-path:url(#clip-path-19)}.cls-15{fill:url(#linear-gradient)}.cls-16{fill:url(#linear-gradient-2)}.cls-17{fill:url(#linear-gradient-3)}</style><clipPath id="clip-path"><path class="cls-1" d="M6.543 86.137a32.572 32.572 0 0 0 14.5-3.4 32.222 32.222 0 0 1-14.5 3.4m17.3-5a8.916 8.916 0 0 0 2.3-1.7 24.263 24.263 0 0 1-2.3 1.7"/></clipPath><clipPath id="clip-path-2"><path class="cls-2" d="M.543.537h-.2l.1 94.9v-9.9a32.048 32.048 0 0 0 25.8-6.1v-63.2c.4-2 4-15.7 23-15.7H.543"/></clipPath><clipPath id="clip-path-3"><path class="cls-1" d="M63.044 38.637l-2.8-1.7c-10.2-6.2-22.9-13.9-34-20.7.4-2 4-15.7 23-15.7h34.9a9.721 9.721 0 0 1 3.1.4l-24.2 37.7"/></clipPath><clipPath id="clip-path-4"><path class="cls-4" d="M.543.537h48.6c-19 0-22.5 13.7-23 15.7 22.7 13.8 52.2 31.8 53 32.2h.1c13.5 6.6 17 21.6 17.7 26.1l.2-73.9H.544"/></clipPath><clipPath id="clip-path-5"><path class="cls-1" d="M85.344 95.037l-46.3-23.2 39.9-23.4h.4c7.9 3.9 12.3 10.6 14.8 16.4v20.6c0 4.9-2.4 7.4-4.9 8.7a13.701 13.701 0 0 1-3.9.9"/></clipPath><clipPath id="clip-path-6"><path class="cls-6" d="M96.944 74.437a7.209 7.209 0 0 0-.2-1.4c-.7-4.4-4-18-17.5-24.6h-.1c-1.5-.7-53 31.1-53 31.1a32.048 32.048 0 0 1-25.8 6.1v10.9h96.8l-.2-22.1"/></clipPath><clipPath id="clip-path-7"><path class="cls-1" d="M94.144 64.837c-2.5-5.8-7-12.5-14.8-16.4a30.886 30.886 0 0 1 14.8 15.8v.6"/></clipPath><clipPath id="clip-path-9"><path class="cls-1" d="M6.543 86.137a32.097 32.097 0 0 1-6-.6V41.737l25.6-7.1v44.7a24.263 24.263 0 0 1-2.3 1.7c-.8.5-1.8 1.1-2.8 1.6a30.867 30.867 0 0 1-14.5 3.5"/></clipPath><clipPath id="clip-path-11"><path class="cls-1" d="M10.543.537s-10 0-10 10v74.9s0 10 10 10h73.6s10 0 10-10v-74.9s0-10-10-10h-73.6m68.5 47.8l-52.9 31 .1-63.1 52.8 32.1"/></clipPath><clipPath id="clip-path-19"><path class="cls-1" d="M10.543.537s-10 0-10 10v74.9s0 10 10 10h73.6s10 0 10-10v-74.9s0-10-10-10h-73.6"/></clipPath><linearGradient id="linear-gradient" x1="57.017" y1="112.706" x2="-.733" y2="146.206" gradientTransform="matrix(1 0 0 -1 0 127.074)" gradientUnits="userSpaceOnUse"><stop offset="0" stop-color="#fff"/><stop offset="1"/></linearGradient><linearGradient id="linear-gradient-2" x1="24.794" y1="66.87" x2="24.794" y2="-30.532" xlink:href="#linear-gradient"/><linearGradient id="linear-gradient-3" x1="71.545" y1="52.289" x2="125.045" y2="90.539" xlink:href="#linear-gradient"/></defs><title>nrmc_logo_white</title><path class="cls-10" d="M10.543.537s-10 0-10 10v74.9s0 10 10 10h73.6s10 0 10-10v-74.9s0-10-10-10h-73.6m68.5 47.8l-52.9 31 .1-63.1 52.8 32.1"/><path class="cls-11 cls-12" d="M.543.537h-.2l.1 94.9v-9.9a32.048 32.048 0 0 0 25.8-6.1v-63.2c.4-2 4-15.7 23-15.7H.543"/><path class="cls-11 cls-12" d="M.543.537h48.6c-19 0-22.5 13.7-23 15.7 22.7 13.8 52.2 31.8 53 32.2h.1c13.5 6.6 17 21.6 17.7 26.1l.2-73.9H.544"/><path class="cls-11 cls-12" d="M96.944 74.437a7.209 7.209 0 0 0-.2-1.4c-.7-4.4-4-18-17.5-24.6h-.1c-1.5-.7-53 31.1-53 31.1a32.048 32.048 0 0 1-25.8 6.1v10.9h96.8l-.2-22.1"/><path class="cls-10" d="M203.444 122.937c.6 0 .9-.1.9-.4v-7.3a3.252 3.252 0 0 1 2.5-1.4 2.07 2.07 0 0 1 1.5.5 1.624 1.624 0 0 1 .5 1.4v6.8c0 .3.3.4.8.4h.1c.5 0 .8-.1.8-.4v-7a3.244 3.244 0 0 0-.9-2.4 3.327 3.327 0 0 0-2.5-.9 3.983 3.983 0 0 0-3 1.5v-.2a.367.367 0 0 0-.1-.3c0-.1 0-.1-.1-.2a.35.35 0 0 0-.1-.2l-.1-.2-.1-.1h-.3a1.76 1.76 0 0 0-.6.1c-.3.1-.4.2-.4.4a4.53 4.53 0 0 0 .1.8 7.156 7.156 0 0 1 .1 1.7v7a.963.963 0 0 0 .9.4zm17.2-1.3a5.796 5.796 0 0 0 1.2-4 5.972 5.972 0 0 0-1.2-4 4.829 4.829 0 0 0-6.8 0 5.972 5.972 0 0 0-1.2 4 5.689 5.689 0 0 0 1.2 3.9 4.293 4.293 0 0 0 3.4 1.4 4.237 4.237 0 0 0 3.4-1.3zm-6.3-4a5.129 5.129 0 0 1 .7-3 2.658 2.658 0 0 1 2.1-1 2.459 2.459 0 0 1 2.2 1 4.738 4.738 0 0 1 .7 3 5.129 5.129 0 0 1-.7 3 2.656 2.656 0 0 1-2.2.9 2.336 2.336 0 0 1-2.1-.9 5.129 5.129 0 0 1-.7-3zm10.4 5.3c.6 0 .9-.1.9-.4v-7.3a3.252 3.252 0 0 1 2.5-1.4 2.07 2.07 0 0 1 1.5.5 1.624 1.624 0 0 1 .5 1.4v6.8c0 .3.3.4.8.4h.1c.5 0 .8-.1.8-.4v-7a3.244 3.244 0 0 0-.9-2.4 3.327 3.327 0 0 0-2.5-.9 3.983 3.983 0 0 0-3 1.5v-.2a.367.367 0 0 0-.1-.3c0-.1 0-.1-.1-.2a.35.35 0 0 0-.1-.2l-.1-.2v-.1h-.3a1.76 1.76 0 0 0-.6.1c-.3.1-.4.2-.4.4a4.53 4.53 0 0 0 .1.8 7.156 7.156 0 0 1 .1 1.7v7c0 .2.3.4.8.4zm11.5-1a4.719 4.719 0 0 0 3 1 3.504 3.504 0 0 0 2.8-1.4 6.244 6.244 0 0 0 1.1-3.9v-.1a6.53 6.53 0 0 0-1-3.8 3.219 3.219 0 0 0-2.8-1.5 4.38 4.38 0 0 0-3.2 1.5v-.2a.367.367 0 0 0-.1-.3c0-.1 0-.1-.1-.2a.35.35 0 0 0-.1-.2l-.1-.2-.2-.1h-.3a1.76 1.76 0 0 0-.6.1c-.3.1-.4.2-.4.4a4.53 4.53 0 0 0 .1.8 7.156 7.156 0 0 1 .1 1.7v11c0 .3.3.4.8.4h.1c.5 0 .8-.1.8-.4v-4.6zm0-1.3v-5.5a3.595 3.595 0 0 1 2.6-1.4 2.305 2.305 0 0 1 2 1.1 5.96 5.96 0 0 1 .6 2.9 4.462 4.462 0 0 1-.7 2.8 2.328 2.328 0 0 1-2 1h-.1a3.583 3.583 0 0 1-2.4-.9zm10 2.3c.6 0 .9-.1.9-.4v-7.3l.2-.3a2.169 2.169 0 0 1 .7-.6 1.613 1.613 0 0 1 .9-.3 1.483 1.483 0 0 1 .7.1.756.756 0 0 0 .4.1c.1 0 .2-.1.3-.4a1.702 1.702 0 0 0 .1-.7.864.864 0 0 0-.3-.6 1.997 1.997 0 0 0-.9-.2 2.944 2.944 0 0 0-2.3 1.5v-.2a.367.367 0 0 0-.1-.3c0-.1 0-.1-.1-.2a.35.35 0 0 0-.1-.2l-.1-.2-.2-.1h-.3a1.76 1.76 0 0 0-.6.1c-.3.1-.4.2-.4.4a4.53 4.53 0 0 0 .1.8 7.156 7.156 0 0 1 .1 1.7v7a1.963 1.963 0 0 0 1 .3zm13.3-1.3a5.795 5.795 0 0 0 1.1-4 5.972 5.972 0 0 0-1.2-4 4.829 4.829 0 0 0-6.8 0 5.972 5.972 0 0 0-1.2 4 5.689 5.689 0 0 0 1.2 3.9 4.293 4.293 0 0 0 3.4 1.4 4.459 4.459 0 0 0 3.5-1.3zm-6.3-4a5.129 5.129 0 0 1 .7-3 2.658 2.658 0 0 1 2.1-1 2.459 2.459 0 0 1 2.2 1 4.738 4.738 0 0 1 .7 3 5.129 5.129 0 0 1-.7 3 2.656 2.656 0 0 1-2.2.9 2.336 2.336 0 0 1-2.1-.9 5.129 5.129 0 0 1-.7-3zm10.9 5.3c.6 0 .9-.1.9-.4v-8.6h1.7c.3 0 .4-.2.4-.6v-.2c0-.4-.1-.6-.4-.6h-1.7v-1.7a1.737 1.737 0 0 1 .3-1.2.908.908 0 0 1 .7-.3h.7a.438.438 0 0 1 .3.1c.1 0 .2-.1.3-.4a1.268 1.268 0 0 0 .1-.6q0-.6-1.5-.6a3.686 3.686 0 0 0-1.7.5 2.498 2.498 0 0 0-.9 2.3v1.9h-.8c-.3 0-.4.2-.4.6v.2c0 .4.1.6.4.6h.8v8.6c0 .2.2.4.8.4zm5.8-13.1c.5 0 .8-.1.8-.4v-1.2c0-.3-.3-.4-.8-.4h-.2c-.5 0-.8.1-.8.4v1.2c0 .3.3.4.8.4zm-.2 13.1c.6 0 .9-.1.9-.4v-9.7c0-.3-.3-.4-.8-.4h-.1c-.5 0-.8.1-.8.4v9.7c0 .2.3.4.8.4zm5-.6a2.792 2.792 0 0 0 1.8.6q1.5 0 1.5-.6a1.76 1.76 0 0 0-.1-.6c-.1-.2-.2-.4-.3-.4h-.3c-.2 0-.4.1-.6.1-.7 0-1.1-.5-1.1-1.5v-6.2h1.7c.3 0 .4-.2.4-.6v-.2c0-.4-.1-.6-.4-.6h-1.7v-2.1c0-.3-.2-.4-.6-.4h-.2c-.4 0-.6.1-.6.4l-.2 2.1h-1c-.3 0-.4.2-.4.6v.2c0 .4.1.6.4.6h1v6.4a2.364 2.364 0 0 0 .7 2.2zm5.9.6c.6 0 .9-.1.9-.4v-7.3l.2-.3a2.169 2.169 0 0 1 .7-.6 1.613 1.613 0 0 1 .9-.3 1.483 1.483 0 0 1 .7.1.756.756 0 0 0 .4.1c.1 0 .2-.1.3-.4a1.702 1.702 0 0 0 .1-.7.864.864 0 0 0-.3-.6 1.997 1.997 0 0 0-.9-.2 2.944 2.944 0 0 0-2.3 1.5v-.2a.367.367 0 0 0-.1-.3c0-.1 0-.1-.1-.2a.35.35 0 0 0-.1-.2l-.1-.2-.1-.1h-.3a1.76 1.76 0 0 0-.6.1c-.3.1-.4.2-.4.4a4.53 4.53 0 0 0 .1.8 7.156 7.156 0 0 1 .1 1.7v7a1.3 1.3 0 0 0 .9.3zm6.9-13.1c.5 0 .8-.1.8-.4v-1.2c0-.3-.3-.4-.8-.4h-.2c-.5 0-.8.1-.8.4v1.2c0 .3.3.4.8.4zm-.1 13.1c.6 0 .9-.1.9-.4v-9.7c0-.3-.3-.4-.8-.4h-.1c-.5 0-.8.1-.8.4v9.7c0 .2.2.4.8.4zm3.7-.4a6.051 6.051 0 0 0 2.4.4 3.583 3.583 0 0 0 2.4-.9 2.896 2.896 0 0 0 1-2.3 2.817 2.817 0 0 0-.7-2.1 5.692 5.692 0 0 0-2.5-1.3 3.256 3.256 0 0 1-1.2-.6 1.268 1.268 0 0 1-.4-.9 1.05 1.05 0 0 1 .5-.9 2.502 2.502 0 0 1 1.3-.3 2.41 2.41 0 0 1 1.5.4c.2.1.2.1.3.1s.3-.1.4-.4a1.078 1.078 0 0 0 .2-.7c0-.2-.3-.4-.8-.6a4.844 4.844 0 0 0-1.8-.3 3.649 3.649 0 0 0-2.4.8 2.518 2.518 0 0 0-.9 2 2.445 2.445 0 0 0 .6 1.8 4.753 4.753 0 0 0 1.9 1 5.126 5.126 0 0 1 1.8.8 1.69 1.69 0 0 1 0 2.4 1.844 1.844 0 0 1-1.3.4 4.438 4.438 0 0 1-1.3-.2 3.919 3.919 0 0 1-.9-.4 1.237 1.237 0 0 1-.3-.2c-.1 0-.3.1-.5.4a.987.987 0 0 0-.2.6c-.1.5.3.8.9 1zm8.7.4c.6 0 .9-.1.9-.4v-4.6h.1l4 4.7c.1.2.5.3 1.1.3h.1q.9 0 .9-.3c0-.1-.1-.2-.2-.3l-4.1-4.9 3.7-4.4a.758.758 0 0 0 .2-.4c0-.2-.2-.3-.7-.3h-.1a1.445 1.445 0 0 0-1.1.3l-3.8 4.6h-.1v-8.9c0-.3-.3-.4-.8-.4h-.1c-.5 0-.8.1-.8.4v14.2c0 .2.2.4.8.4zm8.9 0h.3c.5 0 .8-.1.8-.4v-1.3c0-.3-.3-.4-.8-.4h-.3c-.5 0-.8.1-.8.4v1.3c0 .2.3.4.8.4zm10.7-1.3a5.796 5.796 0 0 0 1.2-4 5.972 5.972 0 0 0-1.2-4 4.829 4.829 0 0 0-6.8 0 5.972 5.972 0 0 0-1.2 4 5.689 5.689 0 0 0 1.2 3.9 4.293 4.293 0 0 0 3.4 1.4 4.237 4.237 0 0 0 3.4-1.3zm-6.3-4a5.129 5.129 0 0 1 .7-3 2.658 2.658 0 0 1 2.1-1 2.459 2.459 0 0 1 2.2 1 4.738 4.738 0 0 1 .7 3 5.129 5.129 0 0 1-.7 3 2.656 2.656 0 0 1-2.2.9 2.336 2.336 0 0 1-2.1-.9 6.03 6.03 0 0 1-.7-3zm10.6 5.3c.6 0 .9-.1.9-.4v-7.3l.2-.3a2.169 2.169 0 0 1 .7-.6 1.613 1.613 0 0 1 .9-.3 1.483 1.483 0 0 1 .7.1.756.756 0 0 0 .4.1c.1 0 .2-.1.3-.4a1.702 1.702 0 0 0 .1-.7.864.864 0 0 0-.3-.6 1.997 1.997 0 0 0-.9-.2 2.944 2.944 0 0 0-2.3 1.5v-.2a.367.367 0 0 0-.1-.3c0-.1 0-.1-.1-.2a.35.35 0 0 0-.1-.2l-.1-.2-.2-.1h-.3a1.76 1.76 0 0 0-.6.1c-.3.1-.4.2-.4.4a4.53 4.53 0 0 0 .1.8 7.156 7.156 0 0 1 .1 1.7v7a1.657 1.657 0 0 0 1 .3zm5.9 3.6a7.667 7.667 0 0 0 3.4.6 6.398 6.398 0 0 0 3.6-.9 2.514 2.514 0 0 0 1.3-2.2 2.41 2.41 0 0 0-.7-1.8 3.505 3.505 0 0 0-1.7-.9 13.803 13.803 0 0 0-2-.3c-.7-.1-1.2-.2-1.7-.3s-.7-.3-.7-.6c0-.5.6-.8 1.7-.8h.2a4.04 4.04 0 0 0 3-1 3.408 3.408 0 0 0 1.1-2.5 2.64 2.64 0 0 0-.7-1.9h1.4c.3 0 .4-.2.4-.6v-.2c0-.4-.1-.6-.4-.6h-3.4a5.282 5.282 0 0 0-1.3-.1 4.195 4.195 0 0 0-3 1 3.317 3.317 0 0 0-1 2.5 3.323 3.323 0 0 0 1.8 3 1.777 1.777 0 0 0-1.5 1.7c0 .8.4 1.3 1.3 1.7-1.5.5-2.3 1.3-2.3 2.4a2.22 2.22 0 0 0 1.2 1.8zm3.5-12.8c1.5 0 2.2.7 2.2 2s-.8 2-2.2 2-2.2-.7-2.2-2 .7-2 2.2-2zm-2.3 9.5a6.375 6.375 0 0 1 1.4-.8c.2 0 .5.1.8.1a8.422 8.422 0 0 1 2.7.7.89.89 0 0 1 .5.8c0 .5-.3.8-.8 1.1a4.767 4.767 0 0 1-2.2.5c-2 0-3-.5-3-1.4a1.365 1.365 0 0 1 .6-1zM193.543 126.237h.2c.4 0 .6-.2.6-.5v-20.8c0-.4-.2-.5-.6-.5h-.2c-.4 0-.6.2-.6.5v20.8c0 .3.2.5.6.5zM15.743 122.937h.2c.5 0 .8-.1.8-.4v-6h4.8c.3 0 .4-.2.4-.6v-.4c0-.4-.1-.6-.4-.6h-4.8v-4.6h5.1c.3 0 .4-.2.4-.6v-.3c0-.4-.1-.6-.4-.6h-6.3a.53.53 0 0 0-.6.6v13c0 .3.3.5.8.5zm9.5-13.1c.5 0 .8-.1.8-.4v-1.2c0-.3-.3-.4-.8-.4h-.2c-.5 0-.8.1-.8.4v1.2c0 .3.3.4.8.4zm-.1 13.1c.6 0 .9-.1.9-.4v-9.7c0-.3-.3-.4-.8-.4h-.1c-.5 0-.8.1-.8.4v9.7c0 .2.2.4.8.4zm4.6 0c.6 0 .9-.1.9-.4v-7.3a3.252 3.252 0 0 1 2.5-1.4 2.07 2.07 0 0 1 1.5.5 1.624 1.624 0 0 1 .5 1.4v6.8c0 .3.3.4.8.4h.1c.5 0 .8-.1.8-.4v-7a3.244 3.244 0 0 0-.9-2.4 3.327 3.327 0 0 0-2.5-.9 3.983 3.983 0 0 0-3 1.5.31.31 0 0 0-.1-.2.367.367 0 0 0-.1-.3c0-.1 0-.1-.1-.2a.35.35 0 0 0-.1-.2l-.1-.2-.1-.1h-.3a1.76 1.76 0 0 0-.6.1c-.3.1-.4.2-.4.4a4.53 4.53 0 0 0 .1.8 7.156 7.156 0 0 1 .1 1.7v7a1.175 1.175 0 0 0 1 .4zm16.1-1.2a.367.367 0 0 0 .1.3c0 .1 0 .1.1.2a.35.35 0 0 0 .1.2l.1.2.1.1h.3a1.76 1.76 0 0 0 .6-.1c.3-.1.4-.2.4-.3a4.53 4.53 0 0 0-.1-.8 7.628 7.628 0 0 1-.1-1.7v-11.6c0-.3-.3-.4-.8-.4h-.1c-.5 0-.8.1-.8.4v5a4.719 4.719 0 0 0-3-1 3.504 3.504 0 0 0-2.8 1.4 6.133 6.133 0 0 0-1.1 3.8v.2a6.53 6.53 0 0 0 1 3.8 3.219 3.219 0 0 0 2.8 1.5 4.38 4.38 0 0 0 3.2-1.5v.3zm-4.7-7a2.328 2.328 0 0 1 2-1h.1a3.583 3.583 0 0 1 2.4.9v5.5a3.595 3.595 0 0 1-2.6 1.4c-1.7 0-2.6-1.3-2.6-4a6.333 6.333 0 0 1 .7-2.8zm14.4 7.6a2.792 2.792 0 0 0 1.8.6q1.5 0 1.5-.6a1.76 1.76 0 0 0-.1-.6c-.1-.2-.2-.4-.3-.4h-.3c-.2 0-.4.1-.6.1-.7 0-1.1-.5-1.1-1.5v-6.2h1.7c.3 0 .4-.2.4-.6v-.2c0-.4-.1-.6-.4-.6h-1.7v-2.1c0-.3-.2-.4-.6-.4h-.2c-.4 0-.6.1-.6.4l-.2 2.1h-1c-.3 0-.4.2-.4.6v.2c0 .4.1.6.4.6h1v6.4a2.364 2.364 0 0 0 .7 2.2zm6 .6c.6 0 .9-.1.9-.4v-7.3l.3-.4a3.515 3.515 0 0 1 .9-.7 3.313 3.313 0 0 1 1.5-.4 1.728 1.728 0 0 1 1.3.5 1.978 1.978 0 0 1 .5 1.4v6.8c0 .3.3.4.8.4h.1c.5 0 .8-.1.8-.4v-6.9a3.808 3.808 0 0 0-.3-1.6 2.089 2.089 0 0 0-.8-1 3.697 3.697 0 0 0-2.1-.6 4.623 4.623 0 0 0-3.1 1.4v-5.4c0-.3-.3-.4-.8-.4h-.1c-.5 0-.8.1-.8.4v14.2c.1.2.3.4.9.4zm14 0a6.567 6.567 0 0 0 2.5-.4c.7-.3 1.1-.6 1.1-.8a3.934 3.934 0 0 0-.2-.6c-.2-.3-.3-.4-.4-.4l-.4.2a5.422 5.422 0 0 1-2.5.6 2.947 2.947 0 0 1-2.2-.8 3.798 3.798 0 0 1-.9-2.4h6.3a.536.536 0 0 0 .4-.3.646.646 0 0 0 .2-.5c0-3.5-1.4-5.2-4.2-5.2a4.293 4.293 0 0 0-3.4 1.4 6.082 6.082 0 0 0-1.2 4.1 5.796 5.796 0 0 0 1.2 4 5.63 5.63 0 0 0 3.7 1.1zm-3.1-6.1c.1-2.1 1.1-3.2 2.8-3.2 1.6 0 2.4 1.1 2.4 3.2zm16-.3a4.286 4.286 0 0 0-2.4 1 2.775 2.775 0 0 0-1.1 2.4 2.736 2.736 0 0 0 .9 2.3 3.937 3.937 0 0 0 2.5.8 4.478 4.478 0 0 0 3.4-1.5v.2a.367.367 0 0 0 .1.3c0 .1 0 .1.1.2a.35.35 0 0 0 .1.2l.1.2.1.1h.3a1.76 1.76 0 0 0 .6-.1c.3-.1.4-.2.4-.3a4.53 4.53 0 0 0-.1-.8 7.628 7.628 0 0 1-.1-1.7v-4.5a2.644 2.644 0 0 0-1-2.3 3.955 3.955 0 0 0-2.7-.8 7.885 7.885 0 0 0-2.8.4c-.8.3-1.2.6-1.2.8a3.934 3.934 0 0 0 .2.6c.2.3.3.4.4.4a4.204 4.204 0 0 1 .5-.2 5.954 5.954 0 0 1 2.7-.6c1.5 0 2.2.6 2.2 1.7v.9c-1.2.1-2.3.2-3.2.3zm-.9 1.9c.3-.1.5-.3.8-.4a10.753 10.753 0 0 1 3.2-.3v2.4a6.528 6.528 0 0 1-1.5 1 4.255 4.255 0 0 1-1.7.4c-1.1 0-1.7-.5-1.7-1.6a1.956 1.956 0 0 1 .9-1.5zm9.2 4.5c.6 0 .9-.1.9-.4v-7.3a3.252 3.252 0 0 1 2.5-1.4 2.07 2.07 0 0 1 1.5.5 1.624 1.624 0 0 1 .5 1.4v6.8c0 .3.3.4.8.4h.1c.5 0 .8-.1.8-.4v-7a3.244 3.244 0 0 0-.9-2.4 3.327 3.327 0 0 0-2.5-.9 3.983 3.983 0 0 0-3 1.5.31.31 0 0 0-.1-.2.367.367 0 0 0-.1-.3c0-.1 0-.1-.1-.2a.35.35 0 0 0-.1-.2l-.1-.2-.1-.1h-.3a1.76 1.76 0 0 0-.6.1c-.3.1-.4.2-.4.4a4.53 4.53 0 0 0 .1.8 7.156 7.156 0 0 1 .1 1.7v7a1.333 1.333 0 0 0 1 .4zm9.7-.4a6.051 6.051 0 0 0 2.4.4 3.583 3.583 0 0 0 2.4-.9 2.896 2.896 0 0 0 1-2.3 2.817 2.817 0 0 0-.7-2.1 5.692 5.692 0 0 0-2.5-1.3 3.256 3.256 0 0 1-1.2-.6 1.268 1.268 0 0 1-.4-.9 1.05 1.05 0 0 1 .5-.9 2.502 2.502 0 0 1 1.3-.3 2.604 2.604 0 0 1 1.5.4c.2.1.2.1.3.1s.3-.1.4-.4a1.078 1.078 0 0 0 .2-.7c0-.2-.3-.4-.8-.6a4.844 4.844 0 0 0-1.8-.3 3.649 3.649 0 0 0-2.4.8 2.518 2.518 0 0 0-.9 2 2.445 2.445 0 0 0 .6 1.8 4.753 4.753 0 0 0 1.9 1 5.126 5.126 0 0 1 1.8.8 1.69 1.69 0 0 1 0 2.4 1.844 1.844 0 0 1-1.3.4 5.901 5.901 0 0 1-1.4-.2 3.92 3.92 0 0 1-.9-.4 1.238 1.238 0 0 1-.3-.2c-.1 0-.3.1-.5.4a.988.988 0 0 0-.2.6c0 .5.4.8 1 1zm6.7-9.6l2.7 9.6c.1.2.3.3.8.3h.7c.5 0 .7-.1.8-.3l1.9-7.3 1.8 7.3c.1.2.3.3.8.3h.7c.5 0 .7-.1.8-.3l2.7-9.6c0-.1.1-.2.1-.3 0-.2-.3-.3-.8-.3s-.8.1-.9.3l-2.1 8-2.1-8c-.1-.2-.3-.3-.8-.3h-.2c-.5 0-.7.1-.8.3l-2.1 8-2.1-8c-.1-.2-.3-.3-.8-.3h-.2q-.9 0-.9.3a.187.187 0 0 0 0 .3zm19.6 10a6.567 6.567 0 0 0 2.5-.4c.7-.3 1.1-.6 1.1-.8a3.933 3.933 0 0 0-.2-.6c-.2-.3-.3-.4-.4-.4l-.4.2a5.421 5.421 0 0 1-2.5.6 2.947 2.947 0 0 1-2.2-.8 3.798 3.798 0 0 1-.9-2.4h6.3a.536.536 0 0 0 .4-.3.646.646 0 0 0 .2-.5c0-3.5-1.4-5.2-4.2-5.2a4.293 4.293 0 0 0-3.4 1.4 6.082 6.082 0 0 0-1.2 4.1 5.796 5.796 0 0 0 1.2 4 5.63 5.63 0 0 0 3.7 1.1zm-3.1-6.1c.1-2.1 1.1-3.2 2.8-3.2 1.6 0 2.4 1.1 2.4 3.2zm9.9 6.1c.6 0 .9-.1.9-.4v-7.3l.2-.3a2.169 2.169 0 0 1 .7-.6 1.613 1.613 0 0 1 .9-.3 1.483 1.483 0 0 1 .7.1.756.756 0 0 0 .4.1c.1 0 .2-.1.3-.4a1.702 1.702 0 0 0 .1-.7.864.864 0 0 0-.3-.6 1.997 1.997 0 0 0-.9-.2 2.944 2.944 0 0 0-2.3 1.5v-.2a.367.367 0 0 0-.1-.3c0-.1 0-.1-.1-.2a.35.35 0 0 0-.1-.2l-.1-.2-.2-.1h-.3a1.76 1.76 0 0 0-.6.1c-.3.1-.4.2-.4.4a4.53 4.53 0 0 0 .1.8 7.156 7.156 0 0 1 .1 1.7v7a1.964 1.964 0 0 0 1 .3zm11 0c.6 0 .9-.1.9-.4v-7.3l.3-.4a3.515 3.515 0 0 1 .9-.7 3.313 3.313 0 0 1 1.5-.4 2.168 2.168 0 0 1 1.4.5 1.978 1.978 0 0 1 .5 1.4v6.8c0 .3.3.4.8.4h.1c.5 0 .8-.1.8-.4v-6.9a3.808 3.808 0 0 0-.3-1.6 2.09 2.09 0 0 0-.8-1 3.697 3.697 0 0 0-2.1-.6 4.623 4.623 0 0 0-3.1 1.4v-5.4c0-.3-.3-.4-.8-.4h-.1c-.5 0-.8.1-.8.4v14.2c0 .2.2.4.8.4zm14 0a6.567 6.567 0 0 0 2.5-.4c.7-.3 1.1-.6 1.1-.8a3.933 3.933 0 0 0-.2-.6c-.2-.3-.3-.4-.5-.4l-.4.2a5.421 5.421 0 0 1-2.5.6 2.947 2.947 0 0 1-2.2-.8 3.798 3.798 0 0 1-.9-2.4h6.3a.536.536 0 0 0 .4-.3.646.646 0 0 0 .2-.5c0-3.5-1.4-5.2-4.2-5.2a4.293 4.293 0 0 0-3.4 1.4 6.082 6.082 0 0 0-1.2 4.1 5.796 5.796 0 0 0 1.2 4 6.133 6.133 0 0 0 3.8 1.1zm-3.1-6.1c.1-2.1 1.1-3.2 2.8-3.2 1.6 0 2.4 1.1 2.4 3.2zm9.9 6.1c.6 0 .9-.1.9-.4v-7.3l.2-.3a2.169 2.169 0 0 1 .7-.6 1.613 1.613 0 0 1 .9-.3 1.483 1.483 0 0 1 .7.1.756.756 0 0 0 .4.1c.1 0 .2-.1.3-.4a1.702 1.702 0 0 0 .1-.7.864.864 0 0 0-.3-.6 1.997 1.997 0 0 0-.9-.2 2.944 2.944 0 0 0-2.3 1.5.31.31 0 0 0-.1-.2.367.367 0 0 0-.1-.3c0-.1 0-.1-.1-.2a.35.35 0 0 0-.1-.2l-.1-.2-.1-.1h-.3a1.76 1.76 0 0 0-.6.1c-.3.1-.4.2-.4.4a4.53 4.53 0 0 0 .1.8 7.156 7.156 0 0 1 .1 1.7v7a1.964 1.964 0 0 0 1 .3zm10.1 0a6.567 6.567 0 0 0 2.5-.4c.7-.3 1.1-.6 1.1-.8a3.933 3.933 0 0 0-.2-.6c-.2-.3-.3-.4-.4-.4l-.4.2a5.421 5.421 0 0 1-2.5.6 2.947 2.947 0 0 1-2.2-.8 3.798 3.798 0 0 1-.9-2.4h6.3a.536.536 0 0 0 .4-.3.646.646 0 0 0 .2-.5c0-3.5-1.4-5.2-4.2-5.2a4.293 4.293 0 0 0-3.4 1.4 6.082 6.082 0 0 0-1.2 4.1 5.796 5.796 0 0 0 1.2 4 5.63 5.63 0 0 0 3.7 1.1zm-3.1-6.1c.1-2.1 1.1-3.2 2.8-3.2 1.6 0 2.4 1.1 2.4 3.2z"/><path class="cls-14 cls-15" d="M.543.537h48.6c-19 0-22.5 13.7-23 15.7 22.7 13.8 52.2 31.8 53 32.2h.1c13.5 6.6 17 21.6 17.7 26.1l.2-73.9H.544"/><path class="cls-14 cls-16" d="M.543.537h-.2l.1 94.9v-9.9a32.048 32.048 0 0 0 25.8-6.1v-63.2c.4-2 4-15.7 23-15.7H.543"/><path class="cls-14 cls-17" d="M96.944 74.437a7.209 7.209 0 0 0-.2-1.4c-.7-4.4-4-18-17.5-24.6h-.1c-1.5-.7-53 31.1-53 31.1a32.048 32.048 0 0 1-25.8 6.1v10.9h96.8l-.2-22.1"/><path class="cls-10" d="M178.144 74.837a7.257 7.257 0 0 0-5.8 2.4c-1.4 1.6-2 3.9-2 6.9s.7 5.3 2.1 6.8 3.5 2.2 6.4 2.2a10.002 10.002 0 0 0 4.3-.8 6.012 6.012 0 0 0 1.4-.7 1.02 1.02 0 0 0 .5-.8 3.74 3.74 0 0 0-.4-1.1c-.3-.5-.6-.7-.9-.7h-.1a6.653 6.653 0 0 1-.7.3 8.77 8.77 0 0 1-4.2 1.1 4.778 4.778 0 0 1-3.7-1.3 5.842 5.842 0 0 1-1.4-3.9h10.6c.3 0 .5-.2.8-.6a1.626 1.626 0 0 0 .4-.9c0-3-.6-5.2-1.8-6.7a7.142 7.142 0 0 0-5.5-2.2zm4 7.8h-8.5a6.33 6.33 0 0 1 1.3-3.8 4.022 4.022 0 0 1 3.3-1.3 3.236 3.236 0 0 1 2.9 1.3 6.624 6.624 0 0 1 1 3.8zM152.744 74.837a6.797 6.797 0 0 0-5 2.4v-.2c0-.2-.1-.3-.1-.5 0-.1-.1-.2-.1-.4s-.1-.3-.1-.4c-.1-.1-.1-.2-.2-.3l-.3-.3a.75.75 0 0 0-.5-.1 4.4 4.4 0 0 0-1 .2 2.187 2.187 0 0 0-.5.3.62.62 0 0 0-.1.8 5.072 5.072 0 0 0 .2.9 17.467 17.467 0 0 1 .2 2.9v11.9a.755.755 0 0 0 .4.7 3.087 3.087 0 0 0 1.1.2h.1a3.087 3.087 0 0 0 1.1-.2.67.67 0 0 0 .4-.7v-12.3a5.31 5.31 0 0 1 4.1-2.3 3.742 3.742 0 0 1 2.5.8 2.87 2.87 0 0 1 .9 2.3v11.5a.755.755 0 0 0 .4.7 3.087 3.087 0 0 0 1.1.2h.1a3.087 3.087 0 0 0 1.1-.2.67.67 0 0 0 .4-.7v-11.5a5.593 5.593 0 0 0-1.5-4.1 6.88 6.88 0 0 0-4.7-1.6zM125.744 88.737a.367.367 0 0 0-.3.1 1.628 1.628 0 0 1-.6.3 7.092 7.092 0 0 1-2.1.8 8.628 8.628 0 0 1-2.8.4 7.38 7.38 0 0 1-5.8-2.2c-1.2-1.5-1.9-3.9-1.9-7.1 0-3.3.6-5.6 1.9-7.1s3.2-2.2 5.9-2.2a7.457 7.457 0 0 1 2.6.4 13.054 13.054 0 0 1 1.9.7 2.187 2.187 0 0 1 .5.3l.2.1h.1c.3 0 .5-.3.8-.8a2.421 2.421 0 0 0 .4-1.3.938.938 0 0 0-.6-.8 10.741 10.741 0 0 0-1.5-.7 13.267 13.267 0 0 0-4.5-.7c-3.7 0-6.5 1-8.3 3.1-1.9 2-2.8 5.1-2.8 9.1 0 4.1.9 7.2 2.7 9.2s4.6 3 8.3 3a14.367 14.367 0 0 0 4.9-.8c.7-.3 1.2-.6 1.6-.8a1.21 1.21 0 0 0 .6-.9 2.503 2.503 0 0 0-.5-1.1c-.2-.7-.4-1-.7-1zM195.843 75.237a2.41 2.41 0 0 0-1.5-.4q-2.1 0-3.9 2.4v-.1c0-.2-.1-.3-.1-.5 0-.1-.1-.2-.1-.4s-.1-.3-.1-.4c-.1-.1-.1-.2-.2-.3l-.3-.3a.75.75 0 0 0-.5-.1 4.4 4.4 0 0 0-1 .2 2.187 2.187 0 0 0-.5.3.62.62 0 0 0-.1.8 5.072 5.072 0 0 0 .2.9 17.467 17.467 0 0 1 .2 2.9v11.9a.755.755 0 0 0 .4.7 3.087 3.087 0 0 0 1.1.2h.1a3.087 3.087 0 0 0 1.1-.2.67.67 0 0 0 .4-.7v-12.3l.4-.5a3.644 3.644 0 0 1 1.1-1 2.979 2.979 0 0 1 1.4-.5 3.73 3.73 0 0 1 1.2.2c.4.1.6.2.7.2a.694.694 0 0 0 .6-.7 5.019 5.019 0 0 0 .2-1.2 2.836 2.836 0 0 0-.8-1.1zM135.543 74.837a7.257 7.257 0 0 0-5.8 2.4c-1.4 1.6-2 3.9-2 6.9s.7 5.3 2.1 6.8 3.5 2.2 6.4 2.2a10.002 10.002 0 0 0 4.3-.8 6.012 6.012 0 0 0 1.4-.7 1.02 1.02 0 0 0 .5-.8 3.74 3.74 0 0 0-.4-1.1c-.3-.5-.6-.7-.9-.7h-.1a6.653 6.653 0 0 1-.7.3 8.77 8.77 0 0 1-4.2 1.1 4.778 4.778 0 0 1-3.7-1.3 5.842 5.842 0 0 1-1.4-3.9h10.6c.3 0 .5-.2.8-.6a1.626 1.626 0 0 0 .4-.9c0-3-.6-5.2-1.8-6.7a7.142 7.142 0 0 0-5.5-2.2zm4 7.8h-8.5a6.33 6.33 0 0 1 1.3-3.8 4.022 4.022 0 0 1 3.3-1.3 3.236 3.236 0 0 1 2.9 1.3 5.938 5.938 0 0 1 1 3.8zM169.144 90.537a.52.52 0 0 0-.4-.2 1.338 1.338 0 0 0-.5.1 3.083 3.083 0 0 1-1 .1 1.486 1.486 0 0 1-1.3-.6 3.007 3.007 0 0 1-.4-1.8v-10.4h2.7a.605.605 0 0 0 .6-.3 1.884 1.884 0 0 0 .2-.8v-.4a1.549 1.549 0 0 0-.2-.8.713.713 0 0 0-.6-.3h-2.7v-3.4a.908.908 0 0 0-.3-.7 1.884 1.884 0 0 0-.8-.2h-.3a1.549 1.549 0 0 0-.8.2c-.2.1-.3.4-.4.6l-.4 3.4h-1.6a.605.605 0 0 0-.6.3 1.884 1.884 0 0 0-.2.8v.4a1.549 1.549 0 0 0 .2.8.713.713 0 0 0 .6.3h1.6v10.7a4.4 4.4 0 0 0 1.4 3.7 5.1 5.1 0 0 0 3.1 1.1 4.7 4.7 0 0 0 1.9-.3 1.068 1.068 0 0 0 .7-.9 5.755 5.755 0 0 0-.2-1 1.38 1.38 0 0 1-.3-.4zM210.843 60.837a18.464 18.464 0 0 1-.2-2.9v-7.6a4.899 4.899 0 0 0-1.8-4 6.837 6.837 0 0 0-4.6-1.4 13.514 13.514 0 0 0-4.8.7 5.287 5.287 0 0 0-1.5.7 1.02 1.02 0 0 0-.5.8 3.74 3.74 0 0 0 .4 1.1c.3.5.6.7.9.7h.1c.1-.1.4-.2.7-.4a9.472 9.472 0 0 1 4.4-1 4.148 4.148 0 0 1 2.7.7 2.263 2.263 0 0 1 .9 2v1.5a37.746 37.746 0 0 0-5.1.4 8.6 8.6 0 0 0-4.2 1.6 4.654 4.654 0 0 0-1.9 4.1 5.005 5.005 0 0 0 1.6 4.1 6.493 6.493 0 0 0 4.3 1.3 7.413 7.413 0 0 0 5.6-2.4v.2a4.33 4.33 0 0 0 .1.5c0 .1.1.2.1.4s.1.3.1.4.1.2.2.3l.3.3a.75.75 0 0 0 .5.1 4.4 4.4 0 0 0 1-.2 2.187 2.187 0 0 0 .5-.3.62.62 0 0 0 .1-.8c.2-.2.2-.5.1-.9zm-3.3-2.6a11.802 11.802 0 0 1-2.4 1.7 6.088 6.088 0 0 1-2.8.6 2.459 2.459 0 0 1-2.8-2.7 2.506 2.506 0 0 1 1.3-2.4c.5-.2.9-.4 1.3-.6a18.038 18.038 0 0 1 5.3-.5v3.9zM129.244 40.837a3.087 3.087 0 0 0 1.1.2h.4a3.087 3.087 0 0 0 1.1-.2.67.67 0 0 0 .4-.7v-2a.755.755 0 0 0-.4-.7 3.087 3.087 0 0 0-1.1-.2h-.4a3.087 3.087 0 0 0-1.1.2.67.67 0 0 0-.4.7v2c0 .4.1.6.4.7zM131.644 45.237a3.087 3.087 0 0 0-1.1-.2h-.1a3.087 3.087 0 0 0-1.1.2.67.67 0 0 0-.4.7v16.3a.755.755 0 0 0 .4.7 3.087 3.087 0 0 0 1.1.2h.1a3.087 3.087 0 0 0 1.1-.2.67.67 0 0 0 .4-.7v-16.3a.67.67 0 0 0-.4-.7zM349.843 61.137a2.187 2.187 0 0 0-.3-.5.52.52 0 0 0-.4-.2 1.338 1.338 0 0 0-.5.1 3.083 3.083 0 0 1-1 .1 1.486 1.486 0 0 1-1.3-.6 3.007 3.007 0 0 1-.4-1.8v-10.4h2.7a.605.605 0 0 0 .6-.3 1.884 1.884 0 0 0 .2-.8v-.4a1.549 1.549 0 0 0-.2-.8.713.713 0 0 0-.6-.3h-2.6v-3.4a.908.908 0 0 0-.3-.7 1.884 1.884 0 0 0-.8-.2h-.3a1.549 1.549 0 0 0-.8.2c-.2.1-.3.4-.4.6l-.4 3.4h-1.6a.605.605 0 0 0-.6.3 1.884 1.884 0 0 0-.2.8v.4a1.549 1.549 0 0 0 .2.8.713.713 0 0 0 .6.3h1.6v10.7a4.4 4.4 0 0 0 1.4 3.7 5.1 5.1 0 0 0 3.1 1.1 4.7 4.7 0 0 0 1.9-.3 1.068 1.068 0 0 0 .7-.9 9.216 9.216 0 0 0-.3-.9zM332.943 44.837a6.797 6.797 0 0 0-5 2.4v-.2c0-.2-.1-.3-.1-.5 0-.1-.1-.2-.1-.4s-.1-.3-.1-.4-.1-.2-.2-.3l-.3-.3a.75.75 0 0 0-.5-.1 4.4 4.4 0 0 0-1 .2 2.187 2.187 0 0 0-.5.3.62.62 0 0 0-.1.8 5.072 5.072 0 0 0 .2.9 17.467 17.467 0 0 1 .2 2.9v11.9a.755.755 0 0 0 .4.7 3.087 3.087 0 0 0 1.1.2h.1a3.087 3.087 0 0 0 1.1-.2.67.67 0 0 0 .4-.7v-12.3a5.31 5.31 0 0 1 4.1-2.3 3.742 3.742 0 0 1 2.5.8 2.87 2.87 0 0 1 .9 2.3v11.5a.755.755 0 0 0 .4.7 3.087 3.087 0 0 0 1.1.2h.1a3.087 3.087 0 0 0 1.1-.2.67.67 0 0 0 .4-.7v-11.5a5.593 5.593 0 0 0-1.5-4.1 7.24 7.24 0 0 0-4.7-1.6zM315.343 44.837a7.257 7.257 0 0 0-5.8 2.4c-1.4 1.6-2 3.9-2 6.9s.7 5.3 2.1 6.8 3.5 2.2 6.4 2.2a10.002 10.002 0 0 0 4.3-.8 6.012 6.012 0 0 0 1.4-.7 1.02 1.02 0 0 0 .5-.8 3.74 3.74 0 0 0-.4-1.1c-.3-.5-.6-.7-.9-.7h-.1a6.653 6.653 0 0 1-.7.3 8.77 8.77 0 0 1-4.2 1.1 4.778 4.778 0 0 1-3.7-1.3 5.842 5.842 0 0 1-1.4-3.9h10.6c.3 0 .5-.2.8-.6a1.626 1.626 0 0 0 .4-.9c0-3-.6-5.2-1.8-6.7a7.142 7.142 0 0 0-5.5-2.2zm4 7.8h-8.5a6.33 6.33 0 0 1 1.3-3.8 4.022 4.022 0 0 1 3.3-1.3 3.236 3.236 0 0 1 2.9 1.3 5.938 5.938 0 0 1 1 3.8zM303.144 45.837a5.986 5.986 0 0 0-3.5-1 6.772 6.772 0 0 0-5.3 2.7c-.8-1.8-2.5-2.7-4.9-2.7a6.838 6.838 0 0 0-5.1 2.4v-.2c0-.2-.1-.3-.1-.5 0-.1-.1-.2-.1-.4s-.1-.3-.1-.4c0-.1-.1-.2-.2-.3l-.3-.3a.75.75 0 0 0-.5-.1 4.4 4.4 0 0 0-1 .2 2.187 2.187 0 0 0-.5.3.62.62 0 0 0-.1.8 5.072 5.072 0 0 0 .2.9 17.467 17.467 0 0 1 .2 2.9v11.9a.755.755 0 0 0 .4.7 3.087 3.087 0 0 0 1.1.2h.1a3.087 3.087 0 0 0 1.1-.2.67.67 0 0 0 .4-.7v-12.4l.5-.5a4.898 4.898 0 0 1 1.5-1.2 4.383 4.383 0 0 1 2.3-.6 3.037 3.037 0 0 1 2.1.8 3.374 3.374 0 0 1 .8 2.3v11.5a.755.755 0 0 0 .4.7 3.087 3.087 0 0 0 1.1.2h.1a3.087 3.087 0 0 0 1.1-.2.67.67 0 0 0 .4-.7v-12.1c1.4-1.5 2.7-2.3 4-2.3a3.199 3.199 0 0 1 2.3.8 3.374 3.374 0 0 1 .8 2.3v11.5a.755.755 0 0 0 .4.7 3.087 3.087 0 0 0 1.1.2h.1a3.087 3.087 0 0 0 1.1-.2.67.67 0 0 0 .4-.7v-11.6a7.782 7.782 0 0 0-.5-2.8 8.34 8.34 0 0 0-1.8-1.9zM149.043 62.937a3.087 3.087 0 0 0 1.1.2h.1a3.087 3.087 0 0 0 1.1-.2.67.67 0 0 0 .4-.7v-7.5l6.7 7.9a2.7 2.7 0 0 0 1.9.5h.1a4.12 4.12 0 0 0 1.2-.1c.3-.1.5-.2.5-.5a.864.864 0 0 0-.3-.6l-6.9-8.2 6.2-7.4c.2-.3.4-.5.4-.8a.43.43 0 0 0-.4-.4 2.22 2.22 0 0 0-.9-.1h-.2c-1 0-1.6.1-1.9.5l-6.4 7.6v-14.9a.755.755 0 0 0-.4-.7 3.087 3.087 0 0 0-1.1-.2h-.1a3.087 3.087 0 0 0-1.1.2.67.67 0 0 0-.4.7v24a.755.755 0 0 0 .4.7zM222.144 44.837a6.797 6.797 0 0 0-5 2.4v-.2c0-.2-.1-.3-.1-.5 0-.1-.1-.2-.1-.4s-.1-.3-.1-.4c0-.1-.1-.2-.2-.3l-.3-.3a.75.75 0 0 0-.5-.1 4.4 4.4 0 0 0-1 .2 2.187 2.187 0 0 0-.5.3.62.62 0 0 0-.1.8 5.072 5.072 0 0 0 .2.9 17.467 17.467 0 0 1 .2 2.9v11.9a.755.755 0 0 0 .4.7 3.087 3.087 0 0 0 1.1.2h.1a3.087 3.087 0 0 0 1.1-.2.67.67 0 0 0 .4-.7v-12.3a5.31 5.31 0 0 1 4.1-2.3 3.742 3.742 0 0 1 2.5.8 2.87 2.87 0 0 1 .9 2.3v11.5a.755.755 0 0 0 .4.7 3.087 3.087 0 0 0 1.1.2h.1a3.087 3.087 0 0 0 1.1-.2.67.67 0 0 0 .4-.7v-11.5a5.593 5.593 0 0 0-1.5-4.1 7.057 7.057 0 0 0-4.7-1.6zM271.744 44.837a7.257 7.257 0 0 0-5.8 2.4c-1.4 1.6-2 3.9-2 6.9s.7 5.3 2.1 6.8 3.5 2.2 6.4 2.2a10.002 10.002 0 0 0 4.3-.8 6.012 6.012 0 0 0 1.4-.7 1.02 1.02 0 0 0 .5-.8 3.74 3.74 0 0 0-.4-1.1c-.3-.5-.6-.7-.9-.7h-.1a6.653 6.653 0 0 1-.7.3 8.77 8.77 0 0 1-4.2 1.1 4.778 4.778 0 0 1-3.7-1.3 5.842 5.842 0 0 1-1.4-3.9h10.6c.3 0 .5-.2.8-.6a1.626 1.626 0 0 0 .4-.9c0-3-.6-5.2-1.8-6.7a6.994 6.994 0 0 0-5.5-2.2zm4.1 7.8h-8.5a6.33 6.33 0 0 1 1.3-3.8 4.022 4.022 0 0 1 3.3-1.3 3.236 3.236 0 0 1 2.9 1.3 7.508 7.508 0 0 1 1 3.8zM175.144 39.737a1.579 1.579 0 0 0-1.5-.7h-1.2a3.087 3.087 0 0 0-1.1.2.67.67 0 0 0-.4.7v22.3a.755.755 0 0 0 .4.7 3.087 3.087 0 0 0 1.1.2h.2a3.087 3.087 0 0 0 1.1-.2.67.67 0 0 0 .4-.7v-17.9l6.7 11.6a1.05 1.05 0 0 0 .9.5h1.4a1.05 1.05 0 0 0 .9-.5l6.6-11.4v17.7a.755.755 0 0 0 .4.7 3.087 3.087 0 0 0 1.1.2h.2a3.087 3.087 0 0 0 1.1-.2.67.67 0 0 0 .4-.7v-22.3a.755.755 0 0 0-.4-.7 3.087 3.087 0 0 0-1.1-.2h-1.1c-.7 0-1.3.2-1.5.7l-6.4 11.3-.8 1.7-.8-1.9-6.6-11.1zM144.843 54.137a11.035 11.035 0 0 0-4.4-2.2 5.288 5.288 0 0 1-2-1 1.678 1.678 0 0 1-.6-1.4 1.513 1.513 0 0 1 .7-1.4 3.398 3.398 0 0 1 2.2-.6 5.135 5.135 0 0 1 2.5.6c.1.1.2.1.3.2h.2c.3 0 .5-.3.8-.8a2.385 2.385 0 0 0 .4-1.2.723.723 0 0 0-.4-.6 3.832 3.832 0 0 0-1.1-.5 10.125 10.125 0 0 0-3.1-.4 5.984 5.984 0 0 0-4.1 1.4 4.312 4.312 0 0 0-1.6 3.5 3.81 3.81 0 0 0 1.1 3.1 8.414 8.414 0 0 0 3.3 1.7 8.646 8.646 0 0 1 3 1.3 2.49 2.49 0 0 1 .7 1.9 2.792 2.792 0 0 1-.8 2 2.971 2.971 0 0 1-2.1.7 6.873 6.873 0 0 1-2.2-.3 6.446 6.446 0 0 1-1.4-.6c-.2-.1-.3-.2-.4-.2l-.1-.1h-.1c-.3 0-.6.3-.9.7a2.107 2.107 0 0 0-.4 1.1c0 .3.2.5.5.8a5.045 5.045 0 0 0 1.3.7 10.049 10.049 0 0 0 4.1.7 5.577 5.577 0 0 0 4.1-1.6 5.281 5.281 0 0 0 1.7-4 4.794 4.794 0 0 0-1.2-3.5zM262.543 45.037h-5.8a14.978 14.978 0 0 0-2.2-.2 7.293 7.293 0 0 0-5.1 1.7 5.661 5.661 0 0 0-1.8 4.3 6.806 6.806 0 0 0 .8 3.1 5.775 5.775 0 0 0 2.1 2c-1.6.6-2.4 1.5-2.4 2.8a3.062 3.062 0 0 0 2 2.8c-2.4.9-3.6 2.3-3.6 4.1a3.47 3.47 0 0 0 2.1 3.5 13.335 13.335 0 0 0 5.9 1 10.793 10.793 0 0 0 6.1-1.5 4.573 4.573 0 0 0 2.3-3.9 4.302 4.302 0 0 0-1.2-3.1 5.423 5.423 0 0 0-2.9-1.5c-1.1-.2-2.2-.4-3.4-.6a9.755 9.755 0 0 1-2.8-.6 1.915 1.915 0 0 1-.8-.4c-.2-.2-.3-.3-.3-.5a.928.928 0 0 1 .7-.9 5.58 5.58 0 0 1 2.1-.4h.3a7.293 7.293 0 0 0 5.1-1.7 5.661 5.661 0 0 0 1.8-4.3 4.805 4.805 0 0 0-1-3.1h2.1a.605.605 0 0 0 .6-.3 1.884 1.884 0 0 0 .2-.8v-.4a1.549 1.549 0 0 0-.2-.8 1.494 1.494 0 0 0-.7-.3zm-9.6 17.3c.3.1.8.1 1.4.2a18.018 18.018 0 0 1 4.6 1.1 1.306 1.306 0 0 1 .7 1.2 2.075 2.075 0 0 1-1.3 1.8 7.382 7.382 0 0 1-3.6.8 9.4 9.4 0 0 1-3.8-.6 1.769 1.769 0 0 1-1.2-1.6 2.087 2.087 0 0 1 1-1.7 9.052 9.052 0 0 1 2.2-1.2zm4.4-9a5.3 5.3 0 0 1-5.6 0 3.042 3.042 0 0 1-.9-2.5 3.327 3.327 0 0 1 .9-2.5 5.3 5.3 0 0 1 5.6 0 3.042 3.042 0 0 1 .9 2.5 3.327 3.327 0 0 1-.9 2.5zM244.744 60.837a18.464 18.464 0 0 1-.2-2.9v-7.6a4.899 4.899 0 0 0-1.8-4 6.837 6.837 0 0 0-4.6-1.4 13.514 13.514 0 0 0-4.8.7 5.287 5.287 0 0 0-1.5.7 1.02 1.02 0 0 0-.5.8 3.74 3.74 0 0 0 .4 1.1c.3.5.6.7.9.7h.1c.1-.1.4-.2.7-.4a9.472 9.472 0 0 1 4.4-1 4.148 4.148 0 0 1 2.7.7 2.263 2.263 0 0 1 .9 2v1.5a37.746 37.746 0 0 0-5.1.4 8.6 8.6 0 0 0-4.2 1.6 4.654 4.654 0 0 0-1.9 4.1 5.005 5.005 0 0 0 1.6 4.1 6.493 6.493 0 0 0 4.3 1.3 7.413 7.413 0 0 0 5.6-2.4v.2a4.33 4.33 0 0 0 .1.5c0 .1.1.2.1.4s.1.3.1.4c0 .1.1.2.2.3l.3.3a.75.75 0 0 0 .5.1 4.4 4.4 0 0 0 1-.2 2.187 2.187 0 0 0 .5-.3.62.62 0 0 0 .1-.8c.2-.2.2-.5.1-.9zm-3.3-2.6a11.802 11.802 0 0 1-2.4 1.7 6.088 6.088 0 0 1-2.8.6 2.459 2.459 0 0 1-2.8-2.7 2.506 2.506 0 0 1 1.3-2.4c.5-.2.9-.4 1.3-.6a18.038 18.038 0 0 1 5.3-.5v3.9zM127.144 61.937l-2.6-6.7a15.778 15.778 0 0 0-1.4-2.9 3.323 3.323 0 0 0-1.6-1.3 5.825 5.825 0 0 0 3.9-5.8 5.42 5.42 0 0 0-2.1-4.7 10.707 10.707 0 0 0-6.2-1.5h-5.7a.984.984 0 0 0-.8.3 1.136 1.136 0 0 0-.3.8v22a.755.755 0 0 0 .4.7 3.087 3.087 0 0 0 1.1.2h.3a3.087 3.087 0 0 0 1.1-.2.67.67 0 0 0 .4-.7v-9.6h2.9a5.274 5.274 0 0 1 3.1.7 4.95 4.95 0 0 1 1.8 2.6l2.6 6.6a1.205 1.205 0 0 0 .5.5 2.787 2.787 0 0 0 1 .1h.3a3.42 3.42 0 0 0 1.1-.1.51.51 0 0 0 .4-.5c-.1-.1-.1-.3-.2-.5zm-13.7-20h4.1a4.826 4.826 0 0 1 3.3 1 3.16 3.16 0 0 1 1.2 2.7 4.101 4.101 0 0 1-4.2 4.2h-4.3v-7.9zM183.543 15.437a17.467 17.467 0 0 1 .2 2.9v11.9a.755.755 0 0 0 .4.7 3.087 3.087 0 0 0 1.1.2h.1a3.087 3.087 0 0 0 1.1-.2.67.67 0 0 0 .4-.7v-12.3l.4-.5a3.644 3.644 0 0 1 1.1-1 2.979 2.979 0 0 1 1.4-.5 3.73 3.73 0 0 1 1.2.2c.4.1.6.2.7.2a.694.694 0 0 0 .6-.7 5.019 5.019 0 0 0 .2-1.2 1.1 1.1 0 0 0-.6-1 2.41 2.41 0 0 0-1.5-.4q-2.1 0-3.9 2.4v-.1c0-.2-.1-.3-.1-.5 0-.1-.1-.2-.1-.4s-.1-.3-.1-.4-.1-.2-.2-.3l-.3-.3a.75.75 0 0 0-.5-.1 4.4 4.4 0 0 0-1 .2 2.187 2.187 0 0 0-.5.3.62.62 0 0 0-.1.8c-.1.1-.1.4 0 .8zM220.543 8.837a3.087 3.087 0 0 0 1.1.2h.4a3.087 3.087 0 0 0 1.1-.2.67.67 0 0 0 .4-.7v-2a.755.755 0 0 0-.4-.7 3.087 3.087 0 0 0-1.1-.2h-.4a3.087 3.087 0 0 0-1.1.2.67.67 0 0 0-.4.7v2c0 .4.1.6.4.7zM200.843 31.237a7.239 7.239 0 0 0 5.8-2.3 10.403 10.403 0 0 0 2-6.8 10.403 10.403 0 0 0-2-6.8 7.121 7.121 0 0 0-5.8-2.4 7.47 7.47 0 0 0-5.9 2.4 10.061 10.061 0 0 0-2.1 6.8 10.594 10.594 0 0 0 2 6.8 7.832 7.832 0 0 0 6 2.3zm-3.6-14.1a4.066 4.066 0 0 1 3.5-1.6 4.129 4.129 0 0 1 3.6 1.6 8.024 8.024 0 0 1 1.2 4.9 8.024 8.024 0 0 1-1.2 4.9 4.261 4.261 0 0 1-3.6 1.6 3.834 3.834 0 0 1-3.5-1.6 8.868 8.868 0 0 1-1.1-4.9c0-2.2.3-3.9 1.1-4.9zM222.944 13.237a3.087 3.087 0 0 0-1.1-.2h-.1a3.087 3.087 0 0 0-1.1.2.67.67 0 0 0-.4.7v16.3a.755.755 0 0 0 .4.7 3.087 3.087 0 0 0 1.1.2h.1a3.087 3.087 0 0 0 1.1-.2.67.67 0 0 0 .4-.7v-16.3a.67.67 0 0 0-.4-.7zM139.043 31.237a7.239 7.239 0 0 0 5.8-2.3 10.403 10.403 0 0 0 2-6.8 10.403 10.403 0 0 0-2-6.8 7.121 7.121 0 0 0-5.8-2.4 7.47 7.47 0 0 0-5.9 2.4 10.061 10.061 0 0 0-2.1 6.8 10.594 10.594 0 0 0 2 6.8 8.14 8.14 0 0 0 6 2.3zm-3.6-14.1a4.066 4.066 0 0 1 3.5-1.6 4.129 4.129 0 0 1 3.6 1.6 8.024 8.024 0 0 1 1.2 4.9 8.024 8.024 0 0 1-1.2 4.9 4.261 4.261 0 0 1-3.6 1.6 3.834 3.834 0 0 1-3.5-1.6 8.868 8.868 0 0 1-1.1-4.9 8.868 8.868 0 0 1 1.1-4.9zM214.944 30.237v-14.5h2.8a.605.605 0 0 0 .6-.3 1.884 1.884 0 0 0 .2-.8v-.4a1.549 1.549 0 0 0-.2-.8.713.713 0 0 0-.6-.3h-2.8v-2.8a3.54 3.54 0 0 1 .4-1.9 1.606 1.606 0 0 1 1.1-.5 3.11 3.11 0 0 1 1.1.1 1.338 1.338 0 0 0 .5.1.758.758 0 0 0 .4-.2 2.185 2.185 0 0 0 .3-.5 5.755 5.755 0 0 0 .2-1 1.068 1.068 0 0 0-.7-.9 4.7 4.7 0 0 0-1.9-.3 6.026 6.026 0 0 0-2.9.8c-1.1.7-1.6 2-1.6 4v3.1h-1.2a.605.605 0 0 0-.6.3 1.884 1.884 0 0 0-.2.8v.4a1.549 1.549 0 0 0 .2.8.713.713 0 0 0 .6.3h1.2v14.5a.755.755 0 0 0 .4.7 3.087 3.087 0 0 0 1.1.2h.1a3.087 3.087 0 0 0 1.1-.2.755.755 0 0 0 .4-.7zM234.144 30.937a1.068 1.068 0 0 0 .7-.9 5.755 5.755 0 0 0-.2-1 2.187 2.187 0 0 0-.3-.5.52.52 0 0 0-.4-.2 1.338 1.338 0 0 0-.5.1 3.083 3.083 0 0 1-1 .1 1.486 1.486 0 0 1-1.3-.6 3.007 3.007 0 0 1-.4-1.8v-10.4h2.7a.605.605 0 0 0 .6-.3 1.884 1.884 0 0 0 .2-.8v-.4a1.549 1.549 0 0 0-.2-.8.713.713 0 0 0-.6-.3h-2.7v-3.4a.908.908 0 0 0-.3-.7 1.884 1.884 0 0 0-.8-.2h-.3a1.549 1.549 0 0 0-.8.2c-.2.1-.3.4-.4.6l-.4 3.4h-1.6a.605.605 0 0 0-.6.3 1.884 1.884 0 0 0-.2.8v.4a1.549 1.549 0 0 0 .2.8.713.713 0 0 0 .6.3h1.6v10.7a4.4 4.4 0 0 0 1.4 3.7 5.1 5.1 0 0 0 3.1 1.1 3.568 3.568 0 0 0 1.9-.2zM149.244 15.437a17.467 17.467 0 0 1 .2 2.9v11.9a.755.755 0 0 0 .4.7 3.087 3.087 0 0 0 1.1.2h.1a3.087 3.087 0 0 0 1.1-.2.67.67 0 0 0 .4-.7v-12.3a5.31 5.31 0 0 1 4.1-2.3 3.742 3.742 0 0 1 2.5.8 2.87 2.87 0 0 1 .9 2.3v11.5a.755.755 0 0 0 .4.7 3.087 3.087 0 0 0 1.1.2h.1a3.087 3.087 0 0 0 1.1-.2.67.67 0 0 0 .4-.7v-11.7a5.593 5.593 0 0 0-1.5-4.1 6.016 6.016 0 0 0-4.4-1.5 6.797 6.797 0 0 0-5 2.4v-.2c0-.2-.1-.3-.1-.5 0-.1-.1-.2-.1-.4s-.1-.3-.1-.4c0-.1-.1-.2-.2-.3l-.3-.3a.75.75 0 0 0-.5-.1 4.4 4.4 0 0 0-1 .2 2.187 2.187 0 0 0-.5.3.62.62 0 0 0-.1.8c-.3.3-.2.6-.1 1zM166.043 15.437a17.467 17.467 0 0 1 .2 2.9v18.8a.755.755 0 0 0 .4.7 3.087 3.087 0 0 0 1.1.2h.1a3.087 3.087 0 0 0 1.1-.2.67.67 0 0 0 .4-.7v-7.6a8.074 8.074 0 0 0 5 1.6 5.83 5.83 0 0 0 4.8-2.4 10.17 10.17 0 0 0 1.9-6.6v-.3a11.08 11.08 0 0 0-1.8-6.5 5.693 5.693 0 0 0-4.9-2.6 7.249 7.249 0 0 0-5.3 2.4v-.2c0-.2-.1-.3-.1-.5 0-.1-.1-.2-.1-.4s-.1-.3-.1-.4-.1-.2-.2-.3l-.3-.3a.75.75 0 0 0-.5-.1 4.4 4.4 0 0 0-1 .2 2.187 2.187 0 0 0-.5.3.62.62 0 0 0-.1.8 1.708 1.708 0 0 0-.1 1.2zm7.4 13h-.2a6.035 6.035 0 0 1-4-1.5v-9.2c1.4-1.5 2.8-2.3 4.2-2.3a3.61 3.61 0 0 1 3.2 1.7 9.608 9.608 0 0 1 1.1 4.9 8.579 8.579 0 0 1-1.1 4.7 3.413 3.413 0 0 1-3.2 1.7zM110.444 30.937a3.087 3.087 0 0 0 1.1.2h.2a3.087 3.087 0 0 0 1.1-.2.67.67 0 0 0 .4-.7v-17.8l.7 1.3 11.1 16.8c.2.4.7.5 1.3.5h.7a3.087 3.087 0 0 0 1.1-.2.67.67 0 0 0 .4-.7v-22.3a.755.755 0 0 0-.4-.7 3.087 3.087 0 0 0-1.1-.2h-.2a3.087 3.087 0 0 0-1.1.2.67.67 0 0 0-.4.7v17.7l-.8-1.5-10.8-16.3a1.683 1.683 0 0 0-1.5-.7h-.7a3.087 3.087 0 0 0-1.1.2.67.67 0 0 0-.4.7v22.3c-.1.3.1.5.4.7z"/></svg>