<svg id="Layer_3" data-name="Layer 3" xmlns="http://www.w3.org/2000/svg" viewBox="0 0 147 147"><defs><style>.cls-1{fill:#242a37;}</style></defs><title>icon-assessment</title><path class="cls-1" d="M73.5,147A73.5,73.5,0,1,1,147,73.5,73.61931,73.61931,0,0,1,73.5,147Zm0-144A70.5,70.5,0,1,0,144,73.5,70.54622,70.54622,0,0,0,73.5,3Z"/><path class="cls-1" d="M54.7,57.5h-20A1.538,1.538,0,0,1,33.2,56V36a1.538,1.538,0,0,1,1.5-1.5h20A1.538,1.538,0,0,1,56.2,36V56A1.538,1.538,0,0,1,54.7,57.5Zm-18.5-3h17v-17h-17Zm18.5,33h-20A1.538,1.538,0,0,1,33.2,86V66a1.538,1.538,0,0,1,1.5-1.5h20A1.538,1.538,0,0,1,56.2,66V86A1.538,1.538,0,0,1,54.7,87.5Zm-18.5-3h17v-17h-17Zm18.5,33h-20a1.538,1.538,0,0,1-1.5-1.5V96a1.538,1.538,0,0,1,1.5-1.5h20A1.538,1.538,0,0,1,56.2,96v20A1.538,1.538,0,0,1,54.7,117.5Zm-18.5-3h17v-17h-17Zm75-72h-47a1.5,1.5,0,0,1,0-3h47a1.5,1.5,0,0,1,0,3Zm-20,10h-27a1.5,1.5,0,0,1,0-3h27a1.5,1.5,0,1,1,0,3Zm20,20h-47a1.5,1.5,0,0,1,0-3h47a1.5,1.5,0,0,1,0,3Zm-20,10h-27a1.5,1.5,0,0,1,0-3h27a1.5,1.5,0,1,1,0,3Zm20,20h-47a1.5,1.5,0,0,1,0-3h47a1.5,1.5,0,0,1,0,3Zm-20,10h-27a1.5,1.5,0,0,1,0-3h27a1.5,1.5,0,1,1,0,3Z"/><path class="cls-1" d="M41.7,80.6a1.28373,1.28373,0,0,1-1-.4,1.54655,1.54655,0,0,1-.1-2.1l6.1-6.5a1.48661,1.48661,0,0,1,2.2,2l-6.1,6.5A1.60589,1.60589,0,0,1,41.7,80.6Z"/><path class="cls-1" d="M47.8,80.6a1.60592,1.60592,0,0,1-1.1-.5l-6.1-6.5a1.48661,1.48661,0,0,1,2.2-2l6.1,6.5a1.44971,1.44971,0,0,1-.1,2.1A1.52765,1.52765,0,0,1,47.8,80.6Z"/></svg>