<svg id="Layer_3" data-name="Layer 3" xmlns="http://www.w3.org/2000/svg" viewBox="0 0 147 147"><defs><style>.cls-1{fill:#242a37;}</style></defs><title>icon-policy</title><path class="cls-1" d="M73.5,147A73.5,73.5,0,1,1,147,73.5,73.61931,73.61931,0,0,1,73.5,147Zm0-144A70.5,70.5,0,1,0,144,73.5,70.54623,70.54623,0,0,0,73.5,3Z"/><path class="cls-1" d="M39.7,107a1.538,1.538,0,0,1-1.5-1.5v-64a1.5,1.5,0,0,1,3,0v64A1.538,1.538,0,0,1,39.7,107Zm64,9.5H49.2a1.5,1.5,0,0,1,0-3h53v-73a1.5,1.5,0,0,1,3,0V115A1.538,1.538,0,0,1,103.7,116.5Zm-9.5-84h-45a1.5,1.5,0,0,1,0-3h45a1.5,1.5,0,0,1,0,3Z"/><path class="cls-1" d="M49.7,116.5a11.5,11.5,0,0,1,0-23,1.5,1.5,0,1,1,0,3,8.5,8.5,0,0,0,0,17,1.5,1.5,0,1,1,0,3Zm-10-74A1.538,1.538,0,0,1,38.2,41,11.56631,11.56631,0,0,1,49.7,29.5a1.5,1.5,0,0,1,0,3A8.49285,8.49285,0,0,0,41.2,41,1.538,1.538,0,0,1,39.7,42.5Z"/><path class="cls-1" d="M94.2,106.5h-45a1.5,1.5,0,0,1,0-3h45a1.5,1.5,0,1,1,0,3Zm0-10h-44a1.5,1.5,0,0,1,0-3h44a1.5,1.5,0,1,1,0,3Z"/><path class="cls-1" d="M94.7,96a1.538,1.538,0,0,1-1.5-1.5v-63a1.5,1.5,0,0,1,3,0v63A1.538,1.538,0,0,1,94.7,96ZM82.2,49.5h-28a1.5,1.5,0,0,1,0-3h28a1.5,1.5,0,1,1,0,3Zm0,10h-28a1.5,1.5,0,0,1,0-3h28a1.5,1.5,0,1,1,0,3Zm-11,10h-17a1.5,1.5,0,0,1,0-3h17a1.5,1.5,0,1,1,0,3Z"/></svg>