<svg id="Layer_1" data-name="Layer 1" xmlns="http://www.w3.org/2000/svg" xmlns:xlink="http://www.w3.org/1999/xlink" viewBox="0 0 350.14357 127.13712"><defs><style>.cls-1,.cls-2,.cls-3,.cls-4,.cls-5,.cls-6,.cls-7,.cls-8,.cls-9{fill:none;}.cls-2{clip-path:url(#clip-path);}.cls-3{clip-path:url(#clip-path-2);}.cls-4{clip-path:url(#clip-path-3);}.cls-5{clip-path:url(#clip-path-4);}.cls-6{clip-path:url(#clip-path-5);}.cls-7{clip-path:url(#clip-path-6);}.cls-8{clip-path:url(#clip-path-7);}.cls-9{clip-path:url(#clip-path-9);}.cls-10{fill:#fff;}.cls-11{clip-path:url(#clip-path-11);}.cls-12{fill:#231f20;}.cls-13{isolation:isolate;}.cls-14{clip-path:url(#clip-path-19);}.cls-15{fill:url(#linear-gradient);}.cls-16{fill:url(#linear-gradient-2);}.cls-17{fill:url(#linear-gradient-3);}</style><clipPath id="clip-path"><path class="cls-1" d="M6.5435,86.13712h0m0,0a32.57236,32.57236,0,0,0,14.5-3.4h0a32.22157,32.22157,0,0,1-14.5,3.4m17.3-5a8.91593,8.91593,0,0,0,2.3-1.7,24.2634,24.2634,0,0,1-2.3,1.7h0"/></clipPath><clipPath id="clip-path-2"><path class="cls-2" d="M.5435.53711h-.2l.1,94.9v-9.9a32.04774,32.04774,0,0,0,25.8-6.1v-63.2c.4-2,4-15.7,23-15.7H.5435"/></clipPath><clipPath id="clip-path-3"><path class="cls-1" d="M63.0435,38.63712l-2.8-1.7c-10.2-6.2-22.9-13.9-34-20.7.4-2,4-15.7,23-15.7h34.9a9.72106,9.72106,0,0,1,3.1.4l-24.2,37.7"/></clipPath><clipPath id="clip-path-4"><path class="cls-4" d="M.5435.53711h48.6c-19,0-22.5,13.7-23,15.7,22.7,13.8,52.2,31.8,53,32.2h.1c13.5,6.6,17,21.6,17.7,26.1l.2-73.9H.5435"/></clipPath><clipPath id="clip-path-5"><path class="cls-1" d="M85.34351,95.03711l-46.3-23.2,39.9-23.4h.4c7.9,3.9,12.3,10.6,14.8,16.4v20.6c0,4.9-2.4,7.4-4.9,8.7a13.70135,13.70135,0,0,1-3.9.9"/></clipPath><clipPath id="clip-path-6"><path class="cls-6" d="M96.9435,74.4371a7.209,7.209,0,0,0-.2-1.4c-.7-4.4-4-18-17.5-24.6h-.1c-1.5-.7-53,31.1-53,31.1a32.04774,32.04774,0,0,1-25.8,6.1v10.9h96.8l-.2-22.1"/></clipPath><clipPath id="clip-path-7"><path class="cls-1" d="M94.14351,64.8371c-2.5-5.8-7-12.5-14.8-16.4a30.88606,30.88606,0,0,1,14.8,15.8v.6"/></clipPath><clipPath id="clip-path-9"><path class="cls-1" d="M6.5435,86.13712h0a32.0972,32.0972,0,0,1-6-.6v-.2h0v-43.6l25.6-7.1v44.6h0v.1h0a24.2634,24.2634,0,0,1-2.3,1.7c-.8.5-1.8,1.1-2.8,1.6a30.86734,30.86734,0,0,1-14.5,3.5h0"/></clipPath><clipPath id="clip-path-11"><path class="cls-1" d="M10.5435.53711s-10,0-10,10v74.9s0,10,10,10h73.6s10,0,10-10v-74.9s0-10-10-10h-73.6m68.5,47.8-52.9,31,.1-63.1,52.8,32.1"/></clipPath><clipPath id="clip-path-19"><path class="cls-1" d="M10.5435.53711s-10,0-10,10v74.9s0,10,10,10h73.6s10,0,10-10v-74.9s0-10-10-10h-73.6"/></clipPath><linearGradient id="linear-gradient" x1="57.01698" y1="112.70593" x2="-0.73302" y2="146.20593" gradientTransform="matrix(1, 0, 0, -1, 0, 127.07422)" gradientUnits="userSpaceOnUse"><stop offset="0" stop-color="#fff"/><stop offset="1"/></linearGradient><linearGradient id="linear-gradient-2" x1="24.79351" y1="66.87042" x2="24.79351" y2="-30.53189" xlink:href="#linear-gradient"/><linearGradient id="linear-gradient-3" x1="71.54536" y1="52.28938" x2="125.04536" y2="90.53937" xlink:href="#linear-gradient"/></defs><title>nrmc_logo_white</title><path class="cls-10" d="M10.5435.53711s-10,0-10,10v74.9s0,10,10,10h73.6s10,0,10-10v-74.9s0-10-10-10h-73.6m68.5,47.8-52.9,31,.1-63.1,52.8,32.1"/><g class="cls-11"><path class="cls-12" d="M.5435.53711h-.2l.1,94.9v-9.9a32.04774,32.04774,0,0,0,25.8-6.1v-63.2c.4-2,4-15.7,23-15.7H.5435"/></g><g class="cls-11"><path class="cls-12" d="M.5435.53711h48.6c-19,0-22.5,13.7-23,15.7,22.7,13.8,52.2,31.8,53,32.2h.1c13.5,6.6,17,21.6,17.7,26.1l.2-73.9H.5435"/></g><g class="cls-11"><path class="cls-12" d="M96.9435,74.4371a7.209,7.209,0,0,0-.2-1.4c-.7-4.4-4-18-17.5-24.6h-.1c-1.5-.7-53,31.1-53,31.1a32.04774,32.04774,0,0,1-25.8,6.1v10.9h96.8l-.2-22.1"/></g><path class="cls-10" d="M203.4435,122.9371h0c.6,0,.9-.1.9-.4v-7.3a3.25154,3.25154,0,0,1,2.5-1.4,2.07,2.07,0,0,1,1.5.5,1.62433,1.62433,0,0,1,.5,1.4v6.8c0,.3.3.4.8.4h.1c.5,0,.8-.1.8-.4v-7a3.24361,3.24361,0,0,0-.9-2.4,3.32749,3.32749,0,0,0-2.5-.9,3.98349,3.98349,0,0,0-3,1.5v-.2a.3673.3673,0,0,0-.1-.3c0-.1,0-.1-.1-.2a.34916.34916,0,0,0-.1-.2l-.1-.2-.1-.1h-.3a1.75941,1.75941,0,0,0-.6.1c-.3.1-.4.2-.4.4a4.53027,4.53027,0,0,0,.1.8,7.15564,7.15564,0,0,1,.1,1.7v7a.96336.96336,0,0,0,.9.4Zm17.2-1.3a5.79621,5.79621,0,0,0,1.2-4,5.97175,5.97175,0,0,0-1.2-4,4.82857,4.82857,0,0,0-6.8,0,5.97191,5.97191,0,0,0-1.2,4,5.68886,5.68886,0,0,0,1.2,3.9,4.29337,4.29337,0,0,0,3.4,1.4,4.237,4.237,0,0,0,3.4-1.3Zm-6.3-4a5.12877,5.12877,0,0,1,.7-3,2.65808,2.65808,0,0,1,2.1-1,2.459,2.459,0,0,1,2.2,1,4.73835,4.73835,0,0,1,.7,3,5.12877,5.12877,0,0,1-.7,3,2.65629,2.65629,0,0,1-2.2.9,2.33564,2.33564,0,0,1-2.1-.9,5.12877,5.12877,0,0,1-.7-3Zm10.4,5.3h0c.6,0,.9-.1.9-.4v-7.3a3.25154,3.25154,0,0,1,2.5-1.4,2.07,2.07,0,0,1,1.5.5,1.62433,1.62433,0,0,1,.5,1.4v6.8c0,.3.3.4.8.4h.1c.5,0,.8-.1.8-.4v-7a3.24361,3.24361,0,0,0-.9-2.4,3.32749,3.32749,0,0,0-2.5-.9,3.98349,3.98349,0,0,0-3,1.5v-.2a.3673.3673,0,0,0-.1-.3c0-.1,0-.1-.1-.2a.34916.34916,0,0,0-.1-.2l-.1-.2,0-.1h-.3a1.75941,1.75941,0,0,0-.6.1c-.3.1-.4.2-.4.4a4.53027,4.53027,0,0,0,.1.8,7.15564,7.15564,0,0,1,.1,1.7v7c0,.2.3.4.8.4Zm11.5-1a4.719,4.719,0,0,0,3,1,3.50431,3.50431,0,0,0,2.8-1.4,6.24369,6.24369,0,0,0,1.1-3.9v-.1a6.52966,6.52966,0,0,0-1-3.8,3.21887,3.21887,0,0,0-2.8-1.5,4.37935,4.37935,0,0,0-3.2,1.5v-.2a.3673.3673,0,0,0-.1-.3c0-.1,0-.1-.1-.2a.34916.34916,0,0,0-.1-.2l-.1-.2-.2-.1h-.3a1.75941,1.75941,0,0,0-.6.1c-.3.1-.4.2-.4.4a4.53027,4.53027,0,0,0,.1.8,7.15564,7.15564,0,0,1,.1,1.7v11c0,.3.3.4.8.4h.1c.5,0,.8-.1.8-.4v-4.6Zm0-1.3v-5.5a3.59512,3.59512,0,0,1,2.6-1.4,2.30545,2.30545,0,0,1,2,1.1,5.96064,5.96064,0,0,1,.6,2.9,4.4616,4.4616,0,0,1-.7,2.8,2.32783,2.32783,0,0,1-2,1h-.1a3.58335,3.58335,0,0,1-2.4-.9Zm10,2.3h0c.6,0,.9-.1.9-.4v-7.3l.2-.3a2.16871,2.16871,0,0,1,.7-.6,1.6128,1.6128,0,0,1,.9-.3,1.48278,1.48278,0,0,1,.7.1.75588.75588,0,0,0,.4.1c.1,0,.2-.1.3-.4a1.70174,1.70174,0,0,0,.1-.7.8644.8644,0,0,0-.3-.6,1.99677,1.99677,0,0,0-.9-.2,2.94432,2.94432,0,0,0-2.3,1.5v-.2a.3673.3673,0,0,0-.1-.3c0-.1,0-.1-.1-.2a.34916.34916,0,0,0-.1-.2l-.1-.2-.2-.1h-.3a1.75941,1.75941,0,0,0-.6.1c-.3.1-.4.2-.4.4a4.53027,4.53027,0,0,0,.1.8,7.15564,7.15564,0,0,1,.1,1.7v7a1.96341,1.96341,0,0,0,1,.3Zm13.3-1.3a5.7947,5.7947,0,0,0,1.1-4,5.97175,5.97175,0,0,0-1.2-4,4.82857,4.82857,0,0,0-6.8,0,5.97191,5.97191,0,0,0-1.2,4,5.68886,5.68886,0,0,0,1.2,3.9,4.29337,4.29337,0,0,0,3.4,1.4,4.45861,4.45861,0,0,0,3.5-1.3Zm-6.3-4a5.12877,5.12877,0,0,1,.7-3,2.65808,2.65808,0,0,1,2.1-1,2.459,2.459,0,0,1,2.2,1,4.73835,4.73835,0,0,1,.7,3,5.12877,5.12877,0,0,1-.7,3,2.65629,2.65629,0,0,1-2.2.9,2.33564,2.33564,0,0,1-2.1-.9,5.12854,5.12854,0,0,1-.7-3Zm10.9,5.3h0c.6,0,.9-.1.9-.4v-8.6h1.7c.3,0,.4-.2.4-.6v-.2c0-.4-.1-.6-.4-.6h-1.7v-1.7a1.73744,1.73744,0,0,1,.3-1.2.9078.9078,0,0,1,.7-.3h.7a.43789.43789,0,0,1,.3.1c.1,0,.2-.1.3-.4a1.2683,1.2683,0,0,0,.1-.6q0-.6-1.5-.6a3.68629,3.68629,0,0,0-1.7.5,2.49753,2.49753,0,0,0-.9,2.3v1.9h-.8c-.3,0-.4.2-.4.6v.2c0,.4.1.6.4.6h.8v8.6c0,.2.2.4.8.4Zm5.8-13.1c.5,0,.8-.1.8-.4v-1.2c0-.3-.3-.4-.8-.4h-.2c-.5,0-.8.1-.8.4v1.2c0,.3.3.4.8.4Zm-.2,13.1h0c.6,0,.9-.1.9-.4v-9.7c0-.3-.3-.4-.8-.4h-.1c-.5,0-.8.1-.8.4v9.7c0,.2.3.4.8.4Zm5-.6a2.792,2.792,0,0,0,1.8.6q1.5,0,1.5-.6a1.75941,1.75941,0,0,0-.1-.6c-.1-.2-.2-.4-.3-.4h-.3c-.2,0-.4.1-.6.1-.7,0-1.1-.5-1.1-1.5v-6.2h1.7c.3,0,.4-.2.4-.6v-.2c0-.4-.1-.6-.4-.6h-1.7v-2.1c0-.3-.2-.4-.6-.4h-.2c-.4,0-.6.1-.6.4l-.2,2.1h-1c-.3,0-.4.2-.4.6v.2c0,.4.1.6.4.6h1v6.4a2.36393,2.36393,0,0,0,.7,2.2Zm5.9.6h0c.6,0,.9-.1.9-.4v-7.3l.2-.3a2.16871,2.16871,0,0,1,.7-.6,1.6128,1.6128,0,0,1,.9-.3,1.48278,1.48278,0,0,1,.7.1.75588.75588,0,0,0,.4.1c.1,0,.2-.1.3-.4a1.70174,1.70174,0,0,0,.1-.7.8644.8644,0,0,0-.3-.6,1.99677,1.99677,0,0,0-.9-.2,2.94432,2.94432,0,0,0-2.3,1.5v-.2a.3673.3673,0,0,0-.1-.3c0-.1,0-.1-.1-.2a.34916.34916,0,0,0-.1-.2l-.1-.2-.1-.1h-.3a1.75941,1.75941,0,0,0-.6.1c-.3.1-.4.2-.4.4a4.53027,4.53027,0,0,0,.1.8,7.15564,7.15564,0,0,1,.1,1.7v7a1.30039,1.30039,0,0,0,.9.3Zm6.9-13.1c.5,0,.8-.1.8-.4v-1.2c0-.3-.3-.4-.8-.4h-.2c-.5,0-.8.1-.8.4v1.2c0,.3.3.4.8.4Zm-.1,13.1h0c.6,0,.9-.1.9-.4v-9.7c0-.3-.3-.4-.8-.4h-.1c-.5,0-.8.1-.8.4v9.7c0,.2.2.4.8.4Zm3.7-.4a6.05132,6.05132,0,0,0,2.4.4,3.58335,3.58335,0,0,0,2.4-.9,2.89584,2.89584,0,0,0,1-2.3,2.81707,2.81707,0,0,0-.7-2.1,5.692,5.692,0,0,0-2.5-1.3,3.25636,3.25636,0,0,1-1.2-.6,1.26751,1.26751,0,0,1-.4-.9,1.05018,1.05018,0,0,1,.5-.9,2.50161,2.50161,0,0,1,1.3-.3,2.41011,2.41011,0,0,1,1.5.4c.2.1.2.1.3.1s.3-.1.4-.4a1.07817,1.07817,0,0,0,.2-.7c0-.2-.3-.4-.8-.6a4.84405,4.84405,0,0,0-1.8-.3,3.64893,3.64893,0,0,0-2.4.8,2.51758,2.51758,0,0,0-.9,2,2.44471,2.44471,0,0,0,.6,1.8,4.75271,4.75271,0,0,0,1.9,1,5.12584,5.12584,0,0,1,1.8.8,1.69,1.69,0,0,1,0,2.4,1.844,1.844,0,0,1-1.3.4,4.43774,4.43774,0,0,1-1.3-.2,3.919,3.919,0,0,1-.9-.4,1.237,1.237,0,0,1-.3-.2c-.1,0-.3.1-.5.4a.98745.98745,0,0,0-.2.6c-.1.5.3.8.9,1Zm8.7.4h0c.6,0,.9-.1.9-.4v-4.6h.1l4,4.7c.1.2.5.3,1.1.3h.1q.9,0,.9-.3c0-.1-.1-.2-.2-.3l-4.1-4.9,3.7-4.4a.75809.75809,0,0,0,.2-.4c0-.2-.2-.3-.7-.3h-.1a1.44476,1.44476,0,0,0-1.1.3l-3.8,4.6h-.1v-8.9c0-.3-.3-.4-.8-.4h-.1c-.5,0-.8.1-.8.4v14.2c0,.2.2.39993.8.39993Zm8.9,0h.3c.5,0,.8-.1.8-.4v-1.3c0-.3-.3-.4-.8-.4h-.3c-.5,0-.8.1-.8.4v1.3c0,.2.3.4.8.4Zm10.7-1.3a5.79621,5.79621,0,0,0,1.2-4,5.97175,5.97175,0,0,0-1.2-4,4.82857,4.82857,0,0,0-6.8,0,5.97191,5.97191,0,0,0-1.2,4,5.68886,5.68886,0,0,0,1.2,3.9,4.29337,4.29337,0,0,0,3.4,1.4,4.23692,4.23692,0,0,0,3.4-1.3Zm-6.3-4a5.12877,5.12877,0,0,1,.7-3,2.65808,2.65808,0,0,1,2.1-1,2.459,2.459,0,0,1,2.2,1,4.73835,4.73835,0,0,1,.7,3,5.12877,5.12877,0,0,1-.7,3,2.65629,2.65629,0,0,1-2.2.9,2.33564,2.33564,0,0,1-2.1-.9,6.02982,6.02982,0,0,1-.7-3Zm10.6,5.3h0c.6,0,.9-.1.9-.4v-7.3l.2-.3a2.16871,2.16871,0,0,1,.7-.6,1.6128,1.6128,0,0,1,.9-.3,1.48278,1.48278,0,0,1,.7.1.75588.75588,0,0,0,.4.1c.1,0,.2-.1.3-.4a1.70174,1.70174,0,0,0,.1-.7.8644.8644,0,0,0-.3-.6,1.99677,1.99677,0,0,0-.9-.2,2.94432,2.94432,0,0,0-2.3,1.5v-.2a.3673.3673,0,0,0-.1-.3c0-.1,0-.1-.1-.2a.34916.34916,0,0,0-.1-.2l-.1-.2-.2-.1h-.3a1.75941,1.75941,0,0,0-.6.1c-.3.1-.4.2-.4.4a4.53027,4.53027,0,0,0,.1.8,7.15564,7.15564,0,0,1,.1,1.7v7a1.65678,1.65678,0,0,0,1,.3Zm5.9,3.6a7.66726,7.66726,0,0,0,3.4.6,6.39772,6.39772,0,0,0,3.6-.9,2.51389,2.51389,0,0,0,1.3-2.2,2.40984,2.40984,0,0,0-.7-1.8,3.50463,3.50463,0,0,0-1.7-.9,13.8031,13.8031,0,0,0-2-.3c-.7-.1-1.2-.2-1.7-.3s-.7-.3-.7-.6c0-.5.6-.8,1.7-.8h.2a4.03966,4.03966,0,0,0,3-1,3.40806,3.40806,0,0,0,1.1-2.5,2.63964,2.63964,0,0,0-.7-1.9h1.4c.3,0,.4-.2.4-.6v-.2c0-.4-.1-.6-.4-.6h-3.4a5.28246,5.28246,0,0,0-1.3-.1,4.19479,4.19479,0,0,0-3,1,3.31683,3.31683,0,0,0-1,2.5,3.3228,3.3228,0,0,0,1.8,3,1.77707,1.77707,0,0,0-1.5,1.7c0,.8.4,1.3,1.3,1.7-1.5.5-2.3,1.3-2.3,2.4a2.2195,2.2195,0,0,0,1.2,1.8Zm3.5-12.8c1.5,0,2.2.7,2.2,2s-.8,2-2.2,2-2.2-.7-2.2-2,.7-2,2.2-2Zm-2.3,9.5a6.37531,6.37531,0,0,1,1.4-.8c.2,0,.5.1.8.1a8.42172,8.42172,0,0,1,2.7.7.89071.89071,0,0,1,.5.8c0,.5-.3.8-.8,1.1a4.76728,4.76728,0,0,1-2.2.5c-2,0-3-.5-3-1.4a1.3651,1.3651,0,0,1,.6-1Z"/><path class="cls-10" d="M193.5435,126.23712h.2c.4,0,.6-.2.6-.5v-20.8c0-.4-.2-.5-.6-.5h-.2c-.4,0-.6.2-.6.5v20.8c0,.3.2.5.6.5Z"/><path class="cls-10" d="M15.7435,122.9371h.2c.5,0,.8-.1.8-.4v-6h4.8c.3,0,.4-.2.4-.6v-.4c0-.4-.1-.6-.4-.6h-4.8v-4.6h5.1c.3,0,.4-.2.4-.6v-.3c0-.4-.1-.6-.4-.6h-6.3a.53034.53034,0,0,0-.6.6v13c0,.3.3.5.8.5Zm9.5-13.1c.5,0,.8-.1.8-.4v-1.2c0-.3-.3-.4-.8-.4h-.2c-.5,0-.8.1-.8.4v1.2c0,.3.3.4.8.4Zm-.1,13.1h0c.6,0,.9-.1.9-.4v-9.7c0-.3-.3-.4-.8-.4h-.1c-.5,0-.8.1-.8.4v9.7c0,.2.2.4.8.4Zm4.6,0h0c.6,0,.9-.1.9-.4v-7.3a3.25152,3.25152,0,0,1,2.5-1.4,2.07005,2.07005,0,0,1,1.5.5,1.62433,1.62433,0,0,1,.5,1.4v6.8c0,.3.3.4.8.4h.1c.5,0,.8-.1.8-.4v-7a3.24367,3.24367,0,0,0-.9-2.4,3.32749,3.32749,0,0,0-2.5-.9,3.98349,3.98349,0,0,0-3,1.5.30973.30973,0,0,0-.1-.2.3673.3673,0,0,0-.1-.3c0-.1,0-.1-.1-.2a.34916.34916,0,0,0-.1-.2l-.1-.2-.1-.1h-.3a1.75936,1.75936,0,0,0-.6.1c-.3.1-.4.2-.4.4a4.53027,4.53027,0,0,0,.1.8,7.15564,7.15564,0,0,1,.1,1.7v7a1.17521,1.17521,0,0,0,1,.4Zm16.1-1.2a.3673.3673,0,0,0,.1.3c0,.1,0,.1.1.2a.34916.34916,0,0,0,.1.2l.1.2.1.1h.3a1.75936,1.75936,0,0,0,.6-.1c.3-.1.4-.2.4-.3a4.53027,4.53027,0,0,0-.1-.8,7.62766,7.62766,0,0,1-.1-1.7v-11.6c0-.3-.3-.4-.8-.4h-.1c-.5,0-.8.1-.8.4v5a4.719,4.719,0,0,0-3-1,3.50436,3.50436,0,0,0-2.8,1.4,6.13252,6.13252,0,0,0-1.1,3.8v.2a6.52977,6.52977,0,0,0,1,3.8,3.21886,3.21886,0,0,0,2.8,1.5,4.37935,4.37935,0,0,0,3.2-1.5v.3Zm-4.7-7a2.32783,2.32783,0,0,1,2-1h.1a3.58337,3.58337,0,0,1,2.4.9v5.5a3.59512,3.59512,0,0,1-2.6,1.4c-1.7,0-2.6-1.3-2.6-4a6.33334,6.33334,0,0,1,.7-2.8Zm14.4,7.6a2.792,2.792,0,0,0,1.8.6q1.5,0,1.5-.6a1.75941,1.75941,0,0,0-.1-.6c-.1-.2-.2-.4-.3-.4h-.3c-.2,0-.4.1-.6.1-.7,0-1.1-.5-1.1-1.5v-6.2h1.7c.3,0,.4-.2.4-.6v-.2c0-.4-.1-.6-.4-.6h-1.7v-2.1c0-.3-.2-.4-.6-.4h-.2c-.4,0-.6.1-.6.4l-.2,2.1h-1c-.3,0-.4.2-.4.6v.2c0,.4.1.6.4.6h1v6.4a2.36393,2.36393,0,0,0,.7,2.2Zm6,.6h0c.6,0,.9-.1.9-.4v-7.3l.3-.4a3.5146,3.5146,0,0,1,.9-.7,3.31261,3.31261,0,0,1,1.5-.4,1.72756,1.72756,0,0,1,1.3.5,1.97816,1.97816,0,0,1,.5,1.4v6.8c0,.3.3.4.8.4h.1c.5,0,.8-.1.8-.4v-6.9a3.8079,3.8079,0,0,0-.3-1.6,2.089,2.089,0,0,0-.8-1,3.697,3.697,0,0,0-2.1-.6,4.623,4.623,0,0,0-3.1,1.4v-5.4c0-.3-.3-.4-.8-.4h-.1c-.5,0-.8.1-.8.4v14.2c.1.2.3.4.9.4Zm14,0a6.56667,6.56667,0,0,0,2.5-.4c.7-.3,1.1-.6,1.1-.8a3.934,3.934,0,0,0-.2-.6c-.2-.3-.3-.4-.4-.4l-.4.2a5.42151,5.42151,0,0,1-2.5.6,2.94685,2.94685,0,0,1-2.2-.8,3.79832,3.79832,0,0,1-.9-2.4h6.3a.53584.53584,0,0,0,.4-.3.64637.64637,0,0,0,.2-.5c0-3.5-1.4-5.2-4.2-5.2a4.29337,4.29337,0,0,0-3.4,1.4,6.08157,6.08157,0,0,0-1.2,4.1,5.79609,5.79609,0,0,0,1.2,4,5.6305,5.6305,0,0,0,3.7,1.09995Zm-3.1-6.1c.1-2.1,1.1-3.2,2.8-3.2,1.6,0,2.4,1.1,2.4,3.2Zm16-.3a4.28569,4.28569,0,0,0-2.4,1,2.77546,2.77546,0,0,0-1.1,2.4,2.73643,2.73643,0,0,0,.9,2.3,3.9365,3.9365,0,0,0,2.5.8,4.47827,4.47827,0,0,0,3.4-1.5v.2a.3673.3673,0,0,0,.1.3c0,.1,0,.1.1.2a.34916.34916,0,0,0,.1.2l.1.2.1.1h.3a1.75936,1.75936,0,0,0,.6-.1c.3-.1.4-.2.4-.3a4.53027,4.53027,0,0,0-.1-.8,7.62766,7.62766,0,0,1-.1-1.7v-4.5a2.64355,2.64355,0,0,0-1-2.3,3.95454,3.95454,0,0,0-2.7-.8,7.88545,7.88545,0,0,0-2.8.4c-.8.3-1.2.6-1.2.8a3.934,3.934,0,0,0,.2.6c.2.3.3.4.4.4a4.20415,4.20415,0,0,1,.5-.2,5.95394,5.95394,0,0,1,2.7-.6c1.5,0,2.2.6,2.2,1.7v.9c-1.2.1-2.3.2-3.2.3Zm-.9,1.9c.3-.1.5-.3.8-.4a10.75315,10.75315,0,0,1,3.2-.3v2.4a6.52808,6.52808,0,0,1-1.5,1,4.25543,4.25543,0,0,1-1.7.4c-1.1,0-1.7-.5-1.7-1.6a1.95579,1.95579,0,0,1,.9-1.5Zm9.2,4.5h0c.6,0,.9-.1.9-.4v-7.3a3.25152,3.25152,0,0,1,2.5-1.4,2.07005,2.07005,0,0,1,1.5.5,1.62433,1.62433,0,0,1,.5,1.4v6.8c0,.3.3.4.8.4h.1c.5,0,.8-.1.8-.4v-7a3.24367,3.24367,0,0,0-.9-2.4,3.32749,3.32749,0,0,0-2.5-.9,3.98349,3.98349,0,0,0-3,1.5.30973.30973,0,0,0-.1-.2.3673.3673,0,0,0-.1-.3c0-.1,0-.1-.1-.2a.34916.34916,0,0,0-.1-.2l-.1-.2-.1-.1h-.3a1.75936,1.75936,0,0,0-.6.1c-.3.1-.4.2-.4.4a4.53027,4.53027,0,0,0,.1.8,7.15564,7.15564,0,0,1,.1,1.7v7a1.3329,1.3329,0,0,0,1,.4Zm9.7-.4a6.05128,6.05128,0,0,0,2.4.4,3.58337,3.58337,0,0,0,2.4-.9,2.89589,2.89589,0,0,0,1-2.3,2.81706,2.81706,0,0,0-.7-2.1,5.69205,5.69205,0,0,0-2.5-1.3,3.25613,3.25613,0,0,1-1.2-.6,1.26757,1.26757,0,0,1-.4-.9,1.05015,1.05015,0,0,1,.5-.9,2.50171,2.50171,0,0,1,1.3-.3,2.60417,2.60417,0,0,1,1.5.4c.2.1.2.1.3.1s.3-.1.4-.4a1.07823,1.07823,0,0,0,.2-.7c0-.2-.3-.4-.8-.6a4.84408,4.84408,0,0,0-1.8-.3,3.6489,3.6489,0,0,0-2.4.8,2.51758,2.51758,0,0,0-.9,2,2.44464,2.44464,0,0,0,.6,1.8,4.75282,4.75282,0,0,0,1.9,1,5.12609,5.12609,0,0,1,1.8.8,1.69,1.69,0,0,1,0,2.4,1.8441,1.8441,0,0,1-1.3.4,5.90149,5.90149,0,0,1-1.4-.2,3.91933,3.91933,0,0,1-.9-.4,1.23773,1.23773,0,0,1-.3-.2c-.1,0-.3.1-.5.4a.9875.9875,0,0,0-.2.6c0,.5.4.8,1,1Zm6.7-9.6,2.7,9.6c.1.2.3.3.8.3h.7c.5,0,.7-.1.8-.3l1.9-7.3,1.8,7.3c.1.2.3.3.8.3h.7c.5,0,.7-.1.8-.3l2.7-9.6c0-.1.1-.2.1-.3,0-.2-.3-.3-.8-.3s-.8.1-.9.3l-2.1,8-2.1-8c-.1-.2-.3-.3-.8-.3h-.2c-.5,0-.7.1-.8.3l-2.1,8-2.1-8c-.1-.2-.3-.3-.8-.3h-.2q-.9,0-.9.3a.18747.18747,0,0,0,0,.3Zm19.6,10a6.56672,6.56672,0,0,0,2.5-.4c.7-.3,1.1-.6,1.1-.8a3.93291,3.93291,0,0,0-.2-.6c-.2-.3-.3-.4-.4-.4l-.4.2a5.42147,5.42147,0,0,1-2.5.6,2.94688,2.94688,0,0,1-2.2-.8,3.79841,3.79841,0,0,1-.9-2.4h6.3a.53587.53587,0,0,0,.4-.3.64634.64634,0,0,0,.2-.5c0-3.5-1.4-5.2-4.2-5.2a4.29337,4.29337,0,0,0-3.4,1.4,6.08165,6.08165,0,0,0-1.2,4.1,5.796,5.796,0,0,0,1.2,4,5.63066,5.63066,0,0,0,3.7,1.09995Zm-3.1-6.1c.1-2.1,1.1-3.2,2.8-3.2,1.6,0,2.4,1.1,2.4,3.2Zm9.9,6.1h0c.6,0,.9-.1.9-.4v-7.3l.2-.3a2.16871,2.16871,0,0,1,.7-.6,1.6128,1.6128,0,0,1,.9-.3,1.48278,1.48278,0,0,1,.7.1.75588.75588,0,0,0,.4.1c.1,0,.2-.1.3-.4a1.70174,1.70174,0,0,0,.1-.7.8644.8644,0,0,0-.3-.6,1.99677,1.99677,0,0,0-.9-.2,2.94432,2.94432,0,0,0-2.3,1.5v-.2a.3673.3673,0,0,0-.1-.3c0-.1,0-.1-.1-.2a.34916.34916,0,0,0-.1-.2l-.1-.2-.2-.1h-.3a1.75941,1.75941,0,0,0-.6.1c-.3.1-.4.2-.4.4a4.53027,4.53027,0,0,0,.1.8,7.15564,7.15564,0,0,1,.1,1.7v7a1.96351,1.96351,0,0,0,1,.3Zm11,0h0c.6,0,.9-.1.9-.4v-7.3l.3-.4a3.51487,3.51487,0,0,1,.9-.7,3.31261,3.31261,0,0,1,1.5-.4,2.16779,2.16779,0,0,1,1.4.5,1.97823,1.97823,0,0,1,.5,1.4v6.8c0,.3.3.4.8.4h.1c.5,0,.8-.1.8-.4v-6.9a3.80815,3.80815,0,0,0-.3-1.6,2.08916,2.08916,0,0,0-.8-1,3.697,3.697,0,0,0-2.1-.6,4.623,4.623,0,0,0-3.1,1.4v-5.4c0-.3-.3-.4-.8-.4h-.1c-.5,0-.8.1-.8.4v14.2c0,.2.2.4.8.4Zm14,0a6.56672,6.56672,0,0,0,2.5-.4c.7-.3,1.1-.6,1.1-.8a3.93291,3.93291,0,0,0-.2-.6c-.2-.3-.3-.4-.5-.4l-.4.2a5.42147,5.42147,0,0,1-2.5.6,2.94688,2.94688,0,0,1-2.2-.8,3.79841,3.79841,0,0,1-.9-2.4h6.3a.53587.53587,0,0,0,.4-.3.64634.64634,0,0,0,.2-.5c0-3.5-1.4-5.2-4.2-5.2a4.29337,4.29337,0,0,0-3.4,1.4,6.08165,6.08165,0,0,0-1.2,4.1,5.796,5.796,0,0,0,1.2,4,6.1329,6.1329,0,0,0,3.8,1.09995Zm-3.1-6.1c.1-2.1,1.1-3.2,2.8-3.2,1.6,0,2.4,1.1,2.4,3.2Zm9.9,6.1h0c.6,0,.9-.1.9-.4v-7.3l.2-.3a2.16871,2.16871,0,0,1,.7-.6,1.6128,1.6128,0,0,1,.9-.3,1.48278,1.48278,0,0,1,.7.1.75588.75588,0,0,0,.4.1c.1,0,.2-.1.3-.4a1.70174,1.70174,0,0,0,.1-.7.8644.8644,0,0,0-.3-.6,1.99677,1.99677,0,0,0-.9-.2,2.94432,2.94432,0,0,0-2.3,1.5.30973.30973,0,0,0-.1-.2.3673.3673,0,0,0-.1-.3c0-.1,0-.1-.1-.2a.34916.34916,0,0,0-.1-.2l-.1-.2-.1-.1h-.3a1.75941,1.75941,0,0,0-.6.1c-.3.1-.4.2-.4.4a4.53027,4.53027,0,0,0,.1.8,7.15564,7.15564,0,0,1,.1,1.7v7a1.96351,1.96351,0,0,0,1,.3Zm10.1,0a6.56672,6.56672,0,0,0,2.5-.4c.7-.3,1.1-.6,1.1-.8a3.93291,3.93291,0,0,0-.2-.6c-.2-.3-.3-.4-.4-.4l-.4.2a5.42147,5.42147,0,0,1-2.5.6,2.94688,2.94688,0,0,1-2.2-.8,3.79841,3.79841,0,0,1-.9-2.4h6.3a.53587.53587,0,0,0,.4-.3.64634.64634,0,0,0,.2-.5c0-3.5-1.4-5.2-4.2-5.2a4.29337,4.29337,0,0,0-3.4,1.4,6.08165,6.08165,0,0,0-1.2,4.1,5.796,5.796,0,0,0,1.2,4,5.63072,5.63072,0,0,0,3.7,1.09995Zm-3.1-6.1c.1-2.1,1.1-3.2,2.8-3.2,1.6,0,2.4,1.1,2.4,3.2Z"/><g class="cls-14"><path class="cls-15" d="M.5435.53711h48.6c-19,0-22.5,13.7-23,15.7,22.7,13.8,52.2,31.8,53,32.2h.1c13.5,6.6,17,21.6,17.7,26.1l.2-73.9H.5435"/></g><g class="cls-14"><path class="cls-16" d="M.5435.53711h-.2l.1,94.9v-9.9a32.04774,32.04774,0,0,0,25.8-6.1v-63.2c.4-2,4-15.7,23-15.7H.5435"/></g><g class="cls-14"><path class="cls-17" d="M96.9435,74.4371a7.209,7.209,0,0,0-.2-1.4c-.7-4.4-4-18-17.5-24.6h-.1c-1.5-.7-53,31.1-53,31.1a32.04774,32.04774,0,0,1-25.8,6.1v10.9h96.8l-.2-22.1"/></g><path class="cls-10" d="M178.14351,74.8371a7.2573,7.2573,0,0,0-5.8,2.4c-1.4,1.6-2,3.9-2,6.9s.7,5.3,2.1,6.8,3.5,2.2,6.4,2.2a10.00154,10.00154,0,0,0,4.3-.8,6.012,6.012,0,0,0,1.4-.7,1.01979,1.01979,0,0,0,.5-.8,3.73927,3.73927,0,0,0-.4-1.1c-.3-.5-.6-.7-.9-.7h-.1a6.6531,6.6531,0,0,1-.7.3h0a8.76922,8.76922,0,0,1-4.2,1.1,4.77779,4.77779,0,0,1-3.7-1.3,5.84179,5.84179,0,0,1-1.4-3.9h10.6c.3,0,.5-.2.8-.6a1.62613,1.62613,0,0,0,.4-.9c0-3-.6-5.2-1.8-6.7A7.14182,7.14182,0,0,0,178.14351,74.8371Zm4,7.8h-8.5a6.3307,6.3307,0,0,1,1.3-3.8,4.02244,4.02244,0,0,1,3.3-1.3,3.2365,3.2365,0,0,1,2.9,1.3A6.62442,6.62442,0,0,1,182.14351,82.63712Z"/><path class="cls-10" d="M152.74352,74.8371a6.79682,6.79682,0,0,0-5,2.4v-.2c0-.2-.1-.3-.1-.5,0-.1-.1-.2-.1-.4s-.1-.3-.1-.4h0c-.1-.1-.1-.2-.2-.3h0l-.3-.3h0a.74931.74931,0,0,0-.5-.1,4.40081,4.40081,0,0,0-1,.2,2.18686,2.18686,0,0,0-.5.3.61938.61938,0,0,0-.1.8,5.07188,5.07188,0,0,0,.2.9,17.46724,17.46724,0,0,1,.2,2.9v11.9a.755.755,0,0,0,.4.7,3.08663,3.08663,0,0,0,1.1.2h.1a3.08677,3.08677,0,0,0,1.1-.2.66956.66956,0,0,0,.4-.7v-12.3a5.31008,5.31008,0,0,1,4.1-2.3,3.74217,3.74217,0,0,1,2.5.8,2.86918,2.86918,0,0,1,.9,2.3v11.5a.755.755,0,0,0,.4.7,3.08663,3.08663,0,0,0,1.1.2h.1a3.08677,3.08677,0,0,0,1.1-.2.66956.66956,0,0,0,.4-.7v-11.5a5.59263,5.59263,0,0,0-1.5-4.1A6.88,6.88,0,0,0,152.74352,74.8371Z"/><path class="cls-10" d="M125.74352,88.73712a.3673.3673,0,0,0-.3.1,1.6276,1.6276,0,0,1-.6.3,7.09162,7.09162,0,0,1-2.1.8,8.62775,8.62775,0,0,1-2.8.4,7.38036,7.38036,0,0,1-5.8-2.2c-1.2-1.5-1.9-3.9-1.9-7.1,0-3.3.6-5.6,1.9-7.1s3.2-2.2,5.9-2.2a7.457,7.457,0,0,1,2.6.4,13.05378,13.05378,0,0,1,1.9.7,2.1872,2.1872,0,0,1,.5.3l.2.1h.1c.3,0,.5-.3.8-.8a2.42113,2.42113,0,0,0,.4-1.3.93773.93773,0,0,0-.6-.8,10.74133,10.74133,0,0,0-1.5-.7,13.2665,13.2665,0,0,0-4.5-.7c-3.7,0-6.5,1-8.3,3.1-1.9,2-2.8,5.1-2.8,9.1,0,4.1.9,7.2,2.7,9.2s4.6,3,8.3,3a14.3667,14.3667,0,0,0,4.9-.8c.7-.3,1.2-.6,1.6-.8a1.20936,1.20936,0,0,0,.6-.9,2.50288,2.50288,0,0,0-.5-1.1C126.24352,89.03711,126.0435,88.73712,125.74352,88.73712Z"/><path class="cls-10" d="M195.84349,75.23712a2.41011,2.41011,0,0,0-1.5-.4q-2.1,0-3.9,2.4v-.1c0-.2-.1-.3-.1-.5,0-.1-.1-.2-.1-.4s-.1-.3-.1-.4h0c-.1-.1-.1-.2-.2-.3l-.3-.3h0a.74931.74931,0,0,0-.5-.1,4.40081,4.40081,0,0,0-1,.2,2.18686,2.18686,0,0,0-.5.3.61938.61938,0,0,0-.1.8,5.07188,5.07188,0,0,0,.2.9h0a17.46724,17.46724,0,0,1,.2,2.9v11.9a.755.755,0,0,0,.4.7,3.08663,3.08663,0,0,0,1.1.2h.1a3.08677,3.08677,0,0,0,1.1-.2.66956.66956,0,0,0,.4-.7v-12.3l.4-.5h0a3.64363,3.64363,0,0,1,1.1-1,2.97885,2.97885,0,0,1,1.4-.5,3.72966,3.72966,0,0,1,1.2.2c.4.1.6.2.7.2a.69391.69391,0,0,0,.6-.7,5.01893,5.01893,0,0,0,.2-1.2A2.83617,2.83617,0,0,0,195.84349,75.23712Z"/><path class="cls-10" d="M135.5435,74.8371a7.2573,7.2573,0,0,0-5.8,2.4c-1.4,1.6-2,3.9-2,6.9s.7,5.3,2.1,6.8,3.5,2.2,6.4,2.2a10.00154,10.00154,0,0,0,4.3-.8,6.012,6.012,0,0,0,1.4-.7,1.01979,1.01979,0,0,0,.5-.8,3.73927,3.73927,0,0,0-.4-1.1c-.3-.5-.6-.7-.9-.7h-.1a6.6531,6.6531,0,0,1-.7.3h0a8.76922,8.76922,0,0,1-4.2,1.1,4.77779,4.77779,0,0,1-3.7-1.3,5.84179,5.84179,0,0,1-1.4-3.9h10.6c.3,0,.5-.2.8-.6a1.62613,1.62613,0,0,0,.4-.9c0-3-.6-5.2-1.8-6.7A7.14178,7.14178,0,0,0,135.5435,74.8371Zm4,7.8h-8.5a6.3307,6.3307,0,0,1,1.3-3.8,4.02244,4.02244,0,0,1,3.3-1.3,3.2365,3.2365,0,0,1,2.9,1.3A5.93831,5.93831,0,0,1,139.5435,82.63712Z"/><path class="cls-10" d="M169.14351,90.53711a.51955.51955,0,0,0-.4-.2,1.33809,1.33809,0,0,0-.5.1,3.08264,3.08264,0,0,1-1,.1,1.48565,1.48565,0,0,1-1.3-.6,3.0068,3.0068,0,0,1-.4-1.8v-10.4h2.7a.60472.60472,0,0,0,.6-.3,1.88384,1.88384,0,0,0,.2-.8v-.4a1.54891,1.54891,0,0,0-.2-.8.71271.71271,0,0,0-.6-.3h-2.7v-3.4a.90794.90794,0,0,0-.3-.7,1.88384,1.88384,0,0,0-.8-.2h-.3a1.54891,1.54891,0,0,0-.8.2c-.2.1-.3.4-.4.6h0l-.4,3.4h-1.6a.60472.60472,0,0,0-.6.3,1.88384,1.88384,0,0,0-.2.8v.4a1.54891,1.54891,0,0,0,.2.8.71271.71271,0,0,0,.6.3h1.6v10.7a4.39973,4.39973,0,0,0,1.4,3.7,5.09953,5.09953,0,0,0,3.1,1.1,4.70026,4.70026,0,0,0,1.9-.3,1.06763,1.06763,0,0,0,.7-.9,5.75485,5.75485,0,0,0-.2-1A1.38,1.38,0,0,1,169.14351,90.53711Z"/><path class="cls-10" d="M210.84349,60.8371a18.46376,18.46376,0,0,1-.2-2.9v-7.6a4.89858,4.89858,0,0,0-1.8-4,6.83685,6.83685,0,0,0-4.6-1.4,13.51414,13.51414,0,0,0-4.8.7,5.28686,5.28686,0,0,0-1.5.7,1.01979,1.01979,0,0,0-.5.8,3.73927,3.73927,0,0,0,.4,1.1c.3.5.6.7.9.7h.1c.1-.1.4-.2.7-.4h0a9.47192,9.47192,0,0,1,4.4-1,4.148,4.148,0,0,1,2.7.7,2.26259,2.26259,0,0,1,.9,2v1.5a37.74575,37.74575,0,0,0-5.1.4,8.59931,8.59931,0,0,0-4.2,1.6,4.65352,4.65352,0,0,0-1.9,4.1,5.00543,5.00543,0,0,0,1.6,4.1,6.49347,6.49347,0,0,0,4.3,1.3,7.41255,7.41255,0,0,0,5.6-2.4v.2a4.33055,4.33055,0,0,0,.1.5c0,.1.1.2.1.4s.1.3.1.4.1.2.2.3h0l.3.3a.74931.74931,0,0,0,.5.1,4.40081,4.40081,0,0,0,1-.2,2.18686,2.18686,0,0,0,.5-.3.61938.61938,0,0,0,.1-.8C210.9435,61.53711,210.9435,61.23712,210.84349,60.8371Zm-3.3-2.6a11.80155,11.80155,0,0,1-2.4,1.7,6.08838,6.08838,0,0,1-2.8.6,2.45891,2.45891,0,0,1-2.8-2.7,2.506,2.506,0,0,1,1.3-2.4h0c.5-.2.9-.4,1.3-.6h0a18.03841,18.03841,0,0,1,5.3-.5v3.9Z"/><path class="cls-10" d="M129.24352,40.8371a3.08663,3.08663,0,0,0,1.1.2h.4a3.08677,3.08677,0,0,0,1.1-.2.66956.66956,0,0,0,.4-.7v-2a.755.755,0,0,0-.4-.7,3.08663,3.08663,0,0,0-1.1-.2h-.4a3.08677,3.08677,0,0,0-1.1.2.66956.66956,0,0,0-.4.7v2C128.84349,40.53711,128.9435,40.73712,129.24352,40.8371Z"/><path class="cls-10" d="M131.64351,45.23712a3.08663,3.08663,0,0,0-1.1-.2h-.1a3.08677,3.08677,0,0,0-1.1.2.66956.66956,0,0,0-.4.7v16.3a.755.755,0,0,0,.4.7,3.08663,3.08663,0,0,0,1.1.2h.1a3.08677,3.08677,0,0,0,1.1-.2.66956.66956,0,0,0,.4-.7v-16.3A.66954.66954,0,0,0,131.64351,45.23712Z"/><path class="cls-10" d="M349.84349,61.13712a2.18686,2.18686,0,0,0-.3-.5.51955.51955,0,0,0-.4-.2,1.33809,1.33809,0,0,0-.5.1,3.08264,3.08264,0,0,1-1,.1,1.48565,1.48565,0,0,1-1.3-.6,3.0068,3.0068,0,0,1-.4-1.8v-10.4h2.7a.60472.60472,0,0,0,.6-.3,1.88384,1.88384,0,0,0,.2-.8v-.4a1.54891,1.54891,0,0,0-.2-.8.71271.71271,0,0,0-.6-.3h-2.6v-3.4a.90794.90794,0,0,0-.3-.7,1.88384,1.88384,0,0,0-.8-.2h-.3a1.54891,1.54891,0,0,0-.8.2c-.2.1-.3.4-.4.6h0l-.4,3.4h-1.6a.60472.60472,0,0,0-.6.3,1.88384,1.88384,0,0,0-.2.8v.4a1.54891,1.54891,0,0,0,.2.8.71271.71271,0,0,0,.6.3h1.6v10.7a4.39973,4.39973,0,0,0,1.4,3.7,5.09953,5.09953,0,0,0,3.1,1.1,4.70026,4.70026,0,0,0,1.9-.3,1.06763,1.06763,0,0,0,.7-.9A9.21617,9.21617,0,0,0,349.84349,61.13712Z"/><path class="cls-10" d="M332.9435,44.8371a6.79682,6.79682,0,0,0-5,2.4v-.2c0-.2-.1-.3-.1-.5,0-.1-.1-.2-.1-.4s-.1-.3-.1-.4-.1-.2-.2-.3h0l-.3-.3h0a.74931.74931,0,0,0-.5-.1,4.40081,4.40081,0,0,0-1,.2,2.18686,2.18686,0,0,0-.5.3.61938.61938,0,0,0-.1.8,5.07188,5.07188,0,0,0,.2.9,17.46724,17.46724,0,0,1,.2,2.9v11.9a.755.755,0,0,0,.4.7,3.08663,3.08663,0,0,0,1.1.2h.1a3.08677,3.08677,0,0,0,1.1-.2.66956.66956,0,0,0,.4-.7v-12.3a5.31008,5.31008,0,0,1,4.1-2.3,3.74217,3.74217,0,0,1,2.5.8,2.86918,2.86918,0,0,1,.9,2.3v11.5a.755.755,0,0,0,.4.7,3.08663,3.08663,0,0,0,1.1.2h.1a3.08677,3.08677,0,0,0,1.1-.2.66956.66956,0,0,0,.4-.7v-11.5a5.59263,5.59263,0,0,0-1.5-4.1A7.24076,7.24076,0,0,0,332.9435,44.8371Z"/><path class="cls-10" d="M315.34349,44.8371a7.2573,7.2573,0,0,0-5.8,2.4c-1.4,1.6-2,3.9-2,6.9s.7,5.3,2.1,6.8,3.5,2.2,6.4,2.2a10.00154,10.00154,0,0,0,4.3-.8,6.012,6.012,0,0,0,1.4-.7,1.01979,1.01979,0,0,0,.5-.8,3.73927,3.73927,0,0,0-.4-1.1c-.3-.5-.6-.7-.9-.7h-.1a6.6531,6.6531,0,0,1-.7.3h0a8.76922,8.76922,0,0,1-4.2,1.1,4.77779,4.77779,0,0,1-3.7-1.3,5.84179,5.84179,0,0,1-1.4-3.9h10.6c.3,0,.5-.2.8-.6a1.62613,1.62613,0,0,0,.4-.9c0-3-.6-5.2-1.8-6.7A7.14173,7.14173,0,0,0,315.34349,44.8371Zm4,7.8h-8.5a6.3307,6.3307,0,0,1,1.3-3.8,4.02244,4.02244,0,0,1,3.3-1.3,3.2365,3.2365,0,0,1,2.9,1.3A5.93831,5.93831,0,0,1,319.34349,52.63712Z"/><path class="cls-10" d="M303.14351,45.8371h0a5.98555,5.98555,0,0,0-3.5-1,6.772,6.772,0,0,0-5.3,2.7c-.8-1.8-2.5-2.7-4.9-2.7a6.83761,6.83761,0,0,0-5.1,2.4v-.2c0-.2-.1-.3-.1-.5,0-.1-.1-.2-.1-.4s-.1-.3-.1-.4h0c0-.1-.1-.2-.2-.3l-.3-.3h0a.74931.74931,0,0,0-.5-.1,4.40081,4.40081,0,0,0-1,.2,2.18686,2.18686,0,0,0-.5.3.61938.61938,0,0,0-.1.8,5.07188,5.07188,0,0,0,.2.9,17.46724,17.46724,0,0,1,.2,2.9v11.9a.755.755,0,0,0,.4.7,3.08663,3.08663,0,0,0,1.1.2h.1a3.08677,3.08677,0,0,0,1.1-.2.66956.66956,0,0,0,.4-.7v-12.4l.5-.5h0a4.89761,4.89761,0,0,1,1.5-1.2,4.383,4.383,0,0,1,2.3-.6,3.0369,3.0369,0,0,1,2.1.8,3.37443,3.37443,0,0,1,.8,2.3v11.5a.755.755,0,0,0,.4.7,3.08663,3.08663,0,0,0,1.1.2h.1a3.08677,3.08677,0,0,0,1.1-.2.66956.66956,0,0,0,.4-.7V49.8371c1.4-1.5,2.7-2.3,4-2.3a3.19894,3.19894,0,0,1,2.3.8,3.37443,3.37443,0,0,1,.8,2.3v11.5a.755.755,0,0,0,.4.7,3.08663,3.08663,0,0,0,1.1.2h.1a3.08677,3.08677,0,0,0,1.1-.2.66956.66956,0,0,0,.4-.7v-11.6a7.7818,7.7818,0,0,0-.5-2.8A8.34023,8.34023,0,0,0,303.14351,45.8371Z"/><path class="cls-10" d="M149.0435,62.9371a3.08663,3.08663,0,0,0,1.1.2h.1a3.08677,3.08677,0,0,0,1.1-.2.66956.66956,0,0,0,.4-.7v-7.5l6.7,7.9a2.70051,2.70051,0,0,0,1.9.5h.1a4.12071,4.12071,0,0,0,1.2-.1c.3-.1.5-.2.5-.5a.8644.8644,0,0,0-.3-.6h0l-6.9-8.2,6.2-7.4h0c.2-.3.4-.5.4-.8a.43015.43015,0,0,0-.4-.4,2.21951,2.21951,0,0,0-.9-.1h-.20007c-1,0-1.6.1-1.9.5h0l-6.4,7.6v-14.9a.755.755,0,0,0-.4-.7,3.08663,3.08663,0,0,0-1.1-.2h-.1a3.08677,3.08677,0,0,0-1.1.2.66956.66956,0,0,0-.4.7v24A.7549.7549,0,0,0,149.0435,62.9371Z"/><path class="cls-10" d="M222.14351,44.8371a6.79682,6.79682,0,0,0-5,2.4v-.2c0-.2-.1-.3-.1-.5,0-.1-.1-.2-.1-.4h0c0-.2-.1-.3-.1-.4h0c0-.1-.1-.2-.2-.3l-.3-.3h0a.74931.74931,0,0,0-.5-.1,4.40081,4.40081,0,0,0-1,.2,2.18686,2.18686,0,0,0-.5.3.61938.61938,0,0,0-.1.8,5.07188,5.07188,0,0,0,.2.9,17.46724,17.46724,0,0,1,.2,2.9v11.9a.755.755,0,0,0,.4.7,3.08663,3.08663,0,0,0,1.1.2h.1a3.08677,3.08677,0,0,0,1.1-.2.66956.66956,0,0,0,.4-.7v-12.3a5.31008,5.31008,0,0,1,4.1-2.3,3.74217,3.74217,0,0,1,2.5.8,2.86918,2.86918,0,0,1,.9,2.3v11.5a.755.755,0,0,0,.4.7,3.08663,3.08663,0,0,0,1.1.2h.1a3.08677,3.08677,0,0,0,1.1-.2.66956.66956,0,0,0,.4-.7v-11.5a5.59263,5.59263,0,0,0-1.5-4.1A7.05675,7.05675,0,0,0,222.14351,44.8371Z"/><path class="cls-10" d="M271.74352,44.8371a7.2573,7.2573,0,0,0-5.8,2.4c-1.4,1.6-2,3.9-2,6.9s.7,5.3,2.1,6.8,3.5,2.2,6.4,2.2a10.00154,10.00154,0,0,0,4.3-.8,6.012,6.012,0,0,0,1.4-.7,1.01979,1.01979,0,0,0,.5-.8,3.73927,3.73927,0,0,0-.4-1.1c-.3-.5-.6-.7-.9-.7h-.1a6.6531,6.6531,0,0,1-.7.3h0a8.76922,8.76922,0,0,1-4.2,1.1,4.77779,4.77779,0,0,1-3.7-1.3,5.84179,5.84179,0,0,1-1.4-3.9h10.6c.3,0,.5-.2.8-.6a1.62613,1.62613,0,0,0,.4-.9c0-3-.6-5.2-1.8-6.7A6.99384,6.99384,0,0,0,271.74352,44.8371Zm4.1,7.8h-8.5a6.3307,6.3307,0,0,1,1.3-3.8,4.02244,4.02244,0,0,1,3.3-1.3,3.2365,3.2365,0,0,1,2.9,1.3A7.50806,7.50806,0,0,1,275.84349,52.63712Z"/><path class="cls-10" d="M175.14351,39.73712a1.5786,1.5786,0,0,0-1.5-.7h-1.2a3.08677,3.08677,0,0,0-1.1.2.66956.66956,0,0,0-.4.7v22.3a.755.755,0,0,0,.4.7,3.08663,3.08663,0,0,0,1.1.2h.2a3.08677,3.08677,0,0,0,1.1-.2.66956.66956,0,0,0,.4-.7v-17.9l6.7,11.6h0a1.05022,1.05022,0,0,0,.9.5h1.4a1.05018,1.05018,0,0,0,.9-.5h0l6.6-11.4v17.7a.755.755,0,0,0,.4.7,3.08663,3.08663,0,0,0,1.1.2h.2a3.08677,3.08677,0,0,0,1.1-.2.66956.66956,0,0,0,.4-.7v-22.3a.755.755,0,0,0-.4-.7,3.08663,3.08663,0,0,0-1.1-.2h-1.1c-.7,0-1.3.2-1.5.7l-6.4,11.3-.8,1.7-.8-1.9-6.6-11.1Z"/><path class="cls-10" d="M144.84349,54.13712a11.03523,11.03523,0,0,0-4.4-2.2,5.2877,5.2877,0,0,1-2-1,1.678,1.678,0,0,1-.6-1.4,1.51315,1.51315,0,0,1,.7-1.4,3.39817,3.39817,0,0,1,2.2-.6,5.13535,5.13535,0,0,1,2.5.6h0c.1.1.2.1.3.2h.2c.3,0,.5-.3.8-.8a2.38472,2.38472,0,0,0,.4-1.2.72313.72313,0,0,0-.4-.6,3.83248,3.83248,0,0,0-1.1-.5,10.12486,10.12486,0,0,0-3.1-.4,5.98414,5.98414,0,0,0-4.1,1.4,4.31217,4.31217,0,0,0-1.6,3.5,3.80925,3.80925,0,0,0,1.1,3.1,8.414,8.414,0,0,0,3.3,1.7,8.64636,8.64636,0,0,1,3,1.3,2.48949,2.48949,0,0,1,.7,1.9,2.79215,2.79215,0,0,1-.8,2,2.97135,2.97135,0,0,1-2.1.7,6.87334,6.87334,0,0,1-2.2-.3,6.44576,6.44576,0,0,1-1.4-.6c-.2-.1-.3-.2-.4-.2l-.1-.1h-.1c-.3,0-.6.3-.9.7a2.10691,2.10691,0,0,0-.4,1.1c0,.3.2.5.5.8a5.04483,5.04483,0,0,0,1.3.7,10.049,10.049,0,0,0,4.1.7,5.57713,5.57713,0,0,0,4.1-1.6,5.281,5.281,0,0,0,1.7-4A4.79442,4.79442,0,0,0,144.84349,54.13712Z"/><path class="cls-10" d="M262.5435,45.03711h-5.8a14.97807,14.97807,0,0,0-2.2-.2,7.29314,7.29314,0,0,0-5.1,1.7,5.661,5.661,0,0,0-1.8,4.3,6.806,6.806,0,0,0,.8,3.1,5.77518,5.77518,0,0,0,2.1,2c-1.6.6-2.4,1.5-2.4,2.8a3.06164,3.06164,0,0,0,2,2.8c-2.4.9-3.6,2.3-3.6,4.1a3.47075,3.47075,0,0,0,2.1,3.5,13.33512,13.33512,0,0,0,5.9,1,10.79263,10.79263,0,0,0,6.1-1.5,4.57253,4.57253,0,0,0,2.3-3.9,4.302,4.302,0,0,0-1.2-3.1,5.42332,5.42332,0,0,0-2.9-1.5c-1.1-.2-2.2-.4-3.4-.6a9.75455,9.75455,0,0,1-2.8-.6,1.91461,1.91461,0,0,1-.8-.4c-.2-.2-.3-.3-.3-.5a.92807.92807,0,0,1,.7-.9,5.57963,5.57963,0,0,1,2.1-.4h.3a7.29314,7.29314,0,0,0,5.1-1.7,5.661,5.661,0,0,0,1.8-4.3,4.8049,4.8049,0,0,0-1-3.1h2.1a.60472.60472,0,0,0,.6-.3,1.88384,1.88384,0,0,0,.2-.8v-.4a1.54891,1.54891,0,0,0-.2-.8A1.49356,1.49356,0,0,0,262.5435,45.03711Zm-9.6,17.3c.3.1.8.1,1.4.2h0a18.01791,18.01791,0,0,1,4.6,1.1h0a1.30579,1.30579,0,0,1,.7,1.2,2.07462,2.07462,0,0,1-1.3,1.8,7.38154,7.38154,0,0,1-3.6.8,9.39981,9.39981,0,0,1-3.8-.6,1.76891,1.76891,0,0,1-1.2-1.6,2.08685,2.08685,0,0,1,1-1.7A9.05212,9.05212,0,0,1,252.9435,62.3371Zm4.4-9a5.3,5.3,0,0,1-5.6,0,3.04222,3.04222,0,0,1-.9-2.5,3.32749,3.32749,0,0,1,.9-2.5,5.3,5.3,0,0,1,5.6,0,3.04222,3.04222,0,0,1,.9,2.5A3.32733,3.32733,0,0,1,257.34349,53.3371Z"/><path class="cls-10" d="M244.74352,60.8371a18.46376,18.46376,0,0,1-.2-2.9v-7.6a4.89858,4.89858,0,0,0-1.8-4,6.83685,6.83685,0,0,0-4.6-1.4,13.51414,13.51414,0,0,0-4.8.7,5.28686,5.28686,0,0,0-1.5.7,1.01979,1.01979,0,0,0-.5.8,3.73927,3.73927,0,0,0,.4,1.1c.3.5.6.7.9.7h.1c.1-.1.4-.2.7-.4h0a9.47192,9.47192,0,0,1,4.4-1,4.148,4.148,0,0,1,2.7.7,2.26259,2.26259,0,0,1,.9,2v1.5a37.74575,37.74575,0,0,0-5.1.4,8.59931,8.59931,0,0,0-4.2,1.6,4.65352,4.65352,0,0,0-1.9,4.1,5.00543,5.00543,0,0,0,1.6,4.1,6.49347,6.49347,0,0,0,4.3,1.3,7.41255,7.41255,0,0,0,5.6-2.4v.2a4.33055,4.33055,0,0,0,.1.5c0,.1.1.2.1.4s.1.3.1.4h0c0,.1.1.2.2.3h0l.3.3a.74931.74931,0,0,0,.5.1,4.40081,4.40081,0,0,0,1-.2,2.18686,2.18686,0,0,0,.5-.3.61938.61938,0,0,0,.1-.8C244.84349,61.53711,244.84349,61.23712,244.74352,60.8371Zm-3.3-2.6a11.80155,11.80155,0,0,1-2.4,1.7,6.08838,6.08838,0,0,1-2.8.6,2.45891,2.45891,0,0,1-2.8-2.7,2.506,2.506,0,0,1,1.3-2.4h0c.5-.2.9-.4,1.3-.6h0a18.03841,18.03841,0,0,1,5.3-.5v3.9Z"/><path class="cls-10" d="M127.14351,61.9371l-2.6-6.7h0a15.77816,15.77816,0,0,0-1.4-2.9,3.32284,3.32284,0,0,0-1.6-1.3,5.82455,5.82455,0,0,0,3.9-5.8,5.42086,5.42086,0,0,0-2.1-4.7,10.70708,10.70708,0,0,0-6.2-1.5h-5.7a.98437.98437,0,0,0-.8.3,1.13553,1.13553,0,0,0-.3.8v22a.755.755,0,0,0,.4.7,3.0867,3.0867,0,0,0,1.1.2h.3a3.0867,3.0867,0,0,0,1.1-.2.66954.66954,0,0,0,.4-.7v-9.6h2.9a5.27381,5.27381,0,0,1,3.1.7,4.94944,4.94944,0,0,1,1.8,2.6l2.6,6.6h0a1.205,1.205,0,0,0,.5.5,2.78656,2.78656,0,0,0,1,.1h.3a3.42034,3.42034,0,0,0,1.1-.1.51031.51031,0,0,0,.4-.5c-.1-.1-.1-.3-.2-.5Zm-13.7-20h4.1a4.82592,4.82592,0,0,1,3.3,1,3.15972,3.15972,0,0,1,1.2,2.7,4.10123,4.10123,0,0,1-4.2,4.2h-4.3v-7.9Z"/><path class="cls-10" d="M183.5435,15.4371a17.46724,17.46724,0,0,1,.2,2.9v11.9a.755.755,0,0,0,.4.7,3.08663,3.08663,0,0,0,1.1.2h.1a3.08677,3.08677,0,0,0,1.1-.2.66956.66956,0,0,0,.4-.7v-12.3l.4-.5h0a3.64363,3.64363,0,0,1,1.1-1,2.97885,2.97885,0,0,1,1.4-.5,3.72966,3.72966,0,0,1,1.2.2h0c.4.1.6.2.7.2a.69391.69391,0,0,0,.6-.7,5.01893,5.01893,0,0,0,.2-1.2,1.0999,1.0999,0,0,0-.6-1,2.41011,2.41011,0,0,0-1.5-.4q-2.1,0-3.9,2.4v-.1c0-.2-.1-.3-.1-.5,0-.1-.1-.2-.1-.4s-.1-.3-.1-.4-.1-.2-.2-.3h0l-.3-.3a.74931.74931,0,0,0-.5-.1,4.40081,4.40081,0,0,0-1,.2,2.18686,2.18686,0,0,0-.5.3.61938.61938,0,0,0-.1.8C183.4435,14.73712,183.4435,15.03711,183.5435,15.4371Z"/><path class="cls-10" d="M220.5435,8.8371a3.08663,3.08663,0,0,0,1.1.2h.4a3.08677,3.08677,0,0,0,1.1-.2.66956.66956,0,0,0,.4-.7v-2a.755.755,0,0,0-.4-.7,3.08663,3.08663,0,0,0-1.1-.2h-.4a3.08677,3.08677,0,0,0-1.1.2.66956.66956,0,0,0-.4.7v2C220.14351,8.53711,220.24352,8.73712,220.5435,8.8371Z"/><path class="cls-10" d="M200.84349,31.23712a7.23854,7.23854,0,0,0,5.8-2.3,10.40323,10.40323,0,0,0,2-6.8,10.40317,10.40317,0,0,0-2-6.8,7.12107,7.12107,0,0,0-5.8-2.4,7.47056,7.47056,0,0,0-5.9,2.4,10.0614,10.0614,0,0,0-2.1,6.8,10.59366,10.59366,0,0,0,2,6.8A7.83186,7.83186,0,0,0,200.84349,31.23712Zm-3.6-14.1a4.06559,4.06559,0,0,1,3.5-1.6,4.12881,4.12881,0,0,1,3.6,1.6,8.02426,8.02426,0,0,1,1.2,4.9,8.024,8.024,0,0,1-1.2,4.9,4.26109,4.26109,0,0,1-3.6,1.6,3.83367,3.83367,0,0,1-3.5-1.6,8.86819,8.86819,0,0,1-1.1-4.9C196.14351,19.83713,196.4435,18.13712,197.24352,17.13712Z"/><path class="cls-10" d="M222.9435,13.23712a3.08663,3.08663,0,0,0-1.1-.2h-.1a3.08677,3.08677,0,0,0-1.1.2.66956.66956,0,0,0-.4.7v16.3a.755.755,0,0,0,.4.7,3.08663,3.08663,0,0,0,1.1.2h.1a3.08677,3.08677,0,0,0,1.1-.2.66956.66956,0,0,0,.4-.7v-16.3A.6695.6695,0,0,0,222.9435,13.23712Z"/><path class="cls-10" d="M139.0435,31.23712a7.23854,7.23854,0,0,0,5.8-2.3,10.40323,10.40323,0,0,0,2-6.8,10.40317,10.40317,0,0,0-2-6.8,7.12107,7.12107,0,0,0-5.8-2.4,7.47056,7.47056,0,0,0-5.9,2.4,10.0614,10.0614,0,0,0-2.1,6.8,10.59366,10.59366,0,0,0,2,6.8A8.14091,8.14091,0,0,0,139.0435,31.23712Zm-3.6-14.1a4.06559,4.06559,0,0,1,3.5-1.6,4.12881,4.12881,0,0,1,3.6,1.6,8.02426,8.02426,0,0,1,1.2,4.9,8.024,8.024,0,0,1-1.2,4.9,4.26109,4.26109,0,0,1-3.6,1.6,3.83367,3.83367,0,0,1-3.5-1.6,8.86819,8.86819,0,0,1-1.1-4.9A8.86846,8.86846,0,0,1,135.4435,17.13712Z"/><path class="cls-10" d="M214.9435,30.23712v-14.5h2.8a.60472.60472,0,0,0,.6-.3,1.88384,1.88384,0,0,0,.2-.8v-.4a1.54891,1.54891,0,0,0-.2-.8.71271.71271,0,0,0-.6-.3h-2.8v-2.8a3.54047,3.54047,0,0,1,.4-1.9,1.60589,1.60589,0,0,1,1.1-.5,3.10981,3.10981,0,0,1,1.1.1,1.33809,1.33809,0,0,0,.5.1.75809.75809,0,0,0,.4-.2,2.18468,2.18468,0,0,0,.3-.5,5.75485,5.75485,0,0,0,.2-1,1.06755,1.06755,0,0,0-.7-.9,4.69973,4.69973,0,0,0-1.9-.3,6.02627,6.02627,0,0,0-2.9.8h0c-1.1.7-1.6,2-1.6,4v3.1h-1.2a.60472.60472,0,0,0-.6.3,1.88384,1.88384,0,0,0-.2.8v.4a1.54891,1.54891,0,0,0,.2.8.71271.71271,0,0,0,.6.3h1.2v14.5a.755.755,0,0,0,.4.7,3.08663,3.08663,0,0,0,1.1.2h.1a3.08677,3.08677,0,0,0,1.1-.2A.755.755,0,0,0,214.9435,30.23712Z"/><path class="cls-10" d="M234.14351,30.9371a1.06763,1.06763,0,0,0,.7-.9,5.75485,5.75485,0,0,0-.2-1,2.18686,2.18686,0,0,0-.3-.5.51955.51955,0,0,0-.4-.2,1.33809,1.33809,0,0,0-.5.1,3.08264,3.08264,0,0,1-1,.1,1.48565,1.48565,0,0,1-1.3-.6,3.0068,3.0068,0,0,1-.4-1.8v-10.4h2.7a.60472.60472,0,0,0,.6-.3,1.88384,1.88384,0,0,0,.2-.8v-.4a1.54891,1.54891,0,0,0-.2-.8.71271.71271,0,0,0-.6-.3h-2.7v-3.4a.90794.90794,0,0,0-.3-.7,1.88384,1.88384,0,0,0-.8-.2h-.3a1.54891,1.54891,0,0,0-.8.2c-.2.1-.3.4-.4.6h0l-.4,3.4h-1.6a.60472.60472,0,0,0-.6.3,1.88384,1.88384,0,0,0-.2.8v.4a1.54891,1.54891,0,0,0,.2.8.71271.71271,0,0,0,.6.3h1.6v10.7a4.39973,4.39973,0,0,0,1.4,3.7,5.09953,5.09953,0,0,0,3.1,1.1A3.56833,3.56833,0,0,0,234.14351,30.9371Z"/><path class="cls-10" d="M149.24352,15.4371a17.46724,17.46724,0,0,1,.2,2.9v11.9a.755.755,0,0,0,.4.7,3.08663,3.08663,0,0,0,1.1.2h.1a3.08677,3.08677,0,0,0,1.1-.2.66956.66956,0,0,0,.4-.7v-12.3a5.31008,5.31008,0,0,1,4.1-2.3,3.74217,3.74217,0,0,1,2.5.8,2.86918,2.86918,0,0,1,.9,2.3v11.5a.755.755,0,0,0,.4.7,3.08663,3.08663,0,0,0,1.1.2h.1a3.08677,3.08677,0,0,0,1.1-.2.66956.66956,0,0,0,.4-.7v-11.7a5.59263,5.59263,0,0,0-1.5-4.1,6.01636,6.01636,0,0,0-4.4-1.5,6.79682,6.79682,0,0,0-5,2.4v-.2c0-.2-.1-.3-.1-.5,0-.1-.1-.2-.1-.4h0c0-.2-.1-.3-.1-.4h0c0-.1-.1-.2-.2-.3h0l-.3-.3h0a.74931.74931,0,0,0-.5-.1,4.40081,4.40081,0,0,0-1,.2,2.18686,2.18686,0,0,0-.5.3.61938.61938,0,0,0-.1.8C149.0435,14.73712,149.14351,15.03711,149.24352,15.4371Z"/><path class="cls-10" d="M166.0435,15.4371a17.46724,17.46724,0,0,1,.2,2.9v18.8a.755.755,0,0,0,.4.7,3.08663,3.08663,0,0,0,1.1.2h.1a3.08677,3.08677,0,0,0,1.1-.2.66956.66956,0,0,0,.4-.7v-7.6a8.07365,8.07365,0,0,0,5,1.6,5.83037,5.83037,0,0,0,4.8-2.4,10.16993,10.16993,0,0,0,1.9-6.6v-.3a11.08053,11.08053,0,0,0-1.8-6.5,5.69283,5.69283,0,0,0-4.9-2.6,7.249,7.249,0,0,0-5.3,2.4v-.2c0-.2-.1-.3-.1-.5,0-.1-.1-.2-.1-.4s-.1-.3-.1-.4-.1-.2-.2-.3h0l-.3-.3h0a.74931.74931,0,0,0-.5-.1,4.40081,4.40081,0,0,0-1,.2,2.18686,2.18686,0,0,0-.5.3.61938.61938,0,0,0-.1.8A1.708,1.708,0,0,0,166.0435,15.4371Zm7.4,13h-.2a6.03451,6.03451,0,0,1-4-1.5v-9.2c1.4-1.5,2.8-2.3,4.2-2.3a3.60955,3.60955,0,0,1,3.2,1.7,9.60837,9.60837,0,0,1,1.1,4.9,8.579,8.579,0,0,1-1.1,4.7A3.41287,3.41287,0,0,1,173.4435,28.4371Z"/><path class="cls-10" d="M110.4435,30.9371a3.0867,3.0867,0,0,0,1.1.2h.2a3.0867,3.0867,0,0,0,1.1-.2.66954.66954,0,0,0,.4-.7v-17.8l.7,1.3,11.1,16.8h0c.2.4.7.5,1.3.5h.7a3.08677,3.08677,0,0,0,1.1-.2.66956.66956,0,0,0,.4-.7v-22.3a.755.755,0,0,0-.4-.7,3.08663,3.08663,0,0,0-1.1-.2h-.2a3.08677,3.08677,0,0,0-1.1.2.66956.66956,0,0,0-.4.7v17.7l-.8-1.5-10.8-16.3h0a1.68255,1.68255,0,0,0-1.5-.7h-.7a3.0867,3.0867,0,0,0-1.1.2.66954.66954,0,0,0-.4.7v22.3C109.9435,30.53711,110.14351,30.73712,110.4435,30.9371Z"/></svg>