<svg xmlns="http://www.w3.org/2000/svg" xmlns:xlink="http://www.w3.org/1999/xlink" viewBox="0 0 349.52341 94.87213" preserveAspectRatio="xMidYMid meet"><defs><style>.a{fill:#231f20;}.b{fill:#0081c6;}.c{fill:#fff;}.d{fill:url(#a);}.e{fill:url(#b);}.f{fill:none;}.g{fill:url(#c);}</style><linearGradient id="a" x1="106.61956" y1="41.67668" x2="30.57389" y2="-2.22831" gradientUnits="userSpaceOnUse"><stop offset="0" stop-color="#6cb33f"/><stop offset="0.5" stop-color="#6cb33f"/><stop offset="0.71433" stop-color="#6ab13e"/><stop offset="0.79154" stop-color="#65aa3b"/><stop offset="0.84658" stop-color="#5b9f35"/><stop offset="0.89107" stop-color="#4d8e2c"/><stop offset="0.92916" stop-color="#3a7822"/><stop offset="0.96289" stop-color="#235c14"/><stop offset="0.99269" stop-color="#093d04"/><stop offset="1" stop-color="#013400"/></linearGradient><linearGradient id="b" x1="1.60709" y1="3.18758" x2="42.15435" y2="73.41749" gradientUnits="userSpaceOnUse"><stop offset="0" stop-color="#f8971d"/><stop offset="0.5" stop-color="#f8971d"/><stop offset="0.70237" stop-color="#f6961d"/><stop offset="0.77526" stop-color="#ef911c"/><stop offset="0.82723" stop-color="#e48a19"/><stop offset="0.86925" stop-color="#d37f17"/><stop offset="0.90527" stop-color="#bd7113"/><stop offset="0.93711" stop-color="#a15f0e"/><stop offset="0.96594" stop-color="#814a09"/><stop offset="0.99156" stop-color="#5d3302"/><stop offset="1" stop-color="#4f2a00"/></linearGradient><linearGradient id="c" x1="26.03262" y1="111.67983" x2="83.22087" y2="43.52552" gradientUnits="userSpaceOnUse"><stop offset="0" stop-color="#0081c6"/><stop offset="0.5" stop-color="#0081c6"/><stop offset="0.70285" stop-color="#0080c4"/><stop offset="0.77592" stop-color="#007abd"/><stop offset="0.82801" stop-color="#0071b2"/><stop offset="0.87013" stop-color="#0064a1"/><stop offset="0.90623" stop-color="#00538b"/><stop offset="0.93819" stop-color="#003e6f"/><stop offset="0.96709" stop-color="#00254f"/><stop offset="0.99278" stop-color="#00092b"/><stop offset="1" stop-color="#00001f"/></linearGradient></defs><title>nrmc_logo</title><path class="a" d="M177.56148,74.34471a7.19872,7.19872,0,0,0-5.7802,2.3789c-1.3575,1.5899-2.0274,3.9063-2.0274,6.9336,0,3.0293.6807,5.30279,2.0645,6.80279,1.3847,1.5,3.5117,2.24021,6.3525,2.24021a11.404,11.404,0,0,0,4.2939-.7539,6.14312,6.14312,0,0,0,1.41221-.7442,1.06731,1.06731,0,0,0,.50969-.7929,2.33506,2.33506,0,0,0-.4424-1.0821c-.292-.457-.5517-.7246-.8672-.7343l-.1162.0293c-.1162.0468-.3291.1523-.6523.3222l-.002.002h-.0009a8.35476,8.35476,0,0,1-4.169,1.0664,4.8144,4.8144,0,0,1-3.665-1.2793,6.33932,6.33932,0,0,1-1.4053-3.918h10.5518c.2822-.0078.5302-.2226.8115-.5918a1.73316,1.73316,0,0,0,.4307-.9199c0-2.9609-.5997-5.1992-1.8223-6.7031A6.64681,6.64681,0,0,0,177.56148,74.34471Zm4.0313,7.7832h-8.5264a6.40538,6.40538,0,0,1,1.3232-3.8008,4.13383,4.13383,0,0,1,3.2725-1.2949,3.45886,3.45886,0,0,1,2.9463,1.2871A6.37014,6.37014,0,0,1,181.59278,82.12791Z" transform="translate(0.00002)"/><path class="a" d="M152.23238,74.34471a6.73265,6.73265,0,0,0-4.9902,2.4121c-.0098-.04881-.0195-.0947-.0313-.1582a3.09135,3.09135,0,0,0-.1054-.459c-.0323-.09761-.0703-.2304-.1162-.3984a2.84886,2.84886,0,0,0-.1416-.4238v-.002a1.69834,1.69834,0,0,0-.2012-.33h-.001a.87676.87676,0,0,0-.2949-.254h-.001a1.30469,1.30469,0,0,0-.5469-.082,4.091,4.091,0,0,0-1.0332.1914,1.34816,1.34816,0,0,0-.5322.2696.586.586,0,0,0-.2002.4433,3.99566,3.99566,0,0,0,.0606.4024c.04.2207.0986.5351.1777.9414a17.5588,17.5588,0,0,1,.167,2.9199v11.8769a.727.727,0,0,0,.4033.668,2.29115,2.29115,0,0,0,1.0762.2031h.1347a2.29384,2.29384,0,0,0,1.0762-.2031.72622.72622,0,0,0,.4024-.668V79.35451a5.16863,5.16863,0,0,1,4.1386-2.2891,3.42494,3.42494,0,0,1,2.4688.8282,3.07409,3.07409,0,0,1,.85741,2.33v11.4707a.727.727,0,0,0,.40329.668,2.2914,2.2914,0,0,0,1.0762.2031h.1348a2.28823,2.28823,0,0,0,1.0761-.2031.72712.72712,0,0,0,.4034-.668V79.95211a5.529,5.529,0,0,0-1.50979-4.1152A5.93754,5.93754,0,0,0,152.23238,74.34471Z" transform="translate(0.00002)"/><path class="a" d="M125.17868,88.18651a.91055.91055,0,0,0-.3183.1192c-.1456.0722-.3409.1777-.5899.32029a10.88591,10.88591,0,0,1-2.0742.834,9.41555,9.41555,0,0,1-2.8389.41791c-2.6406-.00191-4.5625-.75191-5.8086-2.2383-1.2461-1.4882-1.88279-3.8613-1.88279-7.1289s.64259-5.63471,1.89849-7.1093c1.2568-1.4766,3.2207-2.2227,5.9296-2.2246a8.87558,8.87558,0,0,1,2.6026.3671,9.8239,9.8239,0,0,1,1.8525.7344q.33105.1875.5156.2813l.1524.0742.1211.03319c.3086-.01759.543-.30659.8359-.80859a2.75427,2.75427,0,0,0,.4395-1.2793,1.0531,1.0531,0,0,0-.55669-.8086,6.42,6.42,0,0,0-1.541-.7148,13.73567,13.73567,0,0,0-4.49021-.6993c-3.67579-.0019-6.459,1.0118-8.3164,3.0528-1.8555,2.039-2.7735,5.0859-2.7735,9.1191,0,4.1446.8877,7.2188,2.6895,9.2031,1.8027,1.9864,4.5898,2.9688,8.332,2.9688a13.48708,13.48708,0,0,0,4.93561-.8379,6.97277,6.97277,0,0,0,1.61719-.832,1.19778,1.19778,0,0,0,.5771-.8926,2.65121,2.65121,0,0,0-.457-1.1465C125.72558,88.49121,125.48628,88.20211,125.17868,88.18651Z" transform="translate(0.00002)"/><path class="a" d="M195.333,74.74121a2.57061,2.57061,0,0,0-1.52831-.3965c-1.4102,0-2.7002.8145-3.8643,2.376-.0078-.04-.0146-.0732-.02339-.1221a3.36759,3.36759,0,0,0-.10551-.459q-.0498-.14641-.1172-.3984a2.83731,2.83731,0,0,0-.1416-.4238v-.002a1.69729,1.69729,0,0,0-.2011-.33.899.899,0,0,0-.2959-.254h-.001a1.30246,1.30246,0,0,0-.5459-.082,4.06115,4.06115,0,0,0-1.0332.1914,1.33914,1.33914,0,0,0-.5332.2696.59007.59007,0,0,0-.2012.4433c.002.0625.0225.1777.0615.4024.0401.2207.0987.5351.1787.9414v.0019l-.0009-.0019a17.46973,17.46973,0,0,1,.167,2.9199v11.8769a.72448.72448,0,0,0,.4043.668,2.28394,2.28394,0,0,0,1.07521.2031h.13469a2.29386,2.29386,0,0,0,1.0762-.2031.72613.72613,0,0,0,.4023-.668V79.35251l.3789-.4726.001-.002.002-.00191a4.464,4.464,0,0,1,1.1191-1.002,2.58433,2.58433,0,0,1,1.4365-.50389,3.65957,3.65957,0,0,1,1.211.1797,2.86729,2.86729,0,0,0,.7011.1934.45113.45113,0,0,0,.3536-.2071,1.7222,1.7222,0,0,0,.2392-.5058,4.0189,4.0189,0,0,0,.209-1.24031A1.258,1.258,0,0,0,195.333,74.74121Z" transform="translate(0.00002)"/><path class="a" d="M134.99118,74.34471a7.20305,7.20305,0,0,0-5.7803,2.3789c-1.3574,1.5899-2.0263,3.9063-2.0263,6.9336,0,3.0293.6797,5.30279,2.06341,6.80279,1.38479,1.5,3.51179,2.24021,6.35259,2.24021a11.40076,11.40076,0,0,0,4.2939-.7539,6.13094,6.13094,0,0,0,1.4131-.7442,1.06561,1.06561,0,0,0,.5088-.7929,2.34218,2.34218,0,0,0-.44139-1.0821c-.293-.457-.55271-.7246-.86721-.7343l-.1172.0293c-.1162.0468-.3291.1523-.6523.3222l-.001.002h-.0019a8.34426,8.34426,0,0,1-4.169,1.0664,4.81591,4.81591,0,0,1-3.665-1.2793,6.34579,6.34579,0,0,1-1.40339-3.918h10.55079c.2813-.0078.5293-.2226.8106-.5918a1.73516,1.73516,0,0,0,.43161-.9199c0-2.9609-.60061-5.1992-1.82131-6.7031A6.65074,6.65074,0,0,0,134.99118,74.34471Zm4.0303,7.7832h-8.5244a6.39868,6.39868,0,0,1,1.3222-3.8008,4.13823,4.13823,0,0,1,3.2745-1.2949,3.45952,3.45952,0,0,1,2.9453,1.2871A6.3709,6.3709,0,0,1,139.02148,82.12791Z" transform="translate(0.00002)"/><path class="a" d="M168.59768,90.04791a.48049.48049,0,0,0-.376-.2032,4.21651,4.21651,0,0,0-.499.086,4.73359,4.73359,0,0,1-.9561.082,1.46071,1.46071,0,0,1-1.2705-.5742,3.059,3.059,0,0,1-.4316-1.8047V77.23541h2.7168a.70006.70006,0,0,0,.6123-.3106,1.51545,1.51545,0,0,0,.19041-.8301v-.4062a1.51545,1.51545,0,0,0-.19041-.8301.69975.69975,0,0,0-.6123-.3105h-2.7168v-3.4278a.77447.77447,0,0,0-.3047-.6582,1.39547,1.39547,0,0,0-.836-.21091h-.3379a1.47153,1.47153,0,0,0-.8496.209.83451.83451,0,0,0-.3574.64641h0l-.3935,3.4415h-1.5811a.69672.69672,0,0,0-.61129.3105,1.50667,1.50667,0,0,0-.19051.8301v.4062a1.50667,1.50667,0,0,0,.19051.8301.697.697,0,0,0,.61129.3106h1.5674v10.6699c-.001,1.7558.4502,3.0136,1.3847,3.7363a4.95222,4.95222,0,0,0,3.1045,1.0586,5.22352,5.22352,0,0,0,1.9014-.2637.95236.95236,0,0,0,.6953-.8769,3.53989,3.53989,0,0,0-.209-1.002A1.58814,1.58814,0,0,0,168.59768,90.04791Z" transform="translate(0.00002)"/><path class="b" d="M210.27148,60.28521a17.94219,17.94219,0,0,1-.167-2.9209v-7.5801a4.84688,4.84688,0,0,0-1.8057-4.0059,7.17118,7.17118,0,0,0-4.6133-1.4316,13.94439,13.94439,0,0,0-4.7978.7344,6.48033,6.48033,0,0,0-1.5156.7402,1.07965,1.07965,0,0,0-.5459.8154,2.32444,2.32444,0,0,0,.4424,1.0811c.291.459.5517.7265.8671.7363l.1211-.0332c.1241-.0508.3575-.166.7159-.3535v-.001a9.67162,9.67162,0,0,1,4.4414-1.0342,4.455,4.455,0,0,1,2.7168.6856,2.38639,2.38639,0,0,1,.8818,2.03219v1.46971q-2.874.07035-5.13569.3516a8.93915,8.93915,0,0,0-4.20321,1.6474,4.75414,4.75414,0,0,0-1.8965,4.1114,4.90984,4.90984,0,0,0,1.6368,4.0566,6.58422,6.58422,0,0,0,4.2744,1.3135,7.46951,7.46951,0,0,0,5.6133-2.4131c.0107.0576.0224.1152.0341.1924a3.10469,3.10469,0,0,0,.1055.4941c.0322.0957.0713.23539.1162.4141a2.78386,2.78386,0,0,0,.1416.4434,2.03494,2.03494,0,0,0,.1983.3427v-.0009a.81422.81422,0,0,0,.3007.2773,1.30062,1.30062,0,0,0,.5459.081,3.98458,3.98458,0,0,0,1.0332-.1904,1.33482,1.33482,0,0,0,.5323-.2695.58826.58826,0,0,0,.2011-.4434c-.0019-.0566-.0214-.1592-.0615-.3857C210.40918,61.02151,210.35058,60.70211,210.27148,60.28521Zm-3.2588-2.5733a11.57775,11.57775,0,0,1-2.3848,1.6729,6.13405,6.13405,0,0,1-2.8037.5947,2.87061,2.87061,0,0,1-2.0703-.6582,2.645,2.645,0,0,1-.6816-1.9912,2.41341,2.41341,0,0,1,1.3203-2.3584l.001-.001a11.44544,11.44544,0,0,1,1.3388-.6025l.002-.001a18.61868,18.61868,0,0,1,5.2783-.4639Z" transform="translate(0.00002)"/><path class="b" d="M128.70508,40.334a2.28731,2.28731,0,0,0,1.0752.20121h.4062a2.29545,2.29545,0,0,0,1.0752-.20121.72932.72932,0,0,0,.4024-.668V37.66891a.72922.72922,0,0,0-.4024-.66791,2.282,2.282,0,0,0-1.0752-.20119h-.4062a2.274,2.274,0,0,0-1.0752.20119.72921.72921,0,0,0-.4043.66791V39.666A.7293.7293,0,0,0,128.70508,40.334Z" transform="translate(0.00002)"/><path class="b" d="M131.127,44.68261a2.28509,2.28509,0,0,0-1.07621-.2012H129.916a2.28237,2.28237,0,0,0-1.07621.2012.73018.73018,0,0,0-.4033.668v16.3457a.73124.73124,0,0,0,.4033.668,2.2938,2.2938,0,0,0,1.07621.2011h.13479a2.29655,2.29655,0,0,0,1.07621-.2011.72927.72927,0,0,0,.40229-.668V45.35061A.72927.72927,0,0,0,131.127,44.68261Z" transform="translate(0.00002)"/><path class="b" d="M349.31447,60.55761a1.59768,1.59768,0,0,0-.251-.5097.48291.48291,0,0,0-.376-.2032,4.011,4.011,0,0,0-.499.0879,4.80032,4.80032,0,0,1-.9561.082,1.46286,1.46286,0,0,1-1.2695-.5751,3.05832,3.05832,0,0,1-.4326-1.8047V47.23541h2.7168a.69611.69611,0,0,0,.6123-.3086,1.51639,1.51639,0,0,0,.1904-.8321v-.4052a1.51248,1.51248,0,0,0-.1904-.8311.69388.69388,0,0,0-.6123-.3086h-2.7168v-3.4287a.775.775,0,0,0-.3047-.6592,1.40957,1.40957,0,0,0-.836-.21091h-.3378a1.4924,1.4924,0,0,0-.8497.209.84128.84128,0,0,0-.3564.64641h-.001l-.3945,3.4434h-1.5801a.69331.69331,0,0,0-.6113.3086,1.5031,1.5031,0,0,0-.1904.8311v.4052a1.507,1.507,0,0,0,.1904.8321.69554.69554,0,0,0,.6113.3086h1.5674v10.6699c-.001,1.7558.4512,3.0156,1.3848,3.7363a4.94657,4.94657,0,0,0,3.1054,1.0586,5.24967,5.24967,0,0,0,1.9004-.2627.9532.9532,0,0,0,.6953-.877A3.53145,3.53145,0,0,0,349.31447,60.55761Z" transform="translate(0.00002)"/><path class="b" d="M332.36037,44.34671a6.72832,6.72832,0,0,0-4.9903,2.4101c-.0097-.04881-.0195-.0947-.0303-.1582a3.50054,3.50054,0,0,0-.1064-.458c-.0332-.09861-.0723-.2314-.1162-.3994a3.10051,3.10051,0,0,0-.1416-.4238,1.57942,1.57942,0,0,0-.2022-.3301v-.001a.90431.90431,0,0,0-.2959-.2549h-.0009a1.317,1.317,0,0,0-.5459-.081,3.99477,3.99477,0,0,0-1.0332.1914,1.32217,1.32217,0,0,0-.5323.2686.58805.58805,0,0,0-.2011.4433,3.51974,3.51974,0,0,0,.0615.4024q.0585.3324.1777.9414a17.5588,17.5588,0,0,1,.167,2.9199v11.8789a.72947.72947,0,0,0,.4033.668,2.292,2.292,0,0,0,1.0752.2011h.1358a2.29443,2.29443,0,0,0,1.0752-.2011.72925.72925,0,0,0,.4023-.668V49.35641a5.165,5.165,0,0,1,4.1397-2.29,3.41219,3.41219,0,0,1,2.4677.8281,3.07422,3.07422,0,0,1,.8594,2.3291v11.4727a.72849.72849,0,0,0,.4024.668,2.2913,2.2913,0,0,0,1.0751.2011h.1358a2.292,2.292,0,0,0,1.0752-.2011.72668.72668,0,0,0,.4033-.668V49.95311a5.53094,5.53094,0,0,0-1.5098-4.1162A5.934,5.934,0,0,0,332.36037,44.34671Z" transform="translate(0.00002)"/><path class="b" d="M314.78027,44.34671A7.19911,7.19911,0,0,0,309,46.72461c-1.35741,1.5889-2.02641,3.9053-2.02641,6.9346,0,3.0283.6807,5.3017,2.0635,6.8017,1.3858,1.5,3.5127,2.2403,6.3525,2.2393a11.394,11.394,0,0,0,4.294-.7539,6.13307,6.13307,0,0,0,1.4131-.7442,1.069,1.069,0,0,0,.5088-.7929,2.34519,2.34519,0,0,0-.4414-1.0811c-.292-.458-.5528-.7256-.8672-.7353l-.1162.03019c-.1172.04691-.3301.15341-.6534.32231l-.0009.001-.002.001a8.36708,8.36708,0,0,1-4.1689,1.0673,4.82248,4.82248,0,0,1-3.6651-1.2812,6.34649,6.34649,0,0,1-1.4043-3.918h10.5528c.2802-.0068.5293-.2226.8095-.5918a1.71393,1.71393,0,0,0,.4307-.9199c0-2.9609-.5996-5.1982-1.8203-6.7031A6.65075,6.65075,0,0,0,314.78027,44.34671Zm4.0312,7.7832h-8.5254a6.40245,6.40245,0,0,1,1.3223-3.8028,4.14,4.14,0,0,1,3.2744-1.2949,3.45926,3.45926,0,0,1,2.9453,1.2871A6.38354,6.38354,0,0,1,318.81147,52.12991Z" transform="translate(0.00002)"/><path class="b" d="M302.60157,45.34861h-.002l-.001-.0009a6.34866,6.34866,0,0,0-3.5195-1.001,6.9882,6.9882,0,0,0-5.3496,2.7148c-.81349-1.8037-2.4619-2.7217-4.8701-2.7148a6.69013,6.69013,0,0,0-5.0752,2.4072c-.0098-.0488-.0186-.0937-.0293-.1553a3.51452,3.51452,0,0,0-.1065-.458c-.0332-.09861-.0722-.2314-.1162-.3994a3.07327,3.07327,0,0,0-.1416-.4238h-.001a1.60508,1.60508,0,0,0-.2011-.3311.90532.90532,0,0,0-.2959-.2549h-.001a1.3167,1.3167,0,0,0-.5459-.081,3.98826,3.98826,0,0,0-1.0332.1914,1.321,1.321,0,0,0-.5322.2686.58815.58815,0,0,0-.2012.4433,3.56647,3.56647,0,0,0,.0615.4024q.05865.3324.1778.9414a17.68276,17.68276,0,0,1,.167,2.9199v11.8789a.72929.72929,0,0,0,.4033.668,2.29178,2.29178,0,0,0,1.0752.2011h.1357a2.29443,2.29443,0,0,0,1.0752-.2011.72909.72909,0,0,0,.4023-.668V49.32321l.4776-.539.0019-.003.002-.0029a4.80773,4.80773,0,0,1,1.4687-1.15231,4.65237,4.65237,0,0,1,2.30671-.55959,2.71031,2.71031,0,0,1,2.07519.8408,3.2308,3.2308,0,0,1,.7949,2.3164v11.4727a.73123.73123,0,0,0,.4033.668,2.29379,2.29379,0,0,0,1.0762.2011h.1348a2.29579,2.29579,0,0,0,1.0761-.2011.73026.73026,0,0,0,.4034-.668v-11.709a6.04372,6.04372,0,0,0-.0303-.666c1.3515-1.5147,2.6953-2.2559,4.0332-2.2549a3.04554,3.04554,0,0,1,2.3291.8408,3.23914,3.23914,0,0,1,.7949,2.3164v11.4727a.73032.73032,0,0,0,.4023.668,2.29382,2.29382,0,0,0,1.0762.2011h.1348a2.292,2.292,0,0,0,1.0752-.2011.72932.72932,0,0,0,.4043-.668V49.95311a6.96278,6.96278,0,0,0-.51959-2.8252A4.07242,4.07242,0,0,0,302.60157,45.34861Z" transform="translate(0.00002)"/><path class="b" d="M148.5,62.36431a2.29618,2.29618,0,0,0,1.07619.2011h.1347a2.29623,2.29623,0,0,0,1.0762-.2011.73017.73017,0,0,0,.4033-.668v-7.5352l6.68261,7.92c.30769.3496.94149.4794,1.92189.4843h.1367a4.03563,4.03563,0,0,0,1.1543-.125c.2637-.0791.459-.2363.459-.4746a1.04176,1.04176,0,0,0-.334-.6211h0l-.00189-.0039h0L154.30858,53.168l6.2266-7.36429h-.001a1.18345,1.18345,0,0,0,.3681-.7578.491.491,0,0,0-.3779-.4463,2.79186,2.79186,0,0,0-.9326-.1182H159.457c-.956.004-1.583.1475-1.88861.51859h0l-.002.002-.001.00091h.001l-6.376,7.6114V37.66891a.73005.73005,0,0,0-.4033-.66791,2.28381,2.28381,0,0,0-1.0762-.20119h-.1347A2.28376,2.28376,0,0,0,148.5,37.001a.72914.72914,0,0,0-.40231.66791v24.0274A.73031.73031,0,0,0,148.5,62.36431Z" transform="translate(0.00002)"/><path class="b" d="M221.56927,44.34671a6.72774,6.72774,0,0,0-4.9892,2.4101c-.0098-.04881-.0196-.0947-.0303-.1582a3.517,3.517,0,0,0-.1064-.458c-.0332-.09861-.0723-.2314-.1163-.3994l-.0009-.0019v.0019a2.96711,2.96711,0,0,0-.1407-.4238h-.0009a1.60567,1.60567,0,0,0-.2012-.3311.90431.90431,0,0,0-.2959-.2549h-.001a1.3167,1.3167,0,0,0-.5459-.081,3.98832,3.98832,0,0,0-1.0332.1914,1.33235,1.33235,0,0,0-.5332.2686.591.591,0,0,0-.20019.4433,3.56556,3.56556,0,0,0,.06149.4024q.05865.3324.1778.9414a17.67141,17.67141,0,0,1,.167,2.9199v11.8789a.72772.72772,0,0,0,.4033.668,2.29175,2.29175,0,0,0,1.0752.2011h.1357a2.29175,2.29175,0,0,0,1.0752-.2011.72759.72759,0,0,0,.4024-.668V49.35641a5.165,5.165,0,0,1,4.1396-2.29,3.41228,3.41228,0,0,1,2.4678.8281,3.07459,3.07459,0,0,1,.8594,2.3291v11.4727a.72683.72683,0,0,0,.4023.668,2.29177,2.29177,0,0,0,1.0752.2011h.1357a2.29148,2.29148,0,0,0,1.0752-.2011.73009.73009,0,0,0,.4034-.668V49.95311a5.53471,5.53471,0,0,0-1.5088-4.1162A5.94066,5.94066,0,0,0,221.56927,44.34671Z" transform="translate(0.00002)"/><path class="b" d="M271.22947,44.34671a7.19517,7.19517,0,0,0-5.7803,2.3779c-1.3574,1.5889-2.0263,3.9053-2.0263,6.9346,0,3.0283.6796,5.3017,2.0634,6.8017s3.51171,2.2403,6.3526,2.2393a11.4044,11.4044,0,0,0,4.2939-.7539,6.13965,6.13965,0,0,0,1.4121-.7442,1.06745,1.06745,0,0,0,.5098-.7929,2.337,2.337,0,0,0-.4424-1.0811c-.292-.458-.5518-.7256-.8672-.7353l-.1162.03019c-.1162.04691-.3291.15341-.6523.32231l-.002.001-.001.001a8.37221,8.37221,0,0,1-4.1689,1.0673,4.82263,4.82263,0,0,1-3.6651-1.2812,6.33391,6.33391,0,0,1-1.4052-3.918h10.5517c.2823-.0068.5303-.2226.8116-.5918a1.72959,1.72959,0,0,0,.4306-.9199c0-2.9609-.5996-5.1982-1.8222-6.7031A6.6455,6.6455,0,0,0,271.22947,44.34671Zm4.0312,7.7832h-8.5263a6.40251,6.40251,0,0,1,1.3232-3.8028,4.13713,4.13713,0,0,1,3.2725-1.2949,3.459,3.459,0,0,1,2.9463,1.2871A6.37679,6.37679,0,0,1,275.26067,52.12991Z" transform="translate(0.00002)"/><path class="b" d="M174.55658,39.16311a1.60981,1.60981,0,0,0-1.5302-.6719h-1.2178a2.303,2.303,0,0,0-1.0752.2022.72653.72653,0,0,0-.4033.6679v22.335a.72772.72772,0,0,0,.4033.668,2.29175,2.29175,0,0,0,1.0752.2011h.2363a2.29623,2.29623,0,0,0,1.0762-.2011.73017.73017,0,0,0,.4033-.668V43.75681l6.668,11.6358h0l.001.0019.0009.001h0a.915.915,0,0,0,.8526.5029h1.3535a.91844.91844,0,0,0,.8555-.5048h-.001l6.5664-11.43561V61.69631a.73123.73123,0,0,0,.4033.668,2.29352,2.29352,0,0,0,1.0762.2011h.2363a2.29173,2.29173,0,0,0,1.0752-.2011.72668.72668,0,0,0,.4033-.668v-22.335a.72653.72653,0,0,0-.4033-.6679,2.303,2.303,0,0,0-1.0752-.2022h-1.1162a1.60417,1.60417,0,0,0-1.5303.67379l-6.3984,11.30671-.7627,1.6719-.7734-1.8731-6.3995-11.1074Z" transform="translate(0.00002)"/><path class="b" d="M144.30268,53.57131a10.67323,10.67323,0,0,0-4.3672-2.1807,5.32505,5.32505,0,0,1-1.9667-.9541A1.78431,1.78431,0,0,1,137.418,49.04a1.70863,1.70863,0,0,1,.74409-1.43939,3.55708,3.55708,0,0,1,2.1592-.5684,5.322,5.322,0,0,1,2.5303.59479l.0009.00091h.002c.1357.0684.2412.1192.3154.1543l.0938.041.0859.0215c.3047-.0136.5332-.289.8027-.7578a2.607,2.607,0,0,0,.4053-1.1943.78977.78977,0,0,0-.38959-.6172,3.88682,3.88682,0,0,0-1.05081-.48341A10.07657,10.07657,0,0,0,140,44.34671a6.04274,6.04274,0,0,0-4.14361,1.4004,4.47949,4.47949,0,0,0-1.5986,3.4961,4.19471,4.19471,0,0,0,1.0518,3.1172,7.756,7.756,0,0,0,3.3359,1.6718A7.62077,7.62077,0,0,1,141.623,55.374a2.55257,2.55257,0,0,1,.72269,1.93951,2.48831,2.48831,0,0,1-.8213,1.9707,3.08626,3.08626,0,0,1-2.1172.7304,7.00242,7.00242,0,0,1-2.2431-.3154,6.85218,6.85218,0,0,1-1.4287-.6299c-.17-.1074-.3008-.1884-.3936-.2431l-.1104-.0635-.039-.0195-.06539-.0157c-.31551.0098-.57621.2784-.86721.7364a2.33167,2.33167,0,0,0-.4424,1.081,1.01443,1.01443,0,0,0,.4697.7539,5.48693,5.48693,0,0,0,1.2988.6983,10.70754,10.70754,0,0,0,4.0762.7031,5.88374,5.88374,0,0,0,4.0938-1.5547,5.13191,5.13191,0,0,0,1.7158-3.9678A5.0004,5.0004,0,0,0,144.30268,53.57131Z" transform="translate(0.00002)"/><path class="b" d="M262.02537,44.54981h-5.8096a11.527,11.527,0,0,0-2.2441-.2031,7.15673,7.15673,0,0,0-5.0772,1.6914,5.618,5.618,0,0,0-1.8164,4.2871,5.86442,5.86442,0,0,0,.8135,3.0586,5.25618,5.25618,0,0,0,2.0996,1.9629c-1.5683.5957-2.40919,1.541-2.4053,2.8125a3.03606,3.03606,0,0,0,1.9795,2.8154c-2.3857.9082-3.6396,2.293-3.6377,4.1377a3.6514,3.6514,0,0,0,2.0655,3.5469,13.4445,13.4445,0,0,0,5.8593,1.0117,10.87753,10.87753,0,0,0,6.127-1.5273,4.58571,4.58571,0,0,0,2.3057-3.9102,4.04071,4.04071,0,0,0-1.2227-3.0508,6.03338,6.03338,0,0,0-2.9189-1.5381q-1.6803-.3735-3.3623-.5771a17.25874,17.25874,0,0,1-2.8389-.5547,2.21007,2.21007,0,0,1-.8399-.416.69044.69044,0,0,1-.2548-.5293.97342.97342,0,0,1,.6572-.8867,5.71,5.71,0,0,1,2.1338-.4102h.333a7.217,7.217,0,0,0,5.0928-1.6914,5.55778,5.55778,0,0,0,1.8339-4.2539,5.036,5.036,0,0,0-1.0048-3.0898h2.1318a.69543.69543,0,0,0,.6113-.3086,1.4995,1.4995,0,0,0,.1895-.8321v-.4052a1.49564,1.49564,0,0,0-.1895-.8311A.6932.6932,0,0,0,262.02537,44.54981ZM252.39747,61.792c.3369.06641.7832.14351,1.35151.23051h.002a14.35841,14.35841,0,0,1,4.55949,1.1347h-.0019a1.32345,1.32345,0,0,1,.7148,1.2442,2.12642,2.12642,0,0,1-1.3398,1.8203,7.42253,7.42253,0,0,1-3.6113.7637,9.55575,9.55575,0,0,1-3.7549-.5645,1.725,1.725,0,0,1-1.1963-1.6133,2.19536,2.19536,0,0,1,.9853-1.7285A8.8382,8.8382,0,0,1,252.39747,61.792Zm4.3632-9.02539a5.1036,5.1036,0,0,1-5.5439,0,3.774,3.774,0,0,1,0-4.916,5.10355,5.10355,0,0,1,5.5439,0,3.774,3.774,0,0,1,0,4.916Z" transform="translate(0.00002)"/><path class="b" d="M244.17967,60.28521a17.724,17.724,0,0,1-.167-2.9209v-7.5801a4.84862,4.84862,0,0,0-1.8076-4.0059,7.16677,7.16677,0,0,0-4.6123-1.4316,13.93463,13.93463,0,0,0-4.7969.7344,6.42059,6.42059,0,0,0-1.5156.7402,1.07877,1.07877,0,0,0-.5469.8154,2.32444,2.32444,0,0,0,.4424,1.0811c.291.459.5517.7265.86721.7363l.12109-.0332c.124-.0508.3584-.166.7158-.3535v-.001a9.67574,9.67574,0,0,1,4.4424-1.0342,4.446,4.446,0,0,1,2.7148.6856,2.38932,2.38932,0,0,1,.8828,2.03219v1.46971q-2.874.07035-5.1367.3516a8.95066,8.95066,0,0,0-4.2031,1.6474,4.75788,4.75788,0,0,0-1.8955,4.1114,4.9154,4.9154,0,0,0,1.6367,4.0566,6.589,6.589,0,0,0,4.2754,1.3135,7.46355,7.46355,0,0,0,5.61131-2.4131c.01079.0576.02249.1152.03419.1924a3.44672,3.44672,0,0,0,.1064.4941c.0323.0957.0713.23539.1162.4141a2.67478,2.67478,0,0,0,.1426.4434h-.001a1.98358,1.98358,0,0,0,.1993.3427l-.001-.0009a.81364.81364,0,0,0,.3008.2773,1.30323,1.30323,0,0,0,.5459.081,3.99309,3.99309,0,0,0,1.0332-.1904,1.33436,1.33436,0,0,0,.5322-.2695.58875.58875,0,0,0,.20121-.4434c-.002-.0566-.02151-.1592-.06161-.3857C244.31737,61.02151,244.25777,60.70211,244.17967,60.28521Zm-3.2598-2.5733a11.54061,11.54061,0,0,1-2.3857,1.6729,6.12751,6.12751,0,0,1-2.8028.5947,2.87062,2.87062,0,0,1-2.0703-.6582,2.64159,2.64159,0,0,1-.6806-1.9912,2.40975,2.40975,0,0,1,1.3193-2.3584l.001-.001a11.44544,11.44544,0,0,1,1.3388-.6025h.001l.001-.001a18.61469,18.61469,0,0,1,5.2783-.4639Z" transform="translate(0.00002)"/><path class="b" d="M126.582,61.38181l-2.64061-6.6689v.001a15.49108,15.49108,0,0,0-1.417-2.9356,3.39508,3.39508,0,0,0-1.5947-1.31831,5.80174,5.80174,0,0,0,3.8652-5.78519,5.29556,5.29556,0,0,0-2.0996-4.6543c-1.3984-.98051-3.459-1.4609-6.1797-1.4609h-5.6855a1.02091,1.02091,0,0,0-1.1406,1.1406v21.9961a.72846.72846,0,0,0,.4043.668,2.28457,2.28457,0,0,0,1.07421.2011h.27149a2.2913,2.2913,0,0,0,1.0751-.2011.72853.72853,0,0,0,.40341-.668v-9.6211h2.91989a5.93912,5.93912,0,0,1,3.1152.67379,5.02128,5.02128,0,0,1,1.8115,2.56251l2.5713,6.6328h0a.84908.84908,0,0,0,.5098.4766,2.65437,2.65437,0,0,0,.9609.1445h.3379a3.29172,3.29172,0,0,0,1.1094-.1435.57185.57185,0,0,0,.4365-.5235,1.69175,1.69175,0,0,0-.10839-.5127Zm-13.664-20h4.10449a5.07641,5.07641,0,0,1,3.2724.95319,3.29451,3.29451,0,0,1,1.1719,2.72851,4.00023,4.00023,0,0,1-1.2314,2.9902,4.10953,4.10953,0,0,1-2.9756,1.1992H112.918Z" transform="translate(0.00002)"/><path class="a" d="M182.98828,14.89751a17.57,17.57,0,0,1,.167,2.9199v11.8789a.73123.73123,0,0,0,.4033.668,2.29352,2.29352,0,0,0,1.0762.2011h.1347a2.29175,2.29175,0,0,0,1.0752-.2011.7267.7267,0,0,0,.40331-.668V17.35451l.379-.4736.00189-.003.002-.00191a4.49507,4.49507,0,0,1,1.11811-1.002,2.58017,2.58017,0,0,1,1.43649-.50289,3.66505,3.66505,0,0,1,1.211.1787h-.001a2.88178,2.88178,0,0,0,.7022.1934.44943.44943,0,0,0,.3525-.2061,1.741,1.741,0,0,0,.2402-.5068,4.01284,4.01284,0,0,0,.209-1.23931,1.2596,1.2596,0,0,0-.5586-1.04779,2.54353,2.54353,0,0,0-1.5293-.3965c-1.4092-.001-2.6992.8125-3.8633,2.375-.0078-.041-.0146-.0742-.0234-.1231a3.35913,3.35913,0,0,0-.1064-.458c-.0323-.09861-.0723-.2314-.1163-.3994a3.07327,3.07327,0,0,0-.1416-.4238,1.53775,1.53775,0,0,0-.2021-.3301v-.001a.9043.9043,0,0,0-.2959-.2549,1.325,1.325,0,0,0-.5469-.081,3.99546,3.99546,0,0,0-1.0332.1914,1.32773,1.32773,0,0,0-.5322.2686.59164.59164,0,0,0-.20119.4433,3.56563,3.56563,0,0,0,.06149.4024C182.85058,14.17771,182.90918,14.49121,182.98828,14.89751Z" transform="translate(0.00002)"/><path class="a" d="M220.00387,8.334a2.29,2.29,0,0,0,1.0752.20121h.4063a2.29227,2.29227,0,0,0,1.0751-.20121.73006.73006,0,0,0,.4034-.668V5.66891a.73.73,0,0,0-.4034-.66791,2.27891,2.27891,0,0,0-1.0751-.20119h-.4063a2.27668,2.27668,0,0,0-1.0752.20119.7283.7283,0,0,0-.4033.66791V7.666A.72839.72839,0,0,0,220.00387,8.334Z" transform="translate(0.00002)"/><path class="a" d="M200.28518,30.70021a7.25755,7.25755,0,0,0,5.8476-2.3281c1.3233-1.5547,1.9756-3.8203,1.9756-6.7813s-.6641-5.249-2.0088-6.8476a7.198,7.198,0,0,0-5.831-2.3965,7.32845,7.32845,0,0,0-5.8819,2.4121c-1.3789,1.6094-2.0615,3.8926-2.0605,6.832-.001,2.9395.67581,5.20119,2.0439,6.7656A7.44115,7.44115,0,0,0,200.28518,30.70021Zm-3.6036-14.1123a4.01913,4.01913,0,0,1,3.5186-1.5557,4.10087,4.10087,0,0,1,3.5547,1.5733,8.42952,8.42952,0,0,1,1.1592,4.93449,8.34784,8.34784,0,0,1-1.1592,4.918,4.119,4.119,0,0,1-3.5547,1.55661,4.02125,4.02125,0,0,1-3.5186-1.55561,8.57149,8.57149,0,0,1-1.1279-4.93559A8.57116,8.57116,0,0,1,196.68158,16.58791Z" transform="translate(0.00002)"/><path class="a" d="M222.42577,12.68261a2.28474,2.28474,0,0,0-1.0762-.2012h-.1348a2.28192,2.28192,0,0,0-1.0761.2012.73.73,0,0,0-.4033.668v16.3457a.731.731,0,0,0,.4033.668,2.29337,2.29337,0,0,0,1.0761.2011h.1348a2.29621,2.29621,0,0,0,1.0762-.2011.72925.72925,0,0,0,.4023-.668V13.35061A.72925.72925,0,0,0,222.42577,12.68261Z" transform="translate(0.00002)"/><path class="a" d="M138.52828,30.70021a7.25564,7.25564,0,0,0,5.84671-2.3281c1.32419-1.5547,1.97659-3.8203,1.97659-6.7813s-.6641-5.249-2.0098-6.8476a7.19613,7.19613,0,0,0-5.8301-2.3965,7.33036,7.33036,0,0,0-5.8828,2.4121c-1.37889,1.6094-2.0605,3.8926-2.0596,6.832-.0009,2.9395.6748,5.20119,2.044,6.7656A7.44093,7.44093,0,0,0,138.52828,30.70021Zm-3.6045-14.1123a4.02211,4.02211,0,0,1,3.5196-1.5557,4.1007,4.1007,0,0,1,3.55461,1.5733A8.42812,8.42812,0,0,1,143.15718,21.54a8.34646,8.34646,0,0,1-1.15919,4.918,4.1188,4.1188,0,0,1-3.55461,1.55661,4.02423,4.02423,0,0,1-3.5196-1.55561,8.58021,8.58021,0,0,1-1.1269-4.93559A8.57988,8.57988,0,0,1,134.92378,16.58791Z" transform="translate(0.00002)"/><path class="a" d="M214.43647,29.69631V15.23541h2.8194a.69267.69267,0,0,0,.6103-.3086,1.50732,1.50732,0,0,0,.1914-.8321v-.4052a1.50343,1.50343,0,0,0-.1914-.8311.69348.69348,0,0,0-.6103-.3096h-2.8194V9.72951a2.92888,2.92888,0,0,1,.43751-1.9258,1.47541,1.47541,0,0,1,1.11229-.4531,5.84534,5.84534,0,0,1,1.1084.082,3.942,3.942,0,0,0,.4991.0879.48738.48738,0,0,0,.3759-.2031,1.61015,1.61015,0,0,0,.251-.5098,3.5358,3.5358,0,0,0,.209-1.0029.95257.95257,0,0,0-.6953-.877A5.23015,5.23015,0,0,0,215.833,4.665a5.39328,5.39328,0,0,0-2.874.83011h.00189c-1.0927.6651-1.6181,2.00589-1.6171,3.96489v3.08881h-1.2286a.69519.69519,0,0,0-.6113.3096,1.48692,1.48692,0,0,0-.1904.8311v.4052a1.49075,1.49075,0,0,0,.1904.8321.69439.69439,0,0,0,.6113.3086h1.2286v14.4609a.73014.73014,0,0,0,.4023.668,2.29623,2.29623,0,0,0,1.0762.2011h.13471a2.289,2.289,0,0,0,1.07519-.2011A.72931.72931,0,0,0,214.43647,29.69631Z" transform="translate(0.00002)"/><path class="a" d="M233.60447,30.43751a.95454.95454,0,0,0,.6963-.8779,3.53682,3.53682,0,0,0-.209-1.002,1.59768,1.59768,0,0,0-.251-.5097.4843.4843,0,0,0-.376-.2032,3.98239,3.98239,0,0,0-.499.0879,4.80632,4.80632,0,0,1-.956.082,1.46583,1.46583,0,0,1-1.2705-.5751,3.06109,3.06109,0,0,1-.4317-1.8047V15.23541h2.7168a.69715.69715,0,0,0,.6123-.3086,1.51672,1.51672,0,0,0,.1895-.8321v-.4052a1.51281,1.51281,0,0,0-.1895-.8311.698.698,0,0,0-.6123-.3096h-2.7168V9.12111a.77544.77544,0,0,0-.30559-.6592,1.40593,1.40593,0,0,0-.836-.21091h-.33791a1.49074,1.49074,0,0,0-.8486.209.84516.84516,0,0,0-.3574.64641h-.001l-.3936,3.4424h-1.58a.698.698,0,0,0-.6123.3096,1.51194,1.51194,0,0,0-.1895.8311v.4052a1.51585,1.51585,0,0,0,.1895.8321.69716.69716,0,0,0,.6123.3086h1.5673v10.6699c-.0009,1.7558.45021,3.0146,1.3848,3.7363a4.94609,4.94609,0,0,0,3.1045,1.0586A5.25,5.25,0,0,0,233.60447,30.43751Z" transform="translate(0.00002)"/><path class="a" d="M148.67578,14.89751a17.70142,17.70142,0,0,1,.166,2.9199v11.8789a.72862.72862,0,0,0,.4043.668,2.28485,2.28485,0,0,0,1.0742.2011h.13671a2.29039,2.29039,0,0,0,1.07429-.2011.73017.73017,0,0,0,.4033-.668V17.35551a5.16464,5.16464,0,0,1,4.1386-2.2891,3.41069,3.41069,0,0,1,2.46781.8281,3.07424,3.07424,0,0,1,.85939,2.3291v11.4727a.72947.72947,0,0,0,.4033.668,2.28906,2.28906,0,0,0,1.0752.2011h.1357a2.29417,2.29417,0,0,0,1.0752-.2011.72918.72918,0,0,0,.4024-.668V17.95311a5.53078,5.53078,0,0,0-1.5088-4.1162,5.93742,5.93742,0,0,0-4.3525-1.4902,6.72207,6.72207,0,0,0-4.9883,2.4111c-.0098-.04981-.01959-.0957-.0313-.1592a3.52416,3.52416,0,0,0-.1054-.458c-.0332-.09861-.0723-.2314-.1163-.3994h-.0009a3.09986,3.09986,0,0,0-.14069-.4238h-.00191a1.57371,1.57371,0,0,0-.2012-.3301h.002l-.002-.001a.91146.91146,0,0,0-.29489-.2549h-.002a1.31152,1.31152,0,0,0-.54491-.081,3.98114,3.98114,0,0,0-1.0332.1914,1.31508,1.31508,0,0,0-.5322.2686.585.585,0,0,0-.2012.4433,3.33246,3.33246,0,0,0,.06151.4024Q148.55662,14.28851,148.67578,14.89751Z" transform="translate(0.00002)"/><path class="a" d="M165.49408,14.89751a17.69842,17.69842,0,0,1,.1661,2.9199V36.667a.73015.73015,0,0,0,.4033.668,2.27773,2.27773,0,0,0,1.0752.20111h.1357a2.2831,2.2831,0,0,0,1.0752-.20111.72935.72935,0,0,0,.40241-.668V29.08011a8.19694,8.19694,0,0,0,4.95109,1.6201,5.96973,5.96973,0,0,0,4.835-2.3984,10.23157,10.23157,0,0,0,1.9238-6.59181v-.30469a10.97981,10.97981,0,0,0-1.8008-6.502,5.67037,5.67037,0,0,0-4.8554-2.5566,7.42,7.42,0,0,0-5.3438,2.4199c-.0107-.0508-.0205-.10061-.0322-.168a3.49809,3.49809,0,0,0-.1065-.458c-.03219-.09861-.07119-.2314-.11619-.3994a3.07419,3.07419,0,0,0-.14161-.4238,1.57885,1.57885,0,0,0-.2021-.3301v-.001a.90531.90531,0,0,0-.2959-.2549h-.001a1.3167,1.3167,0,0,0-.5459-.081,3.99541,3.99541,0,0,0-1.0332.1914,1.32778,1.32778,0,0,0-.5322.2686.58852.58852,0,0,0-.2012.4433,3.8367,3.8367,0,0,0,.0615.4024C165.35548,14.17771,165.41408,14.49121,165.49408,14.89751Zm7.4297,13.0488h-.2011a6.10376,6.10376,0,0,1-3.97069-1.4619v-9.1563a5.86861,5.86861,0,0,1,4.22459-2.2617,3.47567,3.47567,0,0,1,3.1933,1.7168,9.36086,9.36086,0,0,1,1.0635,4.8584,8.20372,8.20372,0,0,1-1.1113,4.7002A3.723,3.723,0,0,1,172.92378,27.94631Z" transform="translate(0.00002)"/><path class="a" d="M109.85638,30.36431a2.28958,2.28958,0,0,0,1.0752.2011h.23641a2.29578,2.29578,0,0,0,1.07609-.2011.73008.73008,0,0,0,.4034-.668V11.89161l.6806,1.2871L124.498,30.03421h0a1.42455,1.42455,0,0,0,1.28909.5312h.6777a2.29042,2.29042,0,0,0,1.0743-.2011.73017.73017,0,0,0,.4033-.668V7.36131a.73.73,0,0,0-.4033-.6679,2.30168,2.30168,0,0,0-1.0743-.2022h-.2373a2.30429,2.30429,0,0,0-1.0761.2022.7301.7301,0,0,0-.40339.6679v17.6065l-.78121-1.461L113.166,7.18851l-.00191-.003a1.78144,1.78144,0,0,0-1.5215-.6943h-.711a2.30079,2.30079,0,0,0-1.0752.2022.72845.72845,0,0,0-.4033.6679v22.335A.72964.72964,0,0,0,109.85638,30.36431Z" transform="translate(0.00002)"/><path class="c" d="M10.22032.28418s-9.94009,0-9.94009,9.94009V84.64784s0,9.94009,9.94009,9.94009H83.34014s9.94009,0,9.94009-9.94009V10.22427s0-9.94009-9.94009-9.94009H10.22032" transform="translate(0.00002)"/><path class="d" d="M25.67188,15.6543c22.69043,13.83112,52.1806,31.78912,52.9975,32.19922l.06012.0332c7.865,3.8623,12.329,10.59625,14.831,16.40894V10s0-10-10-10H48.623C29.65527,0,26.085,13.69434,25.67188,15.6543Z" transform="translate(0.00002)"/><path class="e" d="M0,10V84.87213s.00055.0603.00458.16132C15.52612,87.85406,25.624,79.92682,25.624,79.92682V15.89453s.01563-.08984.04791-.24023C26.085,13.69434,29.65527,0,48.623,0H10S0,0,0,10Z" transform="translate(0.00002)"/><path class="f" d="M10,0S0,0,0,10V84.87211s0,10,10,10H83.56048s10,0,10-10V10s0-10-10-10H10" transform="translate(0.00002)"/><path class="g" d="M.00458,85.03345C.05511,86.30035.73853,94.87213,10,94.87213H83.56049s10,0,10-10V63.67377a31.2711,31.2711,0,0,0-14.831-15.787l-.06012-.03119C77.16748,47.12109,25.624,78.92682,25.624,78.92682A31.938,31.938,0,0,1,.00458,85.03345Z" transform="translate(0.00002)"/></svg>